<svg width="45" height="45" fill="none" xmlns="http://www.w3.org/2000/svg">
    <path fill-rule="evenodd" clip-rule="evenodd" d="M0 22.437C0 1.9 14.516 0 22.5 0 30.483 0 45 1.901 45 22.437 45 42.465 30.242 45 22.5 45 14.88 45 0 42.465 0 22.437zm30.968-.761 2.42 19.014c1.33-.76 8.587-4.436 8.467-18.253C41.855 6.21 32.42 1.9 24.315 1.9l6.653 19.775zM22.5 17.873h1.089V1.901h-2.057v15.972h.968zm0 25.226c4.476 0 8.468-1.268 10.16-2.155l-8.83-20.155h-2.66l-8.832 20.154c1.694.888 5.686 2.156 10.162 2.156zM20.686 1.901c-8.105 0-17.541 4.31-17.541 20.536-.12 13.817 7.137 17.492 8.468 18.253l2.54-19.014L20.686 1.9z" fill="#A6A8AA"/>
</svg>
