<svg width="45" height="45" fill="none" xmlns="http://www.w3.org/2000/svg">
    <g clip-path="url(#a)">
        <path d="M43.914 22.5c0 11.827-9.587 21.414-21.414 21.414-11.827 0-21.415-9.587-21.415-21.414 0-11.827 9.588-21.415 21.415-21.415S43.914 10.673 43.914 22.5z" fill="#1E1D51"/>
        <path d="M22.416 7.47c-1.828.034-3.583.36-5.214.929v11.756h5.214V7.469zm-9.485 3.503c-2.72 2.308-4.637 5.491-5.289 9.097h5.29v-9.097zm4.086 13.353v12.29c1.674.568 3.475.893 5.352.928V24.326h-5.352zm-9.392.033c.542 3.84 2.5 7.238 5.34 9.666V24.36h-5.34z" fill="url(#b)"/>
        <path d="M22.796 7.62c8.08.159 14.583 6.762 14.583 14.88 0 8.118-6.503 14.718-14.583 14.876V7.62z" fill="url(#c)"/>
        <path d="M16.814 8.585v11.903h5.521v3.514h-5.521v12.444a15.208 15.208 0 0 1-3.539-2.056V24.002H7.523a15.142 15.142 0 0 1 .064-3.514h5.688v-9.846a15.208 15.208 0 0 1 3.539-2.057z" fill="url(#d)"/>
        <path d="M26.563 12.632h5.119v.714h-5.12v-.714z" fill="#9D0D16"/>
        <path d="M22.563 0C14.773-.012 7.187 4.024 3.015 11.25c-6.21 10.756-2.52 24.525 8.236 30.734 10.755 6.21 24.524 2.52 30.734-8.235 6.21-10.756 2.52-24.525-8.236-30.734A22.382 22.382 0 0 0 22.562 0zM22.5 1.085c11.82 0 21.415 9.594 21.415 21.414 0 11.821-9.594 21.415-21.415 21.415-11.82 0-21.415-9.594-21.415-21.415 0-11.82 9.594-21.414 21.415-21.414zm-1.29.75v4.438h1.353V4.778l1.092 1.495 1.78.26-1.542-1.992c.338-.07.973-.43.973-1.187 0-1.133-1.02-1.495-1.661-1.495l-1.994-.024zm1.71.973c.367 0 .628.25.64.522.012.273-.177.57-.593.57h-.428l-.023-1.068.404-.024zm6.376.252h-.072c-1.167.025-2.154.732-2.39 1.888-.235 1.15.81 2.512 2.088 2.802 1.386.315 2.68-.343 2.971-1.837.25-1.28-.69-2.536-2.087-2.802a2.817 2.817 0 0 0-.51-.05zM12.928 4.232l-1.21.64.568 5.008 1.282-.949-.166-.759 1.4-.83.641.474 1.472-.593-3.987-2.991zm16.399.055c.082 0 .166.008.25.024.674.128 1.101.71.983 1.329-.117.617-.736 1.038-1.41.91-.674-.129-1.006-.781-.888-1.4.103-.54.49-.865 1.065-.863zM12.975 5.822l1.02.783-.736.427-.284-1.21zm22.571.641L31.75 9.098l1.115.878 1.828-1.424-.926 2.302.474.45 2.327-.949-1.4 1.899.854 1.21 2.682-3.845-.855-1.02-2.184.878.88-2.207-.998-.807zM22.5 7.024c-8.54 0-15.476 6.937-15.476 15.476 0 8.54 6.937 15.475 15.476 15.475 8.54 0 15.476-6.936 15.476-15.475S31.039 7.024 22.5 7.024zm-14.177.507L6.472 9.667l3.227 2.872.903-1.044-1.234-1.092.901-.973-.783-.712-.902.996-.45-.427.972-1.068-.783-.688zm13.878.09v12.282h-4.814V8.52a14.833 14.833 0 0 1 4.814-.9zm.595 0c5.667.11 10.558 3.392 12.974 8.142a4.52 4.52 0 0 0-.095-.123c-.592-.735-1.338-1.223-1.973-1.631a.297.297 0 0 0-.403.076.965.965 0 0 1-.79.375h-2.742a.639.639 0 0 0-.381.12.507.507 0 0 0-.213.4v.312c-.001.002-.004.007-.016.016a.242.242 0 0 1-.138.042h-2.362l.002-.197v-.004c0-.36-.183-.686-.466-.892l-.005-.004-.004-.002-1.032-.7-.002-.002h-.001a.918.918 0 0 0-.522-.157.79.79 0 0 0-.169.022.853.853 0 0 0-.51.367c-.228.352-.176.908.265 1.223l.484.37.004.003.003.002c.102.073.159.161.159.186l-.012.784v.005c0 .01-.001.012-.002.016a.319.319 0 0 1-.094-.021c-.114-.038-.201-.086-.336-.137a1.482 1.482 0 0 0-.531-.092 1.202 1.202 0 0 0-1.092.676V7.62zm-6.005 1.132v11.745h5.41v3.467h-5.41v12.28a14.865 14.865 0 0 1-3.466-2.03v-10.25H7.689a15.051 15.051 0 0 1 .063-3.467h5.573v-9.715a14.873 14.873 0 0 1 3.466-2.03zm10.088 2.288a.44.44 0 1 0 0 .881.44.44 0 0 0 0-.881zm1.122 0a.44.44 0 1 0 0 .881.44.44 0 0 0 0-.881zm1.121 0a.44.44 0 1 0 0 .881.44.44 0 0 0 0-.881zm1.122 0a.44.44 0 1 0 0 .881.44.44 0 0 0 0-.881zm1.122 0a.44.44 0 1 0 0 .881.44.44 0 0 0 0-.881zm-18.636.234v8.628H7.844a14.869 14.869 0 0 1 4.886-8.628zm13.833.917v.714h5.119v-.714h-5.119zm0 .961v.714h5.119v-.714h-5.119zm14.252.003-4.035 1.638 1.14 2.658 1.067-.45-.593-1.354.499-.237.57 1.305.972-.404-.545-1.257.474-.214.57 1.353.997-.403-1.116-2.635zm-36.86.499-.568 1.257 3.94 1.828 1.257-2.564-.973-.498-.76 1.33-2.895-1.353zm20.69.33c.046-.002.1.01.175.06l1.03.698a.545.545 0 0 1 .214.406l-.012.965v.004c0 .38.192.704.44.93.147.133.314.239.494.303-.18.064-.347.17-.494.303-.248.226-.44.55-.44.93v.003l.012.97a.56.56 0 0 1-.223.408l-1.023.694c-.1.065-.16.065-.218.05a.263.263 0 0 1-.153-.113c-.076-.118-.11-.255.112-.413l.003-.003.004-.003.493-.376c.166-.12.4-.32.4-.664v-.004l-.013-.79a.598.598 0 0 0-.23-.487c-.17-.129-.414-.145-.646-.068-.166.054-.275.113-.362.145a.783.783 0 0 1-.32.053.568.568 0 0 1-.466-.205.677.677 0 0 1-.157-.4v-.06c0-.11.053-.28.157-.4a.568.568 0 0 1 .465-.206c.16 0 .234.02.321.053s.196.092.362.146c.232.076.476.06.646-.068a.606.606 0 0 0 .23-.492l.012-.785v-.004c0-.345-.24-.55-.407-.67l-.485-.37-.004-.003-.003-.003c-.222-.158-.189-.295-.112-.413a.263.263 0 0 1 .153-.114.249.249 0 0 1 .044-.006zm8.944.662c.57.373 1.16.793 1.622 1.367.52.644.886 1.473.886 2.695 0 2.297-2.144 4.14-4.206 4.14h-4.984a.512.512 0 0 0-.375.166.499.499 0 0 0-.122.337c.001.116.039.234.125.333a.51.51 0 0 0 .372.164h4.866c1.749 0 2.682 1.126 2.682 2.455 0 1.296-.97 2.514-2.67 2.514H26.77a.46.46 0 0 0-.33.143.439.439 0 0 0-.113.3.44.44 0 0 0 .113.295.46.46 0 0 0 .33.143h3.732c.803 0 1.486.783 1.486 1.53 0 .38-.108.73-.346.984-.238.255-.619.44-1.259.44h-2.238c-.089 0-.183.019-.27.08a.38.38 0 0 0-.152.306c.003.124.075.23.157.289.083.059.176.08.265.08h1.485c.209 0 .364.092.486.24a.88.88 0 0 1 .194.524.69.69 0 0 1-.212.52.621.621 0 0 1-.376.145.518.518 0 0 0-.048-.3.505.505 0 0 0-.418-.247h-.89c-.31 0-.653-.117-.906-.338-.253-.22-.426-.534-.426-.984 0-.415.173-.71.419-.922.245-.212.572-.323.812-.323h2.189a.534.534 0 0 0 .287-.073.387.387 0 0 0 .187-.32.389.389 0 0 0-.188-.32.533.533 0 0 0-.286-.072h-3.43c-1.319 0-2.053-.934-2.053-1.94 0-.899.769-1.963 1.935-1.963h5.103a.5.5 0 0 0 .367-.164.492.492 0 0 0 .117-.329.495.495 0 0 0-.12-.325.498.498 0 0 0-.364-.163h-5.198c-1.453 0-2.602-1.077-2.602-2.704 0-1.36 1.112-2.753 2.756-2.753h4.711a.825.825 0 0 0 .63-.284.905.905 0 0 0 .204-.581.897.897 0 0 0-.201-.584.828.828 0 0 0-.633-.285h-5.026l-.004-.282c0-.174.095-.35.247-.488.151-.138.355-.217.48-.217h2.817a.55.55 0 0 0 .323-.098.525.525 0 0 0 .204-.427c0-.203-.06-.305-.204-.427a.55.55 0 0 0-.323-.098h-2.817c-.125 0-.329-.08-.48-.218-.152-.138-.247-.316-.247-.49l.002-.173h3.438c.19 0 .364-.06.501-.165a.594.594 0 0 0 .249-.47v-.254h1.671c.434 0 .81-.162 1.08-.409zm3.033 3.153c.491 1.478.757 3.058.757 4.7 0 5.198-2.665 9.773-6.705 12.434.158-.224.232-.495.232-.762 0-.318-.114-.64-.33-.902l-.027-.03c.677-.032 1.193-.261 1.529-.62.362-.388.506-.897.506-1.39 0-.73-.408-1.43-1.026-1.817h.226c1.994 0 3.266-1.506 3.266-3.109 0-1.358-.884-2.575-2.353-2.938 2.11-.396 3.996-2.295 3.996-4.657 0-.323-.026-.625-.071-.909zm-13.826.106a1.202 1.202 0 0 0 1.091.676c.224 0 .397-.041.532-.092s.221-.1.336-.137a.319.319 0 0 1 .094-.02c0 .003.002.006.002.015v.004l.012.79c0 .024-.057.108-.159.18l-.003.003-.004.003-.492.376a.9.9 0 0 0-.256 1.217.86.86 0 0 0 .415.337 3.384 3.384 0 0 0-.75 2.092c0 1.653 1.073 2.906 2.494 3.22-1.064.364-1.732 1.428-1.732 2.427 0 1.31 1.038 2.536 2.65 2.536h.117a1.797 1.797 0 0 0-.703 1.434c0 .613.258 1.11.629 1.434.37.323.843.484 1.297.484h.746c-.015.054-.033.105-.033.105a.296.296 0 0 0 .215.412c.212.042.414.045.596.014a14.805 14.805 0 0 1-7.094 1.96v-19.47zm-16.04.518-4.628 1.52-.165 1.376 4.39 2.374-.023-1.59-.664-.308.1-1.634.777-.194.214-1.544zm34.035.143c-1.549 0-2.325 1.27-2.325 2.54s.918 2.54 2.325 2.54 2.35-1.152 2.35-2.54c0-1.365-.824-2.54-2.35-2.54zm-14.133.89h5.02c.101 0 .138.029.175.072.036.044.063.12.063.2a.33.33 0 0 1-.066.201c-.038.045-.075.072-.173.072h-4.71c-.144 0-.284.009-.421.026.072-.145.113-.307.113-.476v-.003l-.002-.091zm14.163.487c.683 0 1.081.637 1.081 1.163 0 .513-.413 1.163-1.08 1.163-.67 0-1.058-.564-1.058-1.163 0-.6.374-1.163 1.057-1.163zm-36.097.478-.056.91-1.258-.582 1.314-.328zM7.76 24.56h4.97v9.163a14.855 14.855 0 0 1-4.97-9.163zm9.628 0H22.2v12.816a14.84 14.84 0 0 1-4.814-.9V24.56z" fill="url(#e)"/>
        <path d="M24.644 13.986c.047-.003.102.01.176.059l1.03.699a.545.545 0 0 1 .214.406l-.012.965v.004c0 .38.192.703.44.93.146.133.314.238.493.302-.179.065-.346.17-.493.303-.248.226-.44.55-.44.93v.004l.012.968a.56.56 0 0 1-.223.409l-1.024.694c-.1.066-.16.065-.218.05a.264.264 0 0 1-.152-.113c-.077-.118-.11-.255.111-.413l.004-.003.004-.003.492-.376c.167-.119.4-.32.4-.663v-.005l-.012-.79a.598.598 0 0 0-.23-.487c-.17-.128-.414-.144-.646-.068-.166.054-.275.113-.362.146a.783.783 0 0 1-.32.053.568.568 0 0 1-.466-.206.677.677 0 0 1-.157-.4v-.06c0-.11.053-.279.157-.4a.568.568 0 0 1 .465-.205c.16 0 .234.02.321.053s.196.091.362.146c.232.076.475.06.645-.069a.606.606 0 0 0 .231-.492l.012-.785v-.004c0-.344-.24-.55-.407-.669l-.485-.37-.004-.003-.004-.003c-.221-.159-.188-.296-.111-.413a.263.263 0 0 1 .152-.114.25.25 0 0 1 .045-.007z" fill="#9D0D16"/>
        <path d="M33.589 14.648c.57.372 1.16.792 1.622 1.366.519.645.886 1.474.886 2.696 0 2.296-2.144 4.14-4.206 4.14h-4.984a.513.513 0 0 0-.375.165.5.5 0 0 0-.122.337.503.503 0 0 0 .125.333.51.51 0 0 0 .372.164h4.865c1.75 0 2.683 1.126 2.683 2.456 0 1.295-.97 2.513-2.67 2.513H26.77a.46.46 0 0 0-.33.143.439.439 0 0 0-.112.3.44.44 0 0 0 .113.296.46.46 0 0 0 .33.142h3.731c.804 0 1.487.783 1.487 1.53 0 .38-.108.73-.346.984-.238.255-.619.44-1.259.44h-2.238c-.09 0-.183.019-.27.081a.38.38 0 0 0-.152.305c.003.124.074.23.157.289.083.059.176.08.265.08h1.484c.21 0 .365.092.487.24a.88.88 0 0 1 .193.524.69.69 0 0 1-.212.52.62.62 0 0 1-.375.145.518.518 0 0 0-.048-.3.505.505 0 0 0-.418-.247h-.89c-.31 0-.653-.117-.906-.338-.253-.22-.426-.534-.426-.984 0-.415.173-.71.418-.922.246-.212.573-.323.813-.323h2.189a.535.535 0 0 0 .287-.073.388.388 0 0 0 .187-.32.39.39 0 0 0-.188-.32.532.532 0 0 0-.286-.072h-3.43c-1.319 0-2.053-.933-2.053-1.94 0-.898.769-1.963 1.935-1.963h5.103a.5.5 0 0 0 .367-.164.492.492 0 0 0 .117-.328.496.496 0 0 0-.12-.326.498.498 0 0 0-.364-.162h-5.198c-1.453 0-2.602-1.078-2.602-2.705 0-1.359 1.112-2.753 2.756-2.753h4.711a.825.825 0 0 0 .629-.284.905.905 0 0 0 .205-.581.897.897 0 0 0-.201-.584.828.828 0 0 0-.633-.285h-5.026l-.004-.282c0-.174.095-.35.246-.487.152-.139.356-.218.481-.218h2.817a.55.55 0 0 0 .323-.098.525.525 0 0 0 .204-.427c0-.202-.06-.305-.204-.427a.55.55 0 0 0-.323-.098h-2.817c-.125 0-.329-.08-.48-.217-.152-.139-.247-.317-.247-.49l.002-.173h3.438c.19 0 .364-.061.501-.166a.594.594 0 0 0 .249-.469v-.255h1.671c.434 0 .81-.162 1.08-.408z" fill="url(#f)"/>
    </g>
    <defs>
        <linearGradient id="b" x1="13.564" y1="12.46" x2="23.144" y2="38.473" gradientUnits="userSpaceOnUse">
            <stop stop-color="#fff"/>
            <stop offset="1" stop-color="#53EEEF"/>
        </linearGradient>
        <linearGradient id="c" x1="22.973" y1="8.278" x2="32.999" y2="37.016" gradientUnits="userSpaceOnUse">
            <stop stop-color="#2F7FBE"/>
            <stop offset="1" stop-color="#225D8B"/>
        </linearGradient>
        <linearGradient id="d" x1="9.958" y1="12.038" x2="23.142" y2="37.803" gradientUnits="userSpaceOnUse">
            <stop stop-color="#D50D16"/>
            <stop offset=".5" stop-color="#880D16"/>
            <stop offset="1" stop-color="#520D16"/>
        </linearGradient>
        <linearGradient id="e" x1="7.066" y1="9.317" x2="36.188" y2="34.191" gradientUnits="userSpaceOnUse">
            <stop stop-color="#F8FFBF"/>
            <stop offset=".509" stop-color="#F8E45E"/>
            <stop offset=".75" stop-color="#F8D35E"/>
            <stop offset="1" stop-color="#EE8E0A"/>
        </linearGradient>
        <linearGradient id="f" x1="28.047" y1="16.211" x2="33.954" y2="33.774" gradientUnits="userSpaceOnUse">
            <stop stop-color="#157031"/>
            <stop offset="1" stop-color="#0F5324"/>
        </linearGradient>
        <clipPath id="a">
            <path fill="#fff" d="M0 0h45v45H0z"/>
        </clipPath>
    </defs>
</svg>
