<svg width="45" height="16" fill="none" xmlns="http://www.w3.org/2000/svg">
    <path d="M8.044 0h.028a7.696 7.696 0 0 1 4.635 1.756A7.698 7.698 0 0 1 17.091.013l.131-.007.115-.005.034-.001h.493A7.697 7.697 0 0 1 22.5 1.756 7.698 7.698 0 0 1 26.883.013l.132-.007L27.13 0 27.163 0h.494a7.7 7.7 0 0 1 4.636 1.756A7.698 7.698 0 0 1 36.676.013l.131-.007.116-.005.033-.001h.494c4.26.145 7.62 3.75 7.55 8.1-.072 4.35-3.547 7.838-7.81 7.838a7.685 7.685 0 0 1-4.897-1.761 7.698 7.698 0 0 1-4.646 1.757l-.13.003h-.121a7.686 7.686 0 0 1-4.896-1.76 7.697 7.697 0 0 1-4.646 1.757l-.13.003h-.12a7.682 7.682 0 0 1-4.896-1.76 7.698 7.698 0 0 1-4.647 1.757l-.129.003H7.81C3.548 15.938.072 12.45.001 8.1-.069 3.793 3.223.218 7.423.006L7.551 0h.493zm-.016 1.666h-.435l-.09.004c-3.255.164-5.821 2.883-5.87 6.198V8.072c.056 3.406 2.75 6.145 6.07 6.2h.21a6.078 6.078 0 0 0 3.476-1.163l.097-.072.056-.043-.053-.066a8.05 8.05 0 0 1-1.687-4.57l-.005-.134-.003-.124a8.057 8.057 0 0 1 1.617-4.992l.075-.098.056-.07-.056-.043a6.07 6.07 0 0 0-3.23-1.219l-.123-.008-.105-.004zm9.793 0h-.434l-.09.004a6.068 6.068 0 0 0-3.267 1.152l-.097.071-.06.047.056.071A8.033 8.033 0 0 1 15.62 7.85v.249a8.043 8.043 0 0 1-1.627 4.736l-.078.1-.045.057.054.041a6.07 6.07 0 0 0 3.439 1.235l.121.003h.22a6.083 6.083 0 0 0 3.477-1.162l.097-.072.056-.043-.053-.066a8.037 8.037 0 0 1-1.687-4.57l-.005-.134-.004-.124a8.053 8.053 0 0 1 1.619-4.992l.075-.098.054-.07-.056-.043a6.066 6.066 0 0 0-3.23-1.219l-.122-.008-.105-.004zm9.792 0h-.433l-.09.004a6.065 6.065 0 0 0-3.267 1.152l-.098.071-.06.047.057.071a8.044 8.044 0 0 1 1.692 4.839v.25a8.038 8.038 0 0 1-1.628 4.735l-.077.1-.044.057.053.041a6.071 6.071 0 0 0 3.439 1.235l.122.003h.219a6.077 6.077 0 0 0 3.476-1.162l.097-.072.056-.043-.052-.066a8.05 8.05 0 0 1-1.688-4.57l-.005-.134-.003-.124a8.058 8.058 0 0 1 1.618-4.992l.075-.098.056-.07-.057-.043a6.07 6.07 0 0 0-3.23-1.219l-.123-.008-.105-.004zm9.794 0h-.435l-.09.004a6.066 6.066 0 0 0-3.266 1.152l-.097.071-.06.047.056.071a8.045 8.045 0 0 1 1.692 4.839v.25a8.043 8.043 0 0 1-1.627 4.735l-.077.1-.045.057.052.041a6.076 6.076 0 0 0 3.445 1.235l.121.003h.113c3.372 0 6.122-2.759 6.178-6.2.056-3.406-2.548-6.233-5.87-6.402l-.09-.003zM12.708 4.12l-.023.03a6.366 6.366 0 0 0-1.26 3.922 6.37 6.37 0 0 0 1.281 3.742 6.355 6.355 0 0 0 1.283-3.742 6.366 6.366 0 0 0-1.281-3.952zm9.792 0-.022.03a6.365 6.365 0 0 0-1.26 3.922 6.363 6.363 0 0 0 1.281 3.742 6.354 6.354 0 0 0 1.283-3.742A6.365 6.365 0 0 0 22.5 4.12zm9.793 0-.022.03a6.365 6.365 0 0 0-1.26 3.922 6.363 6.363 0 0 0 1.28 3.742 6.362 6.362 0 0 0 1.284-3.742 6.366 6.366 0 0 0-1.282-3.952z" fill="#0F001F"/>
</svg>
