<svg width="45" height="45" fill="none" xmlns="http://www.w3.org/2000/svg">
    <path fill-rule="evenodd" clip-rule="evenodd" d="M22.509 40.447h.25c5.057-.518 9.696-2.56 13.473-6.478 3.334-3.456 5.58-8.156 5.625-13.504.07-8.373-4.549-16.21-14.507-19.386l.728-.662.109.034.286.092.299.1.308.108.317.115.326.124.331.133.346.142.349.151.357.162.363.171.367.183.377.193.376.205.386.217.384.228.386.241.39.253.39.268.395.28.394.295.389.308.141.115.14.116.146.118.14.12.14.123.142.123.137.126.139.127.14.13.142.131.139.134.137.136.136.137.141.14.135.142.137.144.137.147.134.148.137.151.132.153.136.155.13.158.133.16.13.162.132.165.126.167.128.17.127.172.126.174.128.177.122.18.122.182.186.284.185.29.178.294.177.299.172.305.167.31.164.315.158.32.155.328.15.332.144.338.14.344.132.35.127.357.123.362.116.368.111.375.104.382.1.388.09.395.08.401.078.409.069.415.063.422.055.43.044.436.042.444.026.451.023.46.015.466.003.474-.003.482-.005.247-.01.243-.01.24-.008.234-.014.232-.017.229-.018.225-.019.221-.022.22-.023.216-.028.214-.026.21-.032.21-.032.206-.036.205-.037.203-.036.202-.041.2-.04.199-.046.198-.044.197-.05.195-.05.196-.05.194-.056.195-.053.195-.059.194-.06.195-.058.195-.062.196-.065.196-.067.197-.182.508-.191.5-.209.493-.218.487-.226.48-.24.472-.255.466-.262.458-.271.45-.286.444-.296.435-.302.428-.313.42-.326.41-.331.404-.342.395-.348.386-.358.378-.367.369-.373.36-.38.35-.385.342-.394.332-.4.323-.407.313-.413.304-.416.293-.426.283-.427.274-.435.263-.436.253-.444.242-.335.177-.339.17-.341.165-.34.157-.34.151-.344.145-.341.138-.34.132-.34.125-.339.12-.34.113-.341.106-.335.1-.335.095-.335.089-.33.082-.332.076-.33.07-.327.064-.327.057-.322.053-.317.046-.317.04-.315.037-.313.029-.304.023-.305.017-.123.005v-2.278z" fill="#59595B"/>
    <path fill-rule="evenodd" clip-rule="evenodd" d="m16.922.417.728.662C7.692 4.256 3.072 12.092 3.143 20.465c.045 5.348 2.291 10.048 5.624 13.504 3.778 3.918 8.417 5.96 13.473 6.478h.25v2.277l-.123-.005-.304-.017-.304-.023-.314-.029-.312-.034-.318-.04-.317-.046-.322-.053-.326-.057-.327-.065-.33-.07-.331-.076-.331-.082-.335-.088-.336-.094-.335-.1-.34-.107-.34-.113-.34-.12-.34-.125-.34-.132-.34-.138-.345-.145-.34-.151-.34-.157-.34-.164-.34-.17-.335-.178-.444-.242-.436-.253-.434-.263-.427-.274-.426-.283-.417-.294-.413-.303-.407-.313-.4-.323-.394-.332-.385-.342-.38-.35-.373-.36-.368-.37-.357-.377-.349-.386-.34-.395-.332-.404-.326-.41-.312-.42-.303-.428-.296-.436-.285-.443-.272-.45-.262-.459-.254-.465-.24-.473-.227-.48-.218-.486-.209-.493-.19-.5-.182-.508-.068-.197-.064-.196-.062-.197-.06-.195-.059-.195-.06-.194-.052-.195-.056-.194-.05-.195-.049-.196-.05-.195-.045-.198-.046-.198-.04-.198-.041-.2-.036-.203-.037-.202-.035-.205-.033-.207-.031-.21-.027-.21-.027-.214-.023-.216-.023-.22-.019-.22-.018-.226-.017-.228-.014-.232-.009-.236-.009-.239-.01-.243-.005-.247-.004-.482.004-.474.015-.466.023-.46.027-.45.041-.445.045-.436.054-.43.063-.422.07-.415.077-.408.08-.402.091-.395.1-.388.103-.381.111-.375.116-.369.123-.362.127-.356.132-.35.14-.344.145-.338.15-.333.154-.327.158-.32.164-.315.167-.31.172-.305.177-.3.178-.294.185-.29.186-.283.122-.183.122-.179.127-.177.126-.175.128-.172.127-.17.127-.166.131-.165.131-.162.132-.16.132-.158.135-.155.132-.153.137-.151.134-.148.137-.147.136-.144.136-.142.14-.14.136-.138.137-.135.14-.134.141-.131.141-.13.14-.127.136-.126.14-.124.142-.122.14-.12.144-.118.141-.116.141-.115.389-.309.394-.294.395-.28.39-.268.39-.254.386-.24.384-.23.386-.216.376-.204.377-.194.367-.182.363-.172.358-.161.35-.152.345-.142.33-.133.326-.123.318-.116.308-.107.3-.1.285-.092.108-.035z" fill="#808183"/>
    <path fill-rule="evenodd" clip-rule="evenodd" d="M22.509 42.757h.015c2.741-.112 5.96-.935 9.044-2.582 4.741-2.532 8.817-6.885 10.671-12.333.721-2.114 1.134-4.05 1.18-6.712.094-5.19-1.37-9.035-3.378-12.046a20.966 20.966 0 0 0-4.32-4.69c-2.788-2.25-5.649-3.386-7.616-4.002l.01-.01L29.203 0c.01-.004 5.64 1.292 10.15 6.085 3.29 3.497 6.008 9.051 5.61 16.656-.34 6.486-3.63 12.883-8.97 17.157A23.258 23.258 0 0 1 22.761 45h-.253v-2.243z" fill="#929496"/>
    <path fill-rule="evenodd" clip-rule="evenodd" d="m15.798 0 1.086.382.01.01c-1.966.615-4.826 1.753-7.615 4.002a20.973 20.973 0 0 0-4.32 4.69C2.95 12.094 1.487 15.94 1.58 21.13c.047 2.662.46 4.598 1.18 6.712 1.855 5.448 5.93 9.802 10.67 12.332 3.085 1.648 6.304 2.47 9.045 2.583h.015V45h-.252a23.255 23.255 0 0 1-13.23-5.102C3.67 35.624.38 29.228.04 22.74c-.399-7.605 2.32-13.16 5.61-16.656C10.159 1.292 15.787-.004 15.799 0z" fill="#BBBCBF"/>
    <path fill-rule="evenodd" clip-rule="evenodd" d="m23.392 34.74.189-.06.2-.063.214-.066.226-.07.236-.073.247-.076.257-.08.265-.084.273-.085.28-.088.286-.092.291-.093.297-.095.3-.098.302-.1.305-.1.306-.104.307-.104.306-.106.306-.107.303-.108.3-.11.298-.11.293-.11.288-.111.282-.112.276-.112.269-.112.26-.112.251-.113.242-.112.231-.113.125-.062.12-.063.117-.063.113-.063.109-.065.105-.064.102-.064.098-.065.093-.065.09-.065.085-.066.082-.066.078-.066.074-.068.069-.07.064-.068.077-.09.073-.088.07-.09.067-.092.064-.094.063-.096.06-.097.056-.1.054-.103.052-.104.048-.106.046-.109.044-.11.04-.114.039-.115.036-.117.033-.121.031-.122.03-.125.026-.129.025-.13.024-.134.021-.137.02-.141.019-.145.017-.147.015-.151.015-.156.013-.16.012-.165.011-.168.01-.173.465-8.432 2.572-4.765-15.35-1.876-15.35 1.876 2.572 4.765.464 8.432.01.173.011.168.012.165.014.16.014.155.015.152.018.148.018.144.02.14.021.137.024.134.025.132.027.128.029.125.031.122.034.12.036.119.038.114.04.113.044.111.046.109.049.106.051.104.054.102.057.1.06.099.062.095.065.094.067.092.07.09.073.089.077.09.064.068.07.069.073.068.078.066.081.066.086.066.09.065.093.065.098.064.101.065.106.064.11.065.112.063.117.064.12.062.124.063.231.112.242.112.252.113.26.112.268.112.276.112.282.112.288.11.293.112.298.11.3.109.304.108.305.107.307.106.306.104.306.103.305.101.303.1.3.098.296.095.291.093.286.092.28.088.273.086.265.083.257.08.247.076.237.073.226.07.213.066.2.063.19.06.892.272.892-.272z" fill="#A6A8AA"/>
    <path fill-rule="evenodd" clip-rule="evenodd" d="m17.602 1.096.144.132C7.983 4.356 3.453 12.072 3.523 20.316c.045 5.267 2.247 9.894 5.515 13.298 3.703 3.857 8.251 5.867 13.208 6.378h.51c4.956-.51 9.504-2.52 13.208-6.378 3.268-3.404 5.47-8.031 5.514-13.298.07-8.244-4.46-15.96-14.223-19.088l.145-.132c9.924 3.187 14.529 11.01 14.458 19.37-.046 5.348-2.292 10.047-5.625 13.504-3.778 3.917-8.417 5.96-13.473 6.478h-.519c-5.056-.519-9.695-2.56-13.473-6.478-3.333-3.457-5.579-8.156-5.624-13.505-.07-8.358 4.534-16.182 14.458-19.37z" fill="#BBBCBF"/>
    <path fill-rule="evenodd" clip-rule="evenodd" d="M4.255 34.682c2.514.632 3.52 1.237 5.152 2.857.005.006-3.38.218-5.152-2.857zm-.01-3.158c-.353-.179-2.983-1.225-3.635-5.18.663.751 1.323 1.148 2.082 2.213.471.661.981 1.61 1.554 2.967zm-2.828-9.346c-.202-.35-1.827-2.735-.698-6.54.786 1.896.847 4.02.698 6.54zm1.525-9.72c-.022-.367-.555-2.697 2.003-5.439-.185 2.226-.958 3.508-2.003 5.439zm4.392-6.525c.114-.316.286-2.196 3.562-3.828-.947 1.877-2.065 2.47-3.562 3.828z" fill="#E6E6E7"/>
    <path fill-rule="evenodd" clip-rule="evenodd" d="M11.15 3.11c-.005 0 2.89-2.108 5.25-1.714-.756.437-3.463 1.637-5.25 1.715z" fill="#434244"/>
    <path fill-rule="evenodd" clip-rule="evenodd" d="M2.055 16.288c.491-.58 1.752-1.438 2.986-5.037-2.69 2.17-2.555 3.236-2.986 5.037zm2.82-6.937c.514-.284 2.399-1.135 3.849-3.25-2.45.726-3.032 2.011-3.848 3.25z" fill="#000"/>
    <path fill-rule="evenodd" clip-rule="evenodd" d="M2.577 27.14c.24-.761.932-2.066.415-6.544-1.464 3.193-.878 4.779-.415 6.544zm3.42 6.622c.01-.758.29-2.155-1.421-5.926-.47 3.337.507 4.53 1.42 5.926zm5.661 5.273c-.243-.732-.529-2.786-3.309-5.272.575 3.35 1.988 4.204 3.31 5.272zm7.226 3.137c-.24-.38-1.478-2.814-5.01-4.148 1.593 2.653 3.235 3.63 5.01 4.148zm-3.06-.767c-.364-.206-2.974-1.74-6.168-1.068 1.903 1.483 3.971 1.37 6.169 1.067zm6.424 1.515c-.42-.095-3.604-1.008-6.549.675 2.898.93 4.382.24 6.549-.675z" fill="#E6E6E7"/>
    <path fill-rule="evenodd" clip-rule="evenodd" d="M22.247 42.92c-.42-.095-3.602-1.008-6.547.674 1.69-.009 5.495-.453 6.543-.672a.023.023 0 0 0 .004-.002zm-6.423-1.516c-.366-.206-2.976-1.74-6.168-1.068v.001c.761.214 1.94.471 3.071.701.335.068 2.266.3 3.097.366zm-11.57-6.723c2.514.633 3.52 1.238 5.15 2.857-2.782-1.001-4.659-2.275-5.15-2.857zM.612 26.346c.662.75 1.32 1.147 2.08 2.21.442.622.92 1.499 1.45 2.73-1.668-1.725-2.484-2.625-3.53-4.94zm5.384 7.414c.011-.758.289-2.154-1.42-5.922.025.626.154 1.722.498 3.092.216.854.532 1.761.922 2.83zm-3.42-6.62c.24-.762.932-2.067.415-6.541-.158.504-.401 1.74-.477 3.473-.04.902 0 1.894.063 3.067zm9.082 11.895c-.243-.732-.53-2.786-3.31-5.272.171.523.642 1.61 1.498 2.916.48.733 1.088 1.48 1.812 2.356zM.718 15.638c.761 1.836.842 3.884.711 6.298-.432-2.02-.79-4.327-.71-6.298z" fill="#000"/>
    <path fill-rule="evenodd" clip-rule="evenodd" d="M2.055 16.288c.491-.58 1.751-1.439 2.985-5.037-1.78 1.917-2.201 3.133-2.9 4.659-.026.123-.054.248-.085.378zm2.82-6.937c.514-.284 2.396-1.134 3.845-3.244-2.096 1.027-2.65 1.868-3.622 2.9l-.222.344z" fill="#E6E6E7"/>
    <path fill-rule="evenodd" clip-rule="evenodd" d="M18.884 42.171c-.24-.38-1.478-2.813-5.01-4.147l.004.006c.462.532 1.496 1.526 2.707 2.523.644.53 1.415 1.037 2.297 1.617l.002.001zM2.942 12.457v-.004c.42-1.74.748-3.059 2.001-5.433h.002c-.185 2.225-.958 3.506-2.003 5.437zm4.392-6.524c.919-1.286 1.741-2.21 3.56-3.824-.947 1.873-2.064 2.467-3.56 3.824z" fill="#000"/>
    <path fill-rule="evenodd" clip-rule="evenodd" d="m11.15 3.11.001-.001c1.563-.763 2.65-1.325 5.248-1.713-.758.437-3.463 1.636-5.25 1.714zm29.495 31.572c-2.514.632-3.52 1.237-5.152 2.857-.005.006 3.38.218 5.152-2.858zm.01-3.158c.353-.179 2.984-1.225 3.636-5.18-.663.75-1.324 1.148-2.083 2.213-.471.66-.98 1.61-1.553 2.967zm2.829-9.346c.201-.35 1.826-2.736.697-6.54-.786 1.896-.846 4.02-.697 6.54zm-1.526-9.72c.022-.368.556-2.697-2.002-5.439.184 2.226.957 3.507 2.002 5.439zm-4.392-6.525c-.113-.316-.285-2.196-3.562-3.828.948 1.877 2.066 2.47 3.562 3.828z" fill="#E6E6E7"/>
    <path fill-rule="evenodd" clip-rule="evenodd" d="M33.75 3.11c.005 0-2.89-2.108-5.25-1.714.756.437 3.463 1.637 5.25 1.715z" fill="#434244"/>
    <path fill-rule="evenodd" clip-rule="evenodd" d="M42.844 16.288c-.49-.58-1.751-1.438-2.985-5.037 2.69 2.17 2.555 3.236 2.985 5.037zm-2.82-6.937c-.514-.284-2.398-1.135-3.849-3.25 2.45.726 3.032 2.011 3.849 3.25z" fill="#000"/>
    <path fill-rule="evenodd" clip-rule="evenodd" d="M42.323 27.14c-.24-.761-.933-2.066-.415-6.544 1.463 3.193.877 4.779.415 6.544zm-3.42 6.622c-.01-.758-.29-2.155 1.42-5.926.47 3.337-.507 4.53-1.42 5.926zm-5.661 5.273c.242-.732.528-2.786 3.308-5.272-.574 3.35-1.988 4.204-3.308 5.272zm-7.226 3.137c.24-.38 1.477-2.814 5.01-4.148-1.594 2.653-3.236 3.63-5.01 4.148zm3.059-.767c.365-.206 2.975-1.74 6.168-1.068-1.903 1.483-3.97 1.37-6.168 1.067zm-6.423 1.515c.42-.095 3.604-1.008 6.549.675-2.899.93-4.383.24-6.549-.675z" fill="#E6E6E7"/>
    <path fill-rule="evenodd" clip-rule="evenodd" d="M22.652 42.92c.42-.095 3.602-1.008 6.547.674-1.689-.009-5.495-.453-6.543-.672l-.004-.002zm6.423-1.516c.366-.206 2.976-1.74 6.169-1.068l-.002.001c-.76.214-1.94.471-3.07.701-.335.068-2.266.3-3.097.366zm11.57-6.723c-2.514.633-3.52 1.238-5.15 2.857 2.782-1.001 4.659-2.275 5.15-2.857zm3.642-8.335c-.662.75-1.321 1.147-2.08 2.21-.442.622-.92 1.499-1.451 2.73 1.67-1.725 2.486-2.625 3.531-4.94zm-5.384 7.414c-.011-.758-.289-2.154 1.42-5.922-.026.626-.154 1.722-.499 3.092-.215.854-.531 1.761-.921 2.83zm3.42-6.62c-.24-.762-.932-2.067-.416-6.541.159.504.402 1.74.478 3.473.04.902 0 1.894-.063 3.067zm-9.081 11.895c.242-.732.528-2.786 3.308-5.272-.17.523-.642 1.61-1.497 2.916-.48.733-1.088 1.48-1.811 2.356zM44.18 15.638c-.761 1.836-.842 3.884-.711 6.298.432-2.02.79-4.327.71-6.298z" fill="#000"/>
    <path fill-rule="evenodd" clip-rule="evenodd" d="M42.844 16.288c-.49-.58-1.75-1.439-2.985-5.037 1.78 1.917 2.202 3.133 2.9 4.659.027.123.054.248.085.378zm-2.82-6.937c-.513-.284-2.395-1.134-3.845-3.244 2.096 1.027 2.65 1.868 3.623 2.9.073.114.146.229.222.344z" fill="#E6E6E7"/>
    <path fill-rule="evenodd" clip-rule="evenodd" d="M26.016 42.171c.24-.38 1.477-2.813 5.01-4.147l-.004.006c-.462.532-1.496 1.526-2.708 2.523-.644.53-1.415 1.037-2.296 1.617l-.002.001zm15.942-29.714v-.004c-.42-1.74-.748-3.059-2.002-5.433.184 2.225.957 3.506 2.002 5.437zm-4.392-6.524c-.919-1.286-1.742-2.21-3.56-3.824.947 1.873 2.064 2.467 3.56 3.824z" fill="#000"/>
    <path fill-rule="evenodd" clip-rule="evenodd" d="M33.75 3.11V3.11c-1.564-.763-2.652-1.325-5.25-1.713.759.437 3.464 1.636 5.25 1.714zm-11.27 8.563L7.233 13.537l2.54 4.703.464 8.445.01.173.011.168.012.164.013.16.015.154.015.151.017.147.018.144.02.14.021.136.024.132.025.13.027.128.028.123.031.121.034.12.035.116.038.114.04.111.043.11.045.107.048.105.051.103.053.1.056.099.06.096.06.094.064.093.067.09.069.09.072.087.076.088.062.068.068.067.073.067.076.065.08.066.085.064.089.065.092.064.097.064.1.064.106.064.108.063.113.064.116.063.12.062.122.062.231.112.242.112.25.112.26.112.268.112.275.112.282.112.288.11.292.111.297.11.3.109.304.108.305.107.306.106.307.105.306.102.304.102.303.1.3.097.296.095.291.094.286.09.28.089.273.085.265.084.256.08.248.076.236.073.226.07.213.066.201.063.19.06.857.261V11.673z" fill="#E6E6E7"/>
    <path fill-rule="evenodd" clip-rule="evenodd" d="m23.379 34.686.189-.059.2-.063.214-.066.226-.07.236-.073.247-.077.257-.08.265-.083.272-.085.28-.089.287-.09.29-.094.297-.095.3-.098.302-.1.305-.1.306-.103.306-.105.306-.105.306-.108.303-.108.3-.11.297-.109.293-.11.288-.111.281-.112.276-.111.268-.113.26-.112.25-.112.242-.112.23-.112.124-.062.12-.062.115-.063.113-.064.108-.063.105-.064.1-.064.097-.064.093-.064.089-.065.084-.064.08-.066.078-.065.072-.067.068-.067.062-.067.076-.089.072-.087.07-.09.066-.09.064-.093.06-.094.06-.096.056-.1.053-.1.05-.102.049-.105.045-.107.043-.11.04-.111.037-.114.036-.116.034-.12.03-.12.029-.125.027-.127.025-.13.023-.132.021-.137.02-.139.018-.144.017-.146.016-.151.014-.156.013-.159.013-.164.01-.168.01-.173.466-8.444 2.538-4.704-15.246-1.864v23.275l.858-.262zm-.899-22.459L8.063 13.989l2.205 4.086.473 8.576c.1 1.835.341 2.737 1.055 3.544.24.272.723.602 1.355.915 2.322 1.15 6.679 2.439 8.609 3.047l.72.22v-22.15z" fill="#D0D1D3"/>
    <path fill-rule="evenodd" clip-rule="evenodd" d="M23.24 34.157c1.93-.607 6.287-1.896 8.61-3.047.631-.313 1.113-.642 1.355-.915.714-.806.954-1.709 1.055-3.544l.472-8.575 2.205-4.087-14.417-1.762v22.15l.72-.22z" fill="#A6A8AA"/>
    <path fill-rule="evenodd" clip-rule="evenodd" d="m22.5 32.638-.72-.165c-4.369-.994-3.868-.758-8.29-2.179-1.646-.528-1.825-1.5-1.881-3.475l-.175-8.971-1.56-3.06h25.252l-1.56 3.06-.175 8.97c-.056 1.976-.235 2.947-1.88 3.476-4.423 1.42-3.922 1.185-8.291 2.18l-.72.164z" fill="#808183"/>
    <path fill-rule="evenodd" clip-rule="evenodd" d="m33.317 25.994-.016.822-.013.357-.017.334-.023.31-.03.274H22.54v-1.005h.404V27h-.404v-1.005h10.776zm-21.749-5.975-.04-2.097H22.46v2.097H11.568z" fill="#000"/>
    <path fill-rule="evenodd" clip-rule="evenodd" d="m33.203 28.179-.03.195-.056.246-.068.227-.084.207-.1.19-.12.175-.142.16-.166.147-.193.135-.221.123-.253.113-.287.102-.4.129-.372.119-.349.11-.324.103-.303.095-.283.087-.265.082-.248.075-.234.07-.221.065-.21.06-.201.056-.195.053-.187.05-.185.048-.182.046-.182.045-.184.045-.188.044-.193.044-.2.045-.208.047-.22.048-.231.052-.246.054-.263.057-.28.062-.299.066-.32.071-.345.077-.368.083-.396.09-.66.15V28.18h10.662zm.168-5.04-.053 2.767H22.54v-2.767h10.831zm-21.846-5.305v-.013l-1.497-2.935H22.46v2.948H11.525zm.101 5.217-.057-2.944h10.89v2.944H11.626z" fill="#D4A950"/>
    <path fill-rule="evenodd" clip-rule="evenodd" d="M22.54 21.664v-1.258h5.485v1.258H22.54zm11.72-5.382-.642 1.259h-5.512v-1.259h6.154zm-11.8 8.158v1.258h-5.486V24.44h5.485zm-9.872 5.304-.026-.018-.165-.146-.142-.16-.12-.175-.101-.19-.084-.208-.068-.226-.03-.135h5.041v1.258h-4.305z" fill="#3A529A"/>
    <path fill-rule="evenodd" clip-rule="evenodd" d="M22.54 20.317v-1.303h5.485v1.303H22.54zm5.485 2.734H22.54v-1.3h5.485v1.3zm5.549-5.423-.1.193-.02 1.105h-5.348v-1.298h5.468zm-5.468-2.742h6.865l-.666 1.308h-6.2v-1.308zm-5.647 10.9v1.213h-5.485v-1.213h5.485zm-5.485-2.647h5.485v1.212h-5.485v-1.212zm-5.142 5.258-.005-.023-.043-.267-.032-.29-.023-.31-.017-.334-.003-.086h5.184v1.31h-5.06zm5.061 2.844-.167-.047-.21-.06-.221-.065-.234-.07-.249-.075-.265-.082-.283-.087-.303-.095-.324-.102-.348-.111-.373-.12-.4-.128-.287-.102-.253-.113-.22-.123-.043-.03h4.18v1.41z" fill="#BBBCBF"/>
    <path fill-rule="evenodd" clip-rule="evenodd" d="m33.452 19.014-.079 4.037h-5.267v-4.037h5.346zM22.54 14.886h5.485v4.04H22.54v-4.04zM11.706 27l-.006-.183-.072-3.677h5.266v3.86h-5.188zm10.754 5.528-.661-.15-.396-.09-.369-.083-.344-.077-.32-.071-.3-.066-.28-.062-.262-.057-.246-.054-.232-.052-.22-.048-.208-.047-.2-.045-.193-.044-.187-.044-.184-.045-.182-.045-.183-.046-.184-.048-.188-.05-.146-.04v-4.176h5.485v5.44z" fill="#C03B35"/>
    <path fill-rule="evenodd" clip-rule="evenodd" d="m23.362 34.623.19-.06.2-.063.213-.066.226-.07.237-.073.247-.076.256-.08.265-.083.273-.086.28-.088.286-.091.29-.093.297-.095.3-.098.302-.1.304-.101.306-.103.306-.104.306-.106.305-.107.303-.108.3-.109.297-.11.292-.11.287-.11.282-.112.274-.111.268-.112.259-.112.25-.112.24-.112.23-.111.123-.061.12-.063.114-.062.111-.063.108-.063.104-.064.1-.063.095-.063.092-.064.087-.063.084-.064.079-.064.075-.065.07-.065.067-.066.06-.065.075-.086.071-.087.069-.087.065-.09.063-.09.06-.093.058-.095.055-.097.052-.099.05-.1.047-.104.045-.105.042-.108.04-.11.036-.112.035-.114.033-.118.03-.12.03-.122.026-.126.024-.128.023-.132.021-.135.02-.139.018-.143.017-.146.016-.15.014-.154.013-.159.012-.163.011-.168.01-.172.466-8.46 2.498-4.628-.664.362-2.23 4.134-.473 8.564-.01.17-.01.165-.012.159-.013.154-.014.15-.014.145-.017.14-.017.136-.02.131-.019.128-.022.124-.023.12-.024.117-.026.113-.029.11-.03.107-.03.103-.035.102-.035.099-.037.095-.04.093-.041.092-.044.089-.047.087-.048.085-.051.084-.053.082-.056.08-.058.08-.061.078-.064.078-.066.077-.05.053-.054.054-.06.055-.065.056-.07.057-.075.057-.08.058-.085.06-.089.058-.093.06-.098.06-.102.059-.106.059-.11.06-.112.059-.118.059-.224.109-.235.109-.246.11-.255.11-.263.11-.272.11-.278.11-.284.11-.29.11-.294.108-.299.108-.3.107-.303.107-.305.105-.305.104-.304.102-.303.101-.302.1-.298.097-.295.095-.291.093-.285.09-.279.089-.272.085-.265.083-.256.08-.247.076-.236.073-.226.07-.214.067-.201.062-.188.06-.752.229-.75-.23-.19-.059-.2-.062-.214-.067-.226-.07-.236-.073-.247-.077-.256-.08-.265-.082-.272-.085-.28-.089-.284-.09-.291-.093-.295-.095-.299-.098-.3-.099-.304-.1-.304-.103-.305-.104-.305-.105-.303-.107-.3-.107-.299-.108-.294-.109-.29-.11-.284-.109-.278-.11-.272-.11-.263-.11-.255-.11-.246-.11-.235-.11-.224-.108-.117-.059-.114-.06-.11-.059-.105-.06-.102-.059-.098-.06-.093-.059-.09-.059-.084-.059-.08-.058-.075-.057-.07-.057-.065-.056-.06-.055-.055-.054-.049-.053-.066-.077-.064-.078-.06-.078-.06-.08-.055-.08-.053-.082-.05-.084-.05-.085-.046-.087-.043-.09-.042-.09-.04-.094-.037-.096-.036-.098-.033-.101-.032-.104-.03-.107-.028-.11-.026-.113-.024-.116-.024-.12-.021-.125-.02-.128-.02-.131-.017-.136-.016-.14-.014-.145-.014-.15-.013-.154-.012-.16-.01-.164-.011-.17-.471-8.564-2.23-4.134-.665-.362 2.498 4.628.465 8.46.01.172.011.168.012.163.014.16.014.153.015.15.017.146.018.143.02.139.021.135.024.131.024.13.027.125.028.122.03.12.033.118.035.115.037.111.04.11.042.108.045.105.047.103.05.101.052.099.055.097.058.095.06.093.063.09.066.09.068.087.07.087.075.086.06.066.067.065.07.065.076.065.08.064.082.064.088.063.091.064.096.064.1.062.104.064.107.063.112.063.115.062.119.063.123.06.23.112.24.112.25.112.26.112.267.112.274.111.281.112.288.11.292.11.297.11.3.11.303.107.305.107.305.106.307.104.305.103.305.101.303.1.299.098.296.095.291.093.286.091.28.088.273.086.265.083.256.08.247.076.237.074.226.07.213.066.2.062.19.06.861.263.862-.264z" fill="#6D6E70"/>
</svg>
