<svg width="42" height="42" fill="none" xmlns="http://www.w3.org/2000/svg">
    <g clip-path="url(#a)" fill="#9D3CD9">
        <path d="M41.993 18.577c-.035-.34-.21-.65-.483-.857l-3.327-2.52 1.21-3.994a1.237 1.237 0 0 0-.902-1.563l-4.064-.95-.519-4.14a1.236 1.236 0 0 0-1.46-1.062l-4.1.787L26.19.706A1.237 1.237 0 0 0 24.425.33L21 2.716 17.575.33a1.237 1.237 0 0 0-1.765.376L13.65 4.278l-4.098-.786a1.237 1.237 0 0 0-1.46 1.06l-.52 4.142-4.064.949a1.237 1.237 0 0 0-.902 1.563l1.21 3.994L.49 17.72a1.236 1.236 0 0 0-.188 1.795l2.73 3.157-2.015 3.655a1.237 1.237 0 0 0 .558 1.717l3.778 1.773L5 33.975a1.236 1.236 0 0 0 1.208 1.342l4.172.083 1.369 3.943a1.237 1.237 0 0 0 1.649.734l3.846-1.621 2.854 3.045a1.237 1.237 0 0 0 1.805 0l2.854-3.045 3.845 1.621a1.238 1.238 0 0 0 1.65-.734L31.62 35.4l4.173-.083A1.236 1.236 0 0 0 37 33.975l-.354-4.158 3.778-1.773a1.236 1.236 0 0 0 .558-1.717l-2.014-3.655 2.73-3.157c.224-.258.33-.598.294-.938zM21 32.836c-6.526 0-11.835-5.31-11.835-11.836 0-6.526 5.31-11.835 11.835-11.835 6.526 0 11.835 5.31 11.835 11.835 0 6.526-5.309 11.836-11.835 11.836z"/>
        <path d="M20.999 11.638c-5.162 0-9.362 4.2-9.362 9.362s4.2 9.361 9.362 9.361 9.361-4.2 9.361-9.361c0-5.162-4.2-9.362-9.361-9.362zm4.849 7.587-5.3 5.299a1.233 1.233 0 0 1-1.748 0l-2.65-2.65a1.237 1.237 0 0 1 1.749-1.749l1.775 1.775 4.425-4.424a1.237 1.237 0 0 1 1.749 1.749z"/>
    </g>
    <defs>
        <clipPath id="a">
            <path fill="#fff" d="M0 0h42v42H0z"/>
        </clipPath>
    </defs>
</svg>
