<svg width="45" height="17" fill="none" xmlns="http://www.w3.org/2000/svg">
    <path d="M4.242 4.174c.203-.458.378-.83 1.659-.83h7.39c.408 0 .815-.2.815-.77V.546c0-.23.233-.545.844-.545h15.305c.436 0 .786.229.786.772v1.6c0 .429.203.886.843.886h12.28c.435 0 1.017.114.756.658-.263.542-4.248 8.484-4.519 9.015-.104.204-.184.475-.991.475h-7.548c-.358 0-.946 0-.946.68v1.89c0 .271-.207.68-.864.68H14.908c-.473 0-.818-.24-.818-.703V14.29c0-.362-.196-.894-.75-.894H.63c-.405 0-.785-.306-.543-.894.242-.59 4.155-8.328 4.155-8.328" fill="#C7D6EE"/>
    <path d="m1.059 11.618.353.001 3.473-6.787-.353-.001-3.473 6.787z" fill="url(#a)"/>
    <path d="M13.37 12.576H1.482c-.415 0-.56-.186-.4-.503.901-1.758 3.862-7.542 3.938-7.695.09-.18.308-.401.71-.401h7.979c.827 0 .968-.356.968-.997V1.068c0-.257.174-.428.48-.428h14.611c.393 0 .566.128.566.385v1.412c0 .556-.107 1.454 1.156 1.454h12.074c.542 0 .683.36.396.928-1.069 2.117-3.698 7.136-3.78 7.307-.103.216-.425.407-.938.407h-7.925c-.654 0-1.308.428-1.308 1.07v1.63c0 .298-.181.508-.504.508H15.327c-.44 0-.606-.244-.606-.569v-1.484c0-.513-.349-1.112-1.35-1.112z" fill="#E9CF98"/>
    <path d="m29.225 12.193 1.665 1.705s.119-.374.57-.467l-1.864-1.708s-.3.166-.371.47zm-15.816 1.215s.666.023.666.887l1.546-2.242-.428-.304-1.784 1.659zm16.43-8.493 1.756-1.681s-.238-.029-.477-.409l-1.74 1.74.461.35zm-.76-3.435L30.703.122s.179.101.253.263L29.26 1.919l-.18-.439zM14.117.614c0-.282.267-.614.702-.614l1.231 1.494s-.368 0-.426.134c-.059.133-.117.42-.117.42L14.116.613zm-.53 2.691s.525-.082.525-.634l1.22 1.41-.777.552-.969-1.328z" fill="#fff"/>
    <path d="m22.606.001-.056.643h7.03c.231 0 .36.057.448.227l.778-.68S30.61 0 30.254 0h-7.648z" fill="url(#b)"/>
    <path d="M14.818 0a.709.709 0 0 0-.518.233l.504.538s.1-.127.505-.127h7.241L22.606 0h-7.788z" fill="url(#c)"/>
    <path d="M14.116.614v1.96c0 .307-.062.382-.062.382l.556.581s.08-.2.08-.324v-1.94c0-.123.011-.302.011-.302l-.523-.636s-.062.111-.062.28z" fill="url(#d)"/>
    <path d="M30.346.91s-.015.229-.015.351l.015 1.9c0 .123.182.35.182.35l.666-.579s-.158-.052-.158-.36V.615c0-.168-.14-.28-.14-.28l-.55.577z" fill="url(#e)"/>
    <path d="m13.333 3.347-7.763.008c-.554 0-.88.24-.88.24l.456.603s.182-.221.585-.221h8.092c.282 0 .494-.125.494-.125l-.529-.624s-.26.119-.455.119z" fill="url(#f)"/>
    <path d="m.844 12.126-.827.57s-.065.235.058.421a.502.502 0 0 0 .313.214l1.077-.755s-.61-.028-.356-.47c.253-.444.24-.611.24-.611s-.296.048-.505.631z" fill="url(#g)"/>
    <path d="M3.116 6.549C2.456 7.882.24 12.164.164 12.317a3.096 3.096 0 0 0-.156.419l.854-.61 4-7.826s-1.087.915-1.746 2.249z" fill="url(#h)"/>
    <path d="m1.482 12.594-1.097.776 12.812.03c.315 0 .447.059.447.059l.563-.628s-.537-.237-.836-.237H1.482z" fill="url(#i)"/>
    <path d="M13.965 13.803s.115.227.115.408v1.623c0 .232.092.434.092.434l.549-.636v-1.944c0-.31-.174-.57-.174-.57l-.582.685z" fill="url(#j)"/>
    <path d="M30.008 13.488v1.944l.862.74s.021-.197.021-.43V14.12c0-.18.054-.295.054-.295l-.754-.74s-.183.093-.183.404z" fill="url(#k)"/>
    <path d="M29.364 15.756H22.59v.903h7.495c.255 0 .552-.166.609-.208l-.85-.792s-.056.097-.48.097z" fill="url(#l)"/>
    <path d="M14.43 16.547s.175.121.662.121l7.497-.009v-.903h-7.235c-.13 0-.218-.024-.218-.024l-.706.815z" fill="url(#m)"/>
    <path d="M16.376 1.476c-.392 0-.784.215-.784.643v2.096c0 .428-.261.599-.566.599H6.35c-.352 0-.625.144-.781.435-.129.24-2.295 4.504-2.995 5.882-.152.3-.02.481.37.481H15.07c.522 0 .61.47.61.941v1.63c0 .3.304.642.653.642h6.1V1.476h-6.057z" fill="url(#n)"/>
    <path d="m30.58 12.774.698.705s.174-.095.99-.095h7.448c.155 0 .368-.076.368-.076l-3.937-.781s-4.559.003-4.772 0a.64.64 0 0 0-.024 0c-.462 0-.772.247-.772.247z" fill="url(#o)"/>
    <path d="M30.842 3.767s.34.112.618.112h11.728c.357 0 .566.026.566.026l.947-.555s-.304-.085-.608-.085h-12.18c-.305 0-.431-.07-.431-.07l-.64.572z" fill="url(#p)"/>
    <path d="M44.1 4.205s.053.293-.048.491c-.102.199-3.646 7.046-3.806 7.36-.16.315-.523.43-.523.43l.404.794s.143-.106.228-.214c.084-.108 4.446-8.825 4.58-9.13.135-.307.017-.417.017-.417l-.853.686z" fill="url(#q)"/>
    <path d="M39.347 12.545c-.465 0-3.084.02-3.084.02l3.724.742s.233-.094.35-.286c.116-.19 0-.247-.136-.133-.136.115-.369-.075-.253-.209.117-.134.233-.553.233-.553s-.368.419-.834.419z" fill="url(#r)"/>
    <path d="M4.7 11.956c-2.44.16-3.218.613-3.218.613h11.647c1.325 0 1.173.178 1.166.186l.948-.985s-2.303 0-3.767-.027a35.543 35.543 0 0 0-.623-.005c-1.564 0-4.024.079-6.153.218zm9.595.799z" fill="url(#s)"/>
    <path d="M32.172 11.743c-1.036.027-2.668.027-2.668.027l1.087 1.005s.112-.235 1.072-.235c.96 0 7.878-.023 7.878-.023s.117-.372-1.92-.515c-1.605-.112-4.027-.261-5.197-.261-.084 0-.168 0-.252.002z" fill="url(#t)"/>
    <path d="M29.708 4.919s1.632 0 2.669.027c1.036.026 7.318-.254 9.046-.414 1.728-.16 2.28-.612 2.28-.612s-10.985.057-11.945.057c-.96 0-.825-.186-.825-.186l-1.225 1.128z" fill="url(#u)"/>
    <path d="M14.604 13.146s.117.37.117.656v1.286c0 .343.117.515.117.515l.989-.972s-.148-.343-.148-.6v-1.45c0-.335-.085-.608-.085-.608l-.99 1.172z" fill="url(#v)"/>
    <path d="M29.12 12.573c0 .335-.023 1.233-.023 1.49 0 .257-.06.568-.06.568l.99.972s.116-.172.116-.515v-1.285c0-.286.116-.658.116-.658L29.2 11.946a2.661 2.661 0 0 0-.08.627z" fill="url(#w)"/>
    <path d="m15.158 15.717 7.216.057h.029v-.95l-6.285-.022-.96.915z" fill="url(#x)"/>
    <path d="M22.431 14.825h-.029v.949l7.42-.085-1.193-.886-6.198.022z" fill="url(#y)"/>
    <path d="M15.255.638c-.204 0-.392.108-.392.108l.957.924s.094-.2.768-.2h5.844V.638h-7.177z" fill="url(#z)"/>
    <path d="M22.431.638v.831h5.845c.674 0 .813.288.813.288l.956-.923s-.233-.196-.437-.196h-7.177z" fill="url(#A)"/>
    <path d="M14.68 1.446v1.678c0 .2-.088.435-.088.435l.936 1.044s.063-.087.063-.522c0-.435.038-2.137.038-2.137L14.693.912s-.012.273-.012.534z" fill="url(#B)"/>
    <path d="M29.129 1.964V4.05c0 .435.207.553.207.553l1.145-1.132s-.15-.237-.15-.436-.01-1.412-.01-1.673c0-.261.012-.503.012-.503L29.13 1.964z" fill="url(#C)"/>
    <path d="M13.906 4h-8.03c-.233 0-.612.086-.728.2l.728.744s.203-.143.698-.143h8.35c.233 0 .466-.086.466-.086l-.93-.943S14.225 4 13.905 4z" fill="url(#D)"/>
    <path d="M38.919 11.643s.45-.166.59.359c0 0 .112.166.421-.276.31-.442 3.233-6.348 3.203-6.431-.028-.083-.618-.194-.618-.194l-3.596 6.542z" fill="url(#E)"/>
    <path d="M42.6 5.158c.14.083.281.193.084.607-.196.413-2.444 4.72-2.922 5.547-.477.828-.056 1.16-.056 1.16s.365-.167.475-.346c.111-.18 3.544-6.858 3.78-7.306.236-.449.072-.629.072-.629l-1.433.967z" fill="url(#F)"/>
    <path d="M22.431 1.476v13.349h6.01c.348 0 .653-.129.653-.514V12.32c0-.385.261-.684.566-.684h9.066c.318 0 .604-.183.77-.484.74-1.345 2.78-5.246 2.935-5.56.188-.385.072-.607-.365-.607H30.052c-.522 0-.915-.385-.915-.855V1.947c0-.3-.174-.47-.566-.47h-6.14z" fill="url(#G)"/>
    <path d="m1.384 12.197 1.163-.692s-.133-.057.076-.469c.21-.412 2.173-4.344 2.173-4.344l-.438-.093-2.974 5.598z" fill="url(#H)"/>
    <path d="M1.278 11.688c-.29.515-.232.714-.232.714l.698-.457S4.857 6.03 5.177 5.343c.32-.685-.157-.965-.157-.965s-3.45 6.796-3.742 7.31z" fill="url(#I)"/>
    <path d="M1.75 12.593c-.047.03-.472.082-.556 0-.083-.08-.222-.144-.111-.236.111-.09 1.48-.89 1.48-.89s-.166.091 1.24.091H15.05c.296 0 .573.2.61.327.037.127-.037.181-.13.164-.091-.019-.332-.091-.388-.182-.055-.091.074-.164-.74-.164s-7.03.091-8.435.218c-1.407.128-3.257.037-4.219.672zm41.545-8.649c.046-.03.472-.081.555 0 .083.082.222.145.111.236-.11.091-1.48.89-1.48.89s.166-.09-1.24-.09H29.994c-.296 0-.573-.2-.61-.327-.037-.128.037-.182.129-.164.093.019.333.091.389.182.055.09-.075.163.74.163.814 0 7.03-.09 8.436-.218 1.406-.127 3.256-.036 4.218-.672zM5.381 4.995c0-.128.072-.371.014-.442-.058-.072.117-.158.233-.087.117.072.364.129.393.186.029.057-.015.2-.175.257-.16.057-.305.186-.552.714-.248.53-1.66 3.216-1.66 3.216s.205-.429.117-.443c-.087-.015-.29.343-.29.343l1.92-3.744zm9.727-.253c-.12.012-.154-.117-.05-.134.102-.017.239-.025.359-.488.12-.464.034-1.869.017-2.121-.017-.253-.137-.556.035-.69.17-.135.291.151.737.151.445 0 1.457-.033 1.457-.033s-1.423.1-1.663.134-.446.219-.412.556c.035.336-.05 2.07-.12 2.255-.068.185-.188.354-.36.37zm9.598-3.305c-.189.009 3.614.044 3.853.044.24 0 .514.071.566.307.052.236.015 1.008.015 1.008s.118-.991.29-1.176c.171-.186.12-.455-.103-.405-.223.051-1.988.105-4.621.222zm5.078 10.32c-.12-.018-.257-.034-.291.067-.034.1.154.168-.034.268-.188.101-.328.163-.328.079s.097-.515.456-.515l9.36-.017c.136 0 .308.017.376.151.068.135.154.47.205.571.051.101-.034.101-.188-.1-.154-.202-.547-.286-.854-.27-.308.018-8.702-.234-8.702-.234zm9.778.285s-.085-.184-.137-.303c-.051-.117-.205-.167-.205-.167s.171-.202.41-.638c.24-.436 1.368-2.519 1.488-2.804 0 0-.257.773.239.134 0 0-1.607 2.989-1.71 3.19-.102.202-.085.588-.085.588zm-23.777 2.35s.02.242-.122.342c-.143.1-.204.281-.082.362.123.08.205.04.286-.08.082-.121.368-.222.552-.181 0 0-.634.08-.634-.443zm8.81.43s3.45.18 3.655.189l.347.015s-.366-.057-.258-.172l-3.743-.031zm4.09-.027s-.102.16.06.24c.165.08.328.16.43.04.102-.12-.081-.441-.061-.662 0 0 .082.341-.43.381" fill="#fff"/>
    <defs>
        <linearGradient id="a" x1="4.656" y1="4.939" x2="4.633" y2="13.833" gradientUnits="userSpaceOnUse">
            <stop stop-color="#C7D6EE"/>
            <stop offset=".185" stop-color="#91AFC8"/>
            <stop offset="1" stop-color="#002334"/>
        </linearGradient>
        <linearGradient id="b" x1="-23285.2" y1="8293.77" x2="-23279.7" y2="8288.21" gradientUnits="userSpaceOnUse">
            <stop stop-color="#E1E8F5"/>
            <stop offset=".899" stop-color="#92A5C1"/>
            <stop offset=".955" stop-color="#476886"/>
            <stop offset="1" stop-color="#E1E8F5"/>
        </linearGradient>
        <linearGradient id="c" x1="16.438" y1="2.37" x2="22.028" y2="-3.321" gradientUnits="userSpaceOnUse">
            <stop stop-color="#E1E8F5"/>
            <stop offset=".039" stop-color="#476886"/>
            <stop offset=".09" stop-color="#92A5C1"/>
            <stop offset="1" stop-color="#E1E8F5"/>
        </linearGradient>
        <linearGradient id="d" x1="13.682" y1="2.581" x2="15.504" y2=".851" gradientUnits="userSpaceOnUse">
            <stop stop-color="#E1E8F5"/>
            <stop offset=".157" stop-color="#C7D6EE"/>
            <stop offset="1" stop-color="#E1E8F5"/>
        </linearGradient>
        <linearGradient id="e" x1="31.481" y1="2.634" x2="29.552" y2=".802" gradientUnits="userSpaceOnUse">
            <stop stop-color="#E1E8F5"/>
            <stop offset=".157" stop-color="#C7D6EE"/>
            <stop offset="1" stop-color="#E1E8F5"/>
        </linearGradient>
        <linearGradient id="f" x1="7.095" y1="6.106" x2="13.364" y2="-.277" gradientUnits="userSpaceOnUse">
            <stop stop-color="#476886"/>
            <stop offset=".129" stop-color="#92A5C1"/>
            <stop offset="1" stop-color="#E1E8F5"/>
        </linearGradient>
        <linearGradient id="g" x1="1.058" y1="12.791" x2=".327" y2="11.728" gradientUnits="userSpaceOnUse">
            <stop stop-color="#002334"/>
            <stop offset=".107" stop-color="#fff"/>
            <stop offset=".185" stop-color="#91AFC8"/>
            <stop offset=".242" stop-color="#002334"/>
            <stop offset=".534" stop-color="#5E738F"/>
            <stop offset=".758" stop-color="#002334"/>
            <stop offset="1" stop-color="#002334"/>
        </linearGradient>
        <linearGradient id="h" x1="5.089" y1="7.194" x2="-.629" y2="10.157" gradientUnits="userSpaceOnUse">
            <stop stop-color="#91AFC8"/>
            <stop offset="1" stop-color="#002334"/>
        </linearGradient>
        <linearGradient id="i" x1="7.442" y1="13.927" x2="7.015" y2="11.464" gradientUnits="userSpaceOnUse">
            <stop stop-color="#A5B9CC"/>
            <stop offset="1" stop-color="#002334"/>
        </linearGradient>
        <linearGradient id="j" x1="14.11" y1="14.692" x2="14.844" y2="14.692" gradientUnits="userSpaceOnUse">
            <stop stop-color="#5E738F"/>
            <stop offset=".489" stop-color="#91AFC8"/>
            <stop offset="1" stop-color="#91AFC8"/>
        </linearGradient>
        <linearGradient id="k" x1="30.78" y1="14.628" x2="29.872" y2="14.628" gradientUnits="userSpaceOnUse">
            <stop stop-color="#5E738F"/>
            <stop offset=".32" stop-color="#91AFC8"/>
            <stop offset="1" stop-color="#91AFC8"/>
        </linearGradient>
        <linearGradient id="l" x1="25.63" y1="17.831" x2="28.049" y2="13.565" gradientUnits="userSpaceOnUse">
            <stop stop-color="#A5B9CC"/>
            <stop offset="1" stop-color="#002334"/>
        </linearGradient>
        <linearGradient id="m" x1="17.735" y1="14.819" x2="20.173" y2="19.119" gradientUnits="userSpaceOnUse">
            <stop stop-color="#002334"/>
            <stop offset=".775" stop-color="#A5B9CC"/>
            <stop offset="1" stop-color="#A5B9CC"/>
        </linearGradient>
        <linearGradient id="n" x1="10.208" y1="2.616" x2="21.095" y2="21.816" gradientUnits="userSpaceOnUse">
            <stop stop-color="#FFEFCF"/>
            <stop offset=".461" stop-color="#FFE4A6"/>
            <stop offset="1" stop-color="#BC956E"/>
        </linearGradient>
        <linearGradient id="o" x1="33.712" y1="14.813" x2="36.787" y2="11.323" gradientUnits="userSpaceOnUse">
            <stop stop-color="#5E738F"/>
            <stop offset=".607" stop-color="#91AFC8"/>
            <stop offset="1" stop-color="#C7DFF4"/>
        </linearGradient>
        <linearGradient id="p" x1="36.081" y1=".682" x2="40.136" y2="7.832" gradientUnits="userSpaceOnUse">
            <stop stop-color="#E1E8F5"/>
            <stop offset=".815" stop-color="#7F97B4"/>
            <stop offset=".904" stop-color="#476886"/>
            <stop offset="1" stop-color="#002334"/>
        </linearGradient>
        <linearGradient id="q" x1="39.755" y1="12.899" x2="46.356" y2="1.259" gradientUnits="userSpaceOnUse">
            <stop stop-color="#8CA0B5"/>
            <stop offset=".14" stop-color="#E1E8F5"/>
            <stop offset=".815" stop-color="#7F97B4"/>
            <stop offset=".904" stop-color="#476886"/>
            <stop offset="1" stop-color="#002334"/>
        </linearGradient>
        <linearGradient id="r" x1="37.962" y1="13.034" x2="40.344" y2="11.633" gradientUnits="userSpaceOnUse">
            <stop stop-color="#002334"/>
            <stop offset=".815" stop-color="#A5B9CC"/>
            <stop offset=".888" stop-color="#002334"/>
            <stop offset="1" stop-color="#002334"/>
        </linearGradient>
        <linearGradient id="s" x1="5.258" y1="9.128" x2="12.981" y2="16.991" gradientUnits="userSpaceOnUse">
            <stop stop-color="#D4BC7B"/>
            <stop offset=".332" stop-color="#7F5F39"/>
            <stop offset="1" stop-color="#D4BC7B"/>
        </linearGradient>
        <linearGradient id="t" x1="36.738" y1="9.965" x2="31.222" y2="15.582" gradientUnits="userSpaceOnUse">
            <stop stop-color="#D4BC7B"/>
            <stop offset=".332" stop-color="#7F5F39"/>
            <stop offset="1" stop-color="#D4BC7B"/>
        </linearGradient>
        <linearGradient id="u" x1="40.28" y1=".901" x2="31.363" y2="9.98" gradientUnits="userSpaceOnUse">
            <stop stop-color="#D4BC7B"/>
            <stop offset=".332" stop-color="#7F5F39"/>
            <stop offset="1" stop-color="#D4BC7B"/>
        </linearGradient>
        <linearGradient id="v" x1="14.829" y1="13.788" x2="16.015" y2="13.788" gradientUnits="userSpaceOnUse">
            <stop stop-color="#D3BD8B"/>
            <stop offset="1" stop-color="#7F5F39"/>
        </linearGradient>
        <linearGradient id="w" x1="30.051" y1="13.775" x2="28.865" y2="13.775" gradientUnits="userSpaceOnUse">
            <stop stop-color="#D3BD8B"/>
            <stop offset="1" stop-color="#7F5F39"/>
        </linearGradient>
        <linearGradient id="x" x1="18.127" y1="14.154" x2="20.272" y2="17.937" gradientUnits="userSpaceOnUse">
            <stop stop-color="#7F5F39"/>
            <stop offset=".646" stop-color="#D3BD8B"/>
            <stop offset=".888" stop-color="#FFE4A6"/>
            <stop offset="1" stop-color="#FFE4A6"/>
        </linearGradient>
        <linearGradient id="y" x1="26.752" y1="14.158" x2="24.409" y2="18.291" gradientUnits="userSpaceOnUse">
            <stop stop-color="#7F5F39"/>
            <stop offset=".455" stop-color="#D3BD8B"/>
            <stop offset=".888" stop-color="#FFE4A6"/>
            <stop offset="1" stop-color="#FFE4A6"/>
        </linearGradient>
        <linearGradient id="z" x1="16.932" y1="2.778" x2="21.931" y2="-2.311" gradientUnits="userSpaceOnUse">
            <stop stop-color="#D4BC7B"/>
            <stop offset=".039" stop-color="#7F5F39"/>
            <stop offset=".107" stop-color="#D1AC75"/>
            <stop offset="1" stop-color="#D4BC7B"/>
        </linearGradient>
        <linearGradient id="A" x1="27.983" y1="2.847" x2="22.897" y2="-2.332" gradientUnits="userSpaceOnUse">
            <stop stop-color="#D4BC7B"/>
            <stop offset=".039" stop-color="#7F5F39"/>
            <stop offset=".107" stop-color="#D1AC75"/>
            <stop offset="1" stop-color="#D4BC7B"/>
        </linearGradient>
        <linearGradient id="B" x1="14.395" y1="3.401" x2="16.256" y2="1.634" gradientUnits="userSpaceOnUse">
            <stop stop-color="#FFE292"/>
            <stop offset=".157" stop-color="#D1AC75"/>
            <stop offset="1" stop-color="#FFE292"/>
        </linearGradient>
        <linearGradient id="C" x1="30.558" y1="3.386" x2="28.618" y2="1.544" gradientUnits="userSpaceOnUse">
            <stop stop-color="#FFE292"/>
            <stop offset=".157" stop-color="#D1AC75"/>
            <stop offset="1" stop-color="#FFE292"/>
        </linearGradient>
        <linearGradient id="D" x1="7.939" y1="6.764" x2="13.74" y2=".858" gradientUnits="userSpaceOnUse">
            <stop stop-color="#7F5F39"/>
            <stop offset="1" stop-color="#BD9B6A"/>
        </linearGradient>
        <linearGradient id="E" x1="40.094" y1="7.57" x2="42.562" y2="10.083" gradientUnits="userSpaceOnUse">
            <stop stop-color="#7F5F39"/>
            <stop offset="1" stop-color="#D4BC7B"/>
        </linearGradient>
        <linearGradient id="F" x1="39.478" y1="12.262" x2="44.874" y2="1.68" gradientUnits="userSpaceOnUse">
            <stop stop-color="#A78A5E"/>
            <stop offset=".764" stop-color="#7F5F39"/>
            <stop offset=".916" stop-color="#674C2B"/>
            <stop offset="1" stop-color="#674C2B"/>
        </linearGradient>
        <linearGradient id="G" x1="35.951" y1="14.084" x2="20.504" y2="-4.659" gradientUnits="userSpaceOnUse">
            <stop stop-color="#FFEFCF"/>
            <stop offset=".461" stop-color="#FFE4A6"/>
            <stop offset="1" stop-color="#BC956E"/>
        </linearGradient>
        <linearGradient id="H" x1=".926" y1="11.548" x2="6.282" y2="6.094" gradientUnits="userSpaceOnUse">
            <stop stop-color="#7F5F39"/>
            <stop offset="1" stop-color="#E9CF98"/>
        </linearGradient>
        <linearGradient id="I" x1=".197" y1="11.292" x2="7.404" y2="3.955" gradientUnits="userSpaceOnUse">
            <stop stop-color="#7F5F39"/>
            <stop offset="1" stop-color="#E4CB90"/>
        </linearGradient>
    </defs>
</svg>
