<svg width="44" height="46" fill="none" xmlns="http://www.w3.org/2000/svg">
    <path fill-rule="evenodd" clip-rule="evenodd" d="M3.719 1.068C5.609.648 14.27 0 21.905 0 29.648 0 38.39.648 40.28 1.068c.92.204 3.719.826 3.719 4.075 0 4.18-.109 25.18-2.26 28.124-3.714 5.083-18.761 11.624-19.4 11.9a.855.855 0 0 1-.67.005c-.663-.277-16.29-6.832-19.447-11.961C.166 29.869 0 5.388 0 5.143c0-3.249 2.8-3.87 3.719-4.075z" fill="#000"/>
    <path fill-rule="evenodd" clip-rule="evenodd" d="M3.682 32.312c2.634 4.28 16.017 10.151 18.312 11.135 2.248-.998 15.207-6.874 18.361-11.192 1.407-1.923 1.93-17.65 1.93-27.112 0-1.366-.644-2.017-2.376-2.402-1.624-.36-10.14-1.027-18.005-1.027-7.751 0-16.19.666-17.814 1.027-1.732.385-2.376 1.036-2.376 2.402 0 4.879.514 24.806 1.968 27.17z" fill="#fff"/>
    <path fill-rule="evenodd" clip-rule="evenodd" d="M21.305 11.929c-.238-.81-2.007-1.976-2.27-1.727-.002-.3-1.288-1.477-1.753-1.267.106-.361-1.658-1.465-2.082-1.153-.09-.45-2.645-.787-3.151-.357-.292-.33-2.558.218-2.604.797-.426-.375-2.738 2.069-2.74 3.302-.001.476 2.173-1.463 3.543-1.042 2.266.695 5.152 3.108 7.657 6.732.689.998 2.476 1.358 2.857-.261 0 0 .781-4.214.543-5.024z" fill="#000"/>
    <path fill-rule="evenodd" clip-rule="evenodd" d="M21.5 34.452c.355-.6.242-1.323-.058-1.609-.42-.4-1.63-.073-1.728-.439-.234-.872.38-1.178.274-2.38-.037-.42-.833-3.469-1.035-3.738-.17-.227-1.188-.583-1.457-.687-.175-.202-.293-.432-.305-.837 1.333-.405 1.69.833 1.88.785.191-.048-.097-1.355-.264-1.498-.166-.142-1.727-.489-1.902-.764-.185-.29-.905-3.071 0-3.119-.073.017.046-.184-.024-.168-1.87.438-3.133-8.51-7.738-8.475-4.572.036-4.333 6.658-4.057 6.905.512.459 1.27.29 1.295.714.238 4.048 3.857 8.381 4.953 8 .654-.228.095-2.285-.215-2.333.286-.119 0-2.238-.333-2.286.262-.19.024-2.142-.31-2.166.162-.148.144-1.485.486-2.15.264-.512 1.398-.786 1.466.46-.69-.334-.738 1.904-.451 2.285.285.381 2.119 1.238 2.69 1.714-.048.953.857 4.62 1.524 5.667.666 1.048 1.333 1.667 1.714 2.62.381.952.137 2.575 1 3.309.382.324 2.43.469 2.595.19z" fill="#000"/>
    <path fill-rule="evenodd" clip-rule="evenodd" d="M5.786 19.453c-.214-.365-1.093-.51-1.41-.334-.372.208-.648 3.12-.267 3.215-.333.17.089 2.378.51 2.38-.334.144.357 2.31.762 2.239-.238.333.88 2.095 1.19 2 .096 1.81 5.552 2.673 5.428 1.142-.06-.736-.875.347-4.547-5.38-1.62-2.526-1.346-4.716-1.666-5.262zm16.876-7.51c.38-.833 1.945-1.952 2.208-1.703.001-.3 1.287-1.477 1.753-1.267-.106-.362 1.657-1.465 2.081-1.153.091-.45 2.646-.788 3.152-.357.292-.331 2.558.218 2.603.796.427-.374 2.738 2.07 2.741 3.303 0 .475-2.173-1.463-3.543-1.043-2.266.696-5.152 3.109-7.657 6.733-.69.997-2.438 1.357-2.82-.262 0 0-.9-4.214-.518-5.047z" fill="#000"/>
    <path fill-rule="evenodd" clip-rule="evenodd" d="M22.476 34.49c-.355-.646-.29-1.346.01-1.632.42-.4 1.606-.049 1.704-.415.235-.873-.38-1.178-.274-2.38.037-.42.833-3.47 1.036-3.739.17-.227 1.188-.582 1.457-.686.174-.202.292-.432.305-.838-1.334-.405-1.69.834-1.881.786-.19-.048.098-1.355.264-1.498.167-.143 1.703-.513 1.902-.764.214-.269.905-3.071 0-3.119.073.016-.046-.184.024-.168 1.87.438 3.134-8.51 7.738-8.475 4.573.036 4.334 6.658 4.057 6.905-.512.459-1.27.289-1.295.714-.238 4.048-3.857 8.381-4.952 8-.655-.228-.096-2.286.214-2.333-.286-.12 0-2.238.333-2.286-.262-.19-.024-2.143.31-2.167-.162-.148-.145-1.485-.487-2.15-.263-.511-1.397-.786-1.466.46.69-.334.738 1.905.452 2.286-.285.38-2.119 1.238-2.69 1.713.048.953-.857 4.62-1.524 5.667-.666 1.048-1.333 1.667-1.714 2.62-.384.96-.562 2.86-1.024 3.285-.43.397-2.344.499-2.5.215zm-.524 1.839c1.429.024 2.682-.995 2.428-1.267-.49-.526-1.345.243-2.368-.21-1 .429-1.833-.314-2.488.172-.372.276 1 1.281 2.428 1.305z" fill="#000"/>
    <path fill-rule="evenodd" clip-rule="evenodd" d="M38.12 19.49c.213-.365 1.092-.414 1.409-.238.372.207.647 3.024.266 3.119.334.17-.089 2.378-.51 2.38.334.143-.356 2.31-.76 2.239.237.333-.882 2.095-1.191 2-.096 1.81-5.552 2.673-5.429 1.142.06-.737.876.347 4.548-5.38 1.62-2.526 1.345-4.716 1.666-5.262z" fill="#000"/>
</svg>
