<svg width="140" height="86" fill="none" xmlns="http://www.w3.org/2000/svg">
    <g clip-path="url(#a)">
        <path d="M13.605 11.983h90.876l13.548 60.834h-90.83L13.604 11.983z" fill="#0F0020"/>
        <path d="M104.481 11.983H13.548L0 72.817h90.887l13.594-60.834z" fill="#4F4F4F"/>
        <path opacity=".5" d="M26.95 30.315a1.042 1.042 0 0 1-.926.815h-11.2a.607.607 0 0 1-.594-.53.611.611 0 0 1 .03-.285l2.732-12.21a1.053 1.053 0 0 1 .937-.814h11.2a.62.62 0 0 1 .565.814l-2.744 12.21zM44.123 30.315a1.042 1.042 0 0 1-.926.815H31.986a.596.596 0 0 1-.59-.53.6.6 0 0 1 .036-.285l2.733-12.21a1.053 1.053 0 0 1 .925-.814h11.2a.61.61 0 0 1 .565.814l-2.732 12.21zM61.284 30.315a1.042 1.042 0 0 1-.926.815h-11.2a.607.607 0 0 1-.594-.53.614.614 0 0 1 .03-.285l2.743-12.21a1.03 1.03 0 0 1 .926-.814h11.2a.61.61 0 0 1 .564.814l-2.743 12.21z" fill="#C4C4C4"/>
        <path d="M78.445 30.315a1.019 1.019 0 0 1-.926.815h-11.2a.607.607 0 0 1-.594-.53.611.611 0 0 1 .03-.285l2.743-12.21a1.053 1.053 0 0 1 .926-.814h11.2a.61.61 0 0 1 .565.814l-2.744 12.21z" fill="#fff"/>
        <path d="M95.618 30.315a1.042 1.042 0 0 1-.926.815H83.548a.607.607 0 0 1-.594-.53.611.611 0 0 1 .03-.285l2.676-12.21a1.053 1.053 0 0 1 .937-.814h11.2a.609.609 0 0 1 .553.814l-2.732 12.21z" fill="#BF76D0"/>
        <path d="M22.886 48.522a1.042 1.042 0 0 1-.938.815h-11.2a.597.597 0 0 1-.587-.815l2.733-12.255a1.053 1.053 0 0 1 .925-.815h11.2a.609.609 0 0 1 .565.815l-2.698 12.255zM40.047 48.522a1.042 1.042 0 0 1-.926.815h-11.2a.609.609 0 0 1-.565-.815l2.733-12.255a1.053 1.053 0 0 1 .937-.815h11.2a.608.608 0 0 1 .564.815l-2.743 12.255zM57.22 48.522a1.041 1.041 0 0 1-.938.815h-11.2a.609.609 0 0 1-.564-.815l2.743-12.255a1.052 1.052 0 0 1 .926-.815h11.2a.609.609 0 0 1 .565.815l-2.733 12.255zM74.38 48.522a1.042 1.042 0 0 1-.925.815h-11.2a.609.609 0 0 1-.565-.815l2.744-12.255a1.03 1.03 0 0 1 .926-.815h11.2a.609.609 0 0 1 .553.815l-2.732 12.255zM91.553 48.522a1.042 1.042 0 0 1-.937.815h-11.2a.609.609 0 0 1-.564-.815l2.743-12.255a1.053 1.053 0 0 1 .926-.815H93.71a.609.609 0 0 1 .564.815l-2.72 12.255zM18.81 66.763a1.053 1.053 0 0 1-.926.815h-11.2a.609.609 0 0 1-.565-.815l2.744-12.289a1.053 1.053 0 0 1 .926-.814h11.2a.609.609 0 0 1 .564.814l-2.743 12.29zM35.982 66.763a1.053 1.053 0 0 1-.926.815h-11.21a.608.608 0 0 1-.554-.815l2.732-12.266a1.053 1.053 0 0 1 .926-.815h11.2a.61.61 0 0 1 .564.815l-2.732 12.266zM53.143 66.763a1.053 1.053 0 0 1-.925.815h-11.2a.609.609 0 0 1-.565-.815l2.744-12.266a1.052 1.052 0 0 1 .925-.815h11.2a.61.61 0 0 1 .565.815l-2.744 12.266zM70.316 66.763a1.053 1.053 0 0 1-.926.815h-11.2a.609.609 0 0 1-.61-.815l2.733-12.266a1.053 1.053 0 0 1 .926-.815H72.45a.608.608 0 0 1 .553.815l-2.687 12.266z" fill="#fff"/>
        <path opacity=".5" d="M87.477 66.763a1.03 1.03 0 0 1-.925.815h-11.2a.608.608 0 0 1-.565-.815l2.744-12.266a1.053 1.053 0 0 1 .925-.815h11.2a.61.61 0 0 1 .565.815l-2.744 12.266z" fill="#C4C4C4"/>
        <path d="M104.481 11.983V6.088a1.577 1.577 0 0 0-.412-1.121 1.567 1.567 0 0 0-1.079-.508H15.084a1.566 1.566 0 0 0-1.436 1.017 1.578 1.578 0 0 0-.1.612v5.895h90.933z" fill="#470051"/>
        <path d="M18.539 9.482a1.207 1.207 0 0 0 1.129-1.267 1.133 1.133 0 0 0-1.13-1.131 1.128 1.128 0 0 0-1.128 1.131 1.213 1.213 0 0 0 1.129 1.267z" fill="#BF76D0"/>
        <path d="M18.539 9.482a1.207 1.207 0 0 0 1.129-1.267 1.133 1.133 0 0 0-1.13-1.131 1.128 1.128 0 0 0-1.128 1.131 1.213 1.213 0 0 0 1.129 1.267z" fill="#0F0020"/>
        <path d="M18.539.815c.801 0 1.66 1.46 1.66 3.643h.745c0-2.5-1.062-4.458-2.405-4.458-1.344 0-2.405 1.958-2.405 4.458a5.666 5.666 0 0 0 1.264 3.938 1.513 1.513 0 0 0 2.259 0 .913.913 0 0 0 0-.18c0-.272-.084-.536-.238-.759a1.21 1.21 0 0 1-.914.645 1.207 1.207 0 0 1-.915-.645 5.498 5.498 0 0 1-.654-2.999c0-2.195.801-3.643 1.603-3.643z" fill="#C4C4C4"/>
        <path d="M18.539 6.959c.372 0 .666.566.666 1.256 0 .69-.294 1.267-.666 1.267a1.207 1.207 0 0 0 1.129-1.267 1.213 1.213 0 0 0-1.13-1.256z" fill="#0F0020"/>
        <path d="M20.198 4.458h.745a6.938 6.938 0 0 0-.62-3.043h-.881a5.44 5.44 0 0 1 .756 3.043z" fill="#C4C4C4"/>
        <path d="M25.132 9.482a1.207 1.207 0 0 0 1.13-1.267 1.133 1.133 0 0 0-1.13-1.131 1.128 1.128 0 0 0-1.129 1.131 1.213 1.213 0 0 0 1.13 1.267z" fill="#BF76D0"/>
        <path d="M25.132 9.482a1.207 1.207 0 0 0 1.13-1.267 1.133 1.133 0 0 0-1.13-1.131 1.128 1.128 0 0 0-1.129 1.131 1.213 1.213 0 0 0 1.13 1.267z" fill="#0F0020"/>
        <path d="M25.132.815c.836 0 1.66 1.448 1.66 3.643h.745c0-2.5-1.061-4.458-2.405-4.458-1.343 0-2.405 1.958-2.405 4.458a5.666 5.666 0 0 0 1.265 3.938 1.513 1.513 0 0 0 2.258 0 .928.928 0 0 0 0-.18 1.338 1.338 0 0 0-.226-.759 1.244 1.244 0 0 1-.926.645 1.207 1.207 0 0 1-.914-.645 5.498 5.498 0 0 1-.745-2.999c.034-2.195.892-3.643 1.693-3.643z" fill="#C4C4C4"/>
        <path d="M25.132 6.959c.373 0 .666.566.666 1.256 0 .69-.293 1.267-.666 1.267a1.207 1.207 0 0 0 1.13-1.267 1.213 1.213 0 0 0-1.13-1.256z" fill="#0F0020"/>
        <path d="M26.792 4.458h.745a6.94 6.94 0 0 0-.632-3.043h-.88a5.44 5.44 0 0 1 .767 3.043z" fill="#C4C4C4"/>
        <path d="M32.889 8.215a1.161 1.161 0 0 0-1.158-1.16 1.156 1.156 0 0 0-1.157 1.16 1.161 1.161 0 0 0 1.157 1.16 1.156 1.156 0 0 0 1.158-1.16z" fill="#BF76D0"/>
        <path d="M32.889 8.215a1.161 1.161 0 0 0-1.158-1.16 1.156 1.156 0 0 0-1.157 1.16 1.161 1.161 0 0 0 1.157 1.16 1.156 1.156 0 0 0 1.158-1.16z" fill="#0F0020"/>
        <path d="M31.726.815c.802 0 1.66 1.46 1.66 3.643h.745c0-2.5-1.05-4.458-2.405-4.458-1.355 0-2.371 1.958-2.371 4.458a5.667 5.667 0 0 0 1.264 3.938 1.525 1.525 0 0 0 1.747.37c.194-.086.369-.212.511-.37v-.18c0-.272-.083-.536-.237-.759a1.232 1.232 0 0 1-.925.645 1.23 1.23 0 0 1-.915-.645 5.51 5.51 0 0 1-.734-2.999c0-2.195.858-3.643 1.66-3.643z" fill="#C4C4C4"/>
        <path d="M31.726 6.959c.372 0 .677.566.677 1.256 0 .69-.305 1.267-.677 1.267a1.218 1.218 0 0 0 1.129-1.267 1.213 1.213 0 0 0-1.13-1.256z" fill="#0F0020"/>
        <path d="M33.385 4.458h.746a6.94 6.94 0 0 0-.633-3.043h-.88a5.44 5.44 0 0 1 .767 3.043z" fill="#C4C4C4"/>
        <path d="M38.387 9.482a1.207 1.207 0 0 0 1.13-1.267 1.133 1.133 0 0 0-1.13-1.131 1.128 1.128 0 0 0-1.129 1.131 1.224 1.224 0 0 0 1.13 1.267z" fill="#BF76D0"/>
        <path d="M38.387 9.482a1.207 1.207 0 0 0 1.13-1.267 1.133 1.133 0 0 0-1.13-1.131 1.128 1.128 0 0 0-1.129 1.131 1.224 1.224 0 0 0 1.13 1.267z" fill="#0F0020"/>
        <path d="M38.387.815c.79 0 1.648 1.46 1.648 3.643h.746C40.724 1.958 39.674 0 38.387 0c-1.287 0-2.405 1.958-2.405 4.458a5.666 5.666 0 0 0 1.253 3.938 1.525 1.525 0 0 0 1.747.37c.194-.086.369-.212.511-.37v-.18c0-.272-.083-.536-.237-.759a1.21 1.21 0 0 1-.914.645 1.24 1.24 0 0 1-.926-.645 5.51 5.51 0 0 1-.734-2.999c-.011-2.195.847-3.643 1.705-3.643z" fill="#C4C4C4"/>
        <path d="M38.387 6.959c.361 0 .666.566.666 1.256 0 .69-.361 1.267-.666 1.267a1.207 1.207 0 0 0 1.13-1.267 1.212 1.212 0 0 0-1.13-1.256z" fill="#0F0020"/>
        <path d="M39.979 4.458h.745a6.938 6.938 0 0 0-.632-3.043h-.88a5.44 5.44 0 0 1 .767 3.043z" fill="#C4C4C4"/>
        <path d="M44.924 9.482a1.207 1.207 0 0 0 1.13-1.267 1.161 1.161 0 0 0-1.158-1.16 1.156 1.156 0 0 0-1.157 1.16 1.226 1.226 0 0 0 .718 1.16c.147.067.306.103.467.107z" fill="#BF76D0"/>
        <path d="M44.924 9.482a1.207 1.207 0 0 0 1.13-1.267 1.161 1.161 0 0 0-1.158-1.16 1.156 1.156 0 0 0-1.157 1.16 1.226 1.226 0 0 0 .718 1.16c.147.067.306.103.467.107z" fill="#0F0020"/>
        <path d="M44.924.815c.802 0 1.66 1.46 1.66 3.643h.745C47.33 1.958 46.29 0 44.924 0c-1.366 0-2.404 1.958-2.404 4.458a5.666 5.666 0 0 0 1.264 3.938c.293.317.699.504 1.129.52.43-.017.836-.204 1.129-.52a.913.913 0 0 0 0-.18c0-.272-.083-.536-.237-.759a1.21 1.21 0 0 1-.915.645 1.24 1.24 0 0 1-.858-.645 5.668 5.668 0 0 1-.733-2.999c-.034-2.195.824-3.643 1.625-3.643z" fill="#C4C4C4"/>
        <path d="M44.924 6.959c.373 0 .666.566.666 1.256 0 .69-.293 1.267-.666 1.267a1.207 1.207 0 0 0 1.13-1.267 1.212 1.212 0 0 0-1.13-1.256z" fill="#0F0020"/>
        <path d="M46.584 4.458h.745a6.803 6.803 0 0 0-.643-3.043h-.881a5.35 5.35 0 0 1 .779 3.043z" fill="#C4C4C4"/>
        <path d="M51.518 9.482a1.207 1.207 0 0 0 1.129-1.267 1.133 1.133 0 0 0-1.13-1.131 1.128 1.128 0 0 0-1.128 1.131 1.213 1.213 0 0 0 1.129 1.267z" fill="#BF76D0"/>
        <path d="M51.518 9.482a1.207 1.207 0 0 0 1.129-1.267 1.133 1.133 0 0 0-1.13-1.131 1.128 1.128 0 0 0-1.128 1.131 1.213 1.213 0 0 0 1.129 1.267z" fill="#0F0020"/>
        <path d="M51.518.815c.801 0 1.66 1.448 1.66 3.643h.745c0-2.5-1.062-4.458-2.405-4.458-1.344 0-2.405 1.958-2.405 4.458a5.666 5.666 0 0 0 1.264 3.938 1.513 1.513 0 0 0 2.259 0 .928.928 0 0 0 0-.18 1.258 1.258 0 0 0-.238-.759.974.974 0 0 1-.914.646.97.97 0 0 1-.915-.646 5.498 5.498 0 0 1-.745-2.999c.034-2.195.892-3.643 1.694-3.643z" fill="#C4C4C4"/>
        <path d="M51.518 6.959c.372 0 .666.566.666 1.256 0 .69-.248 1.267-.666 1.267a1.207 1.207 0 0 0 1.129-1.267 1.213 1.213 0 0 0-1.13-1.256z" fill="#0F0020"/>
        <path d="M53.177 4.458h.746a6.94 6.94 0 0 0-.633-3.043h-.88c.549.916.816 1.975.767 3.043z" fill="#C4C4C4"/>
        <path d="M58.111 9.482a1.207 1.207 0 0 0 1.13-1.267 1.133 1.133 0 0 0-1.13-1.131 1.128 1.128 0 0 0-1.129 1.131 1.212 1.212 0 0 0 1.13 1.267z" fill="#BF76D0"/>
        <path d="M58.111 9.482a1.207 1.207 0 0 0 1.13-1.267 1.133 1.133 0 0 0-1.13-1.131 1.128 1.128 0 0 0-1.129 1.131 1.212 1.212 0 0 0 1.13 1.267z" fill="#0F0020"/>
        <path d="M58.111.815c.802 0 1.66 1.46 1.66 3.643h.745c0-2.5-1.05-4.458-2.405-4.458-1.354 0-2.404 1.958-2.404 4.458a5.666 5.666 0 0 0 1.264 3.938 1.513 1.513 0 0 0 2.258 0 .898.898 0 0 0 0-.18c0-.272-.083-.536-.237-.759a1.244 1.244 0 0 1-.926.645 1.206 1.206 0 0 1-.914-.645 5.498 5.498 0 0 1-.7-2.999c0-2.195.858-3.643 1.66-3.643z" fill="#C4C4C4"/>
        <path d="M58.111 6.959c.373 0 .678.566.678 1.256 0 .69-.305 1.267-.678 1.267a1.207 1.207 0 0 0 1.13-1.267 1.213 1.213 0 0 0-1.13-1.256z" fill="#0F0020"/>
        <path d="M59.77 4.458h.746a6.94 6.94 0 0 0-.677-3.043h-.881c.565.911.848 1.97.813 3.043z" fill="#C4C4C4"/>
        <path d="M64.705 9.482a1.219 1.219 0 0 0 1.129-1.267 1.161 1.161 0 0 0-1.157-1.16 1.156 1.156 0 0 0-1.158 1.16 1.213 1.213 0 0 0 1.186 1.267z" fill="#BF76D0"/>
        <path d="M64.705 9.482a1.219 1.219 0 0 0 1.129-1.267 1.161 1.161 0 0 0-1.157-1.16 1.156 1.156 0 0 0-1.158 1.16 1.213 1.213 0 0 0 1.186 1.267z" fill="#0F0020"/>
        <path d="M64.705.815c.779 0 1.66 1.448 1.66 3.643h.745c0-2.5-1.05-4.458-2.405-4.458-1.355 0-2.394 1.958-2.394 4.458a5.666 5.666 0 0 0 1.254 3.938 1.525 1.525 0 0 0 1.746.37c.194-.086.369-.212.512-.37v-.18c0-.272-.083-.536-.237-.759a1.21 1.21 0 0 1-.915.645 1.24 1.24 0 0 1-.926-.645 5.51 5.51 0 0 1-.734-2.999c.034-2.195.903-3.643 1.694-3.643z" fill="#C4C4C4"/>
        <path d="M64.716 6.959c.361 0 .666.566.666 1.256 0 .69-.305 1.267-.666 1.267a1.207 1.207 0 0 0 1.13-1.267 1.212 1.212 0 0 0-1.13-1.256z" fill="#0F0020"/>
        <path d="M66.364 4.458h.746a6.938 6.938 0 0 0-.633-3.043h-.88a5.44 5.44 0 0 1 .767 3.043z" fill="#C4C4C4"/>
        <path d="M71.298 9.482a1.219 1.219 0 0 0 1.13-1.267 1.161 1.161 0 0 0-1.158-1.16 1.156 1.156 0 0 0-1.157 1.16 1.213 1.213 0 0 0 1.185 1.267z" fill="#BF76D0"/>
        <path d="M71.298 9.482a1.219 1.219 0 0 0 1.13-1.267 1.161 1.161 0 0 0-1.158-1.16 1.156 1.156 0 0 0-1.157 1.16 1.213 1.213 0 0 0 1.185 1.267z" fill="#0F0020"/>
        <path d="M71.298.815c.802 0 1.66 1.46 1.66 3.643h.745c0-2.5-1.05-4.458-2.405-4.458-1.354 0-2.427 1.958-2.427 4.458a5.667 5.667 0 0 0 1.264 3.938 1.525 1.525 0 0 0 1.747.37c.194-.086.369-.212.512-.37v-.18c.03-.261-.017-.525-.136-.759a1.233 1.233 0 0 1-.914.645 1.24 1.24 0 0 1-.926-.645 5.668 5.668 0 0 1-.734-2.999c-.034-2.195.813-3.643 1.614-3.643z" fill="#C4C4C4"/>
        <path d="M71.298 6.959c.373 0 .678.566.678 1.256 0 .69-.305 1.267-.678 1.267a1.218 1.218 0 0 0 1.13-1.267 1.213 1.213 0 0 0-1.13-1.256z" fill="#0F0020"/>
        <path d="M72.958 4.458h.757a6.938 6.938 0 0 0-.644-3.043h-.88c.549.916.816 1.975.767 3.043z" fill="#C4C4C4"/>
        <path d="M77.903 9.482a1.207 1.207 0 0 0 1.13-1.267 1.133 1.133 0 0 0-1.13-1.131 1.128 1.128 0 0 0-1.129 1.131 1.223 1.223 0 0 0 1.13 1.267z" fill="#BF76D0"/>
        <path d="M77.903 9.482a1.207 1.207 0 0 0 1.13-1.267 1.133 1.133 0 0 0-1.13-1.131 1.128 1.128 0 0 0-1.129 1.131 1.223 1.223 0 0 0 1.13 1.267z" fill="#0F0020"/>
        <path d="M77.903.815c.802 0 1.66 1.46 1.66 3.643h.745c0-2.5-1.061-4.458-2.405-4.458-1.343 0-2.405 1.958-2.405 4.458a5.666 5.666 0 0 0 1.276 3.938 1.513 1.513 0 0 0 2.258 0 .928.928 0 0 0 0-.18c0-.272-.083-.536-.237-.759a1.21 1.21 0 0 1-.914.645 1.24 1.24 0 0 1-.926-.645 5.668 5.668 0 0 1-.734-2.999c.023-2.195.88-3.643 1.682-3.643z" fill="#C4C4C4"/>
        <path d="M77.903 6.959c.373 0 .666.566.666 1.256 0 .69-.293 1.267-.666 1.267a1.207 1.207 0 0 0 1.13-1.267 1.212 1.212 0 0 0-1.13-1.256z" fill="#0F0020"/>
        <path d="M79.563 4.458h.745a6.94 6.94 0 0 0-.632-3.043h-.88a5.44 5.44 0 0 1 .767 3.043z" fill="#C4C4C4"/>
        <path d="M84.497 9.482a1.207 1.207 0 0 0 1.129-1.267 1.133 1.133 0 0 0-1.13-1.131 1.128 1.128 0 0 0-1.128 1.131 1.212 1.212 0 0 0 1.129 1.267z" fill="#BF76D0"/>
        <path d="M84.497 9.482a1.207 1.207 0 0 0 1.129-1.267 1.133 1.133 0 0 0-1.13-1.131 1.128 1.128 0 0 0-1.128 1.131 1.212 1.212 0 0 0 1.129 1.267z" fill="#0F0020"/>
        <path d="M84.497.815c.801 0 1.66 1.46 1.66 3.643h.779c0-2.5-1.13-4.458-2.44-4.458-1.309 0-2.404 1.958-2.404 4.458a5.666 5.666 0 0 0 1.264 3.938 1.513 1.513 0 0 0 2.259 0 .928.928 0 0 0 0-.18 1.338 1.338 0 0 0-.226-.759 1.244 1.244 0 0 1-.926.645 1.207 1.207 0 0 1-.915-.645 5.498 5.498 0 0 1-.745-2.999c.034-2.195.892-3.643 1.694-3.643z" fill="#C4C4C4"/>
        <path d="M84.497 6.959c.372 0 .666.566.666 1.256 0 .69-.294 1.267-.666 1.267a1.207 1.207 0 0 0 1.129-1.267 1.212 1.212 0 0 0-1.13-1.256z" fill="#0F0020"/>
        <path d="M86.156 4.458h.78a6.937 6.937 0 0 0-.633-3.043h-.88c.537.92.792 1.979.733 3.043z" fill="#C4C4C4"/>
        <path d="M91.09 9.482a1.218 1.218 0 0 0 1.13-1.267 1.133 1.133 0 0 0-1.13-1.131 1.128 1.128 0 0 0-1.129 1.131 1.212 1.212 0 0 0 1.13 1.267z" fill="#BF76D0"/>
        <path d="M91.09 9.482a1.218 1.218 0 0 0 1.13-1.267 1.133 1.133 0 0 0-1.13-1.131 1.128 1.128 0 0 0-1.129 1.131 1.212 1.212 0 0 0 1.13 1.267z" fill="#0F0020"/>
        <path d="M91.09.815c.802 0 1.66 1.46 1.66 3.643h.745c0-2.5-1.05-4.458-2.405-4.458-1.355 0-2.404 1.958-2.404 4.458a5.666 5.666 0 0 0 1.264 3.938c.293.316.699.503 1.129.52.429-.023.832-.209 1.13-.52v-.18c-.001-.272-.084-.536-.238-.759a1.244 1.244 0 0 1-.926.645 1.206 1.206 0 0 1-.914-.645 5.498 5.498 0 0 1-.746-2.999c.046-2.195.938-3.643 1.705-3.643z" fill="#C4C4C4"/>
        <path d="M91.09 6.959c.373 0 .678.566.678 1.256 0 .69-.305 1.267-.678 1.267a1.218 1.218 0 0 0 1.13-1.267 1.213 1.213 0 0 0-1.13-1.256z" fill="#0F0020"/>
        <path d="M92.75 4.458h.745a6.94 6.94 0 0 0-.632-3.043h-.88a5.44 5.44 0 0 1 .767 3.043z" fill="#C4C4C4"/>
        <path d="M97.684 9.482a1.218 1.218 0 0 0 1.129-1.267 1.133 1.133 0 0 0-1.13-1.131 1.128 1.128 0 0 0-1.128 1.131 1.213 1.213 0 0 0 1.129 1.267z" fill="#BF76D0"/>
        <path d="M97.684 9.482a1.218 1.218 0 0 0 1.129-1.267 1.133 1.133 0 0 0-1.13-1.131 1.128 1.128 0 0 0-1.128 1.131 1.213 1.213 0 0 0 1.129 1.267z" fill="#0F0020"/>
        <path d="M97.684.815c.801 0 1.67 1.448 1.67 3.643h.746c0-2.5-1.05-4.458-2.405-4.458-1.355 0-2.405 1.958-2.405 4.458a5.667 5.667 0 0 0 1.265 3.938 1.525 1.525 0 0 0 1.746.37c.195-.086.369-.212.512-.37v-.18c0-.272-.083-.536-.237-.759a1.244 1.244 0 0 1-.926.645 1.206 1.206 0 0 1-.915-.645 5.498 5.498 0 0 1-.745-2.999c.034-2.195.892-3.643 1.694-3.643z" fill="#C4C4C4"/>
        <path d="M97.684 6.959c.372 0 .677.566.677 1.256 0 .69-.305 1.267-.677 1.267a1.219 1.219 0 0 0 1.129-1.267 1.213 1.213 0 0 0-1.13-1.256z" fill="#0F0020"/>
        <path d="M99.355 4.458h.745a6.941 6.941 0 0 0-.632-3.043h-.88c.549.916.816 1.975.767 3.043z" fill="#C4C4C4"/>
        <path d="M109.674 29.659s-3.477 1.437-4.584 1.686c-.79.18-.959-.917-1.129-1.584-.169-.668 1.716-2.456 3.67-3.395 1.546-.78 2.235 3.055 2.043 3.293z" fill="#FFAC95"/>
        <path d="M121.461 26.48c-2.517 1.81-12.058 6.393-12.058 6.393a5.523 5.523 0 0 1-2.021-2.094c-1.614-2.523-1.422-3.802-1.422-3.802s5.566-4.311 9.585-6.846c3.173-2.014 6.774-1.392 8.073 1.21 1.038 2.128-.745 4.12-2.157 5.138z" fill="#C4C4C4"/>
        <path d="M109.855 84.868s4.618-1.131 4.945-1.256c.327-.124.96-.317 1.039.872.079 1.188.113 1.55.113 1.55S110.645 86 110.035 86c-.609 0-1.027-.532-.18-1.132z" fill="#2A3388"/>
        <path d="M113.648 41.314s.271 15.028.452 18.038 6.153 3.632 7.802-.26c1.648-3.893 3.827-9.302 3.838-13.263.012-3.96-.971-6.982-3.917-9.324-2.947-2.343-8.254.758-8.175 4.81z" fill="#2B478B"/>
        <path d="M114.134 58.537c-.102 3.7.124 3.7.101 8.226-.022 4.527-.203 17.28-.203 17.28.172.2.415.326.678.35.587 0 .688-.328.688-.328a25.003 25.003 0 0 1 1.129-5.194c.802-2.025 4.517-14.88 5.239-17.46.723-2.58.248-4.685-2.822-5.183-3.071-.498-4.754.702-4.81 2.309z" fill="#2B478B"/>
        <path d="M127.355 84.472a2.226 2.226 0 0 1 0-.305c.147-.804.644-.634.971-.532l.542.147.553-.147c.328-.102.824-.272.982.532v.305c.068 1.132.113 1.517.113 1.517h-3.387s.158-.363.226-1.517z" fill="#2A3388"/>
        <path d="M121.439 42.265s3.387 16.306 4.098 19.18c.712 2.874 6.56 2.569 7.486-1.471.926-4.04 3.071-12.13.519-20.572-1.389-4.538-12.848-1.03-12.103 2.863z" fill="#2B478B"/>
        <path d="M125.018 59.012c.339 4.526 3.387 25.234 3.387 25.234s.09.193.655.113c.564-.079.632-.407.632-.407a22.261 22.261 0 0 1 .519-4.956c.554-2.06 2.089-11.61 2.462-14.19.372-2.58.429-7.921-2.62-8.114-3.048-.192-5.08 1.788-5.035 2.32zM119.576 18.4c-4.833.713-4.641 4.945-4.991 8.453-.79 8.124-1.23 18.93-1.23 18.93s2.642 1.257 10.376.748c10.037-.668 10.872-3.497 10.872-3.497s-2.382-13.33-4.516-19.825a7.771 7.771 0 0 0-2.835-3.697 7.744 7.744 0 0 0-4.436-1.407 21.325 21.325 0 0 0-3.24.295z" fill="#2B478B"/>
        <path d="M117.487 13.5c-1.389-1.415-1.513-5.726.745-6.371 2.789-.792 2.744 1.991 4.324 2.161 3.388.396 4.121 2.648 3.388 5.217a3.961 3.961 0 0 1-3.568 2.546c-.711.102-.339-1.618-1.976-2.66a4.856 4.856 0 0 0-2.913-.893z" fill="#2C3A64"/>
        <path d="M117.747 19.01c-.147 1.415-.892 4.527 2.506 4.131a4.761 4.761 0 0 0 3.136-1.662 4.785 4.785 0 0 0 1.121-3.373c-.587-.996-2.134-.306-3.15-.159s-3.478-.124-3.613 1.064z" fill="#2A3388"/>
        <path d="M123.46 18.105h-.599a20.343 20.343 0 0 0-3.217.453 8.306 8.306 0 0 0-1.017.294c0 .906-.767 3.486 1.807 3.225 2.574-.26 3.15-3.112 3.026-3.972z" fill="#FFAC95"/>
        <path d="M123.064 18.287a26.99 26.99 0 0 0-1.298-5.398c0-.08-3.274 0-3.906-1.641a16.095 16.095 0 0 0-.429 3.768c.067 1.652.44 2.592 2.167 2.026-.101.78 0 1.72-.067 2.399a1.422 1.422 0 0 0 .252 1.285 1.43 1.43 0 0 0 1.193.537c.655 0 2.348-.385 2.088-2.977z" fill="#FFAC95"/>
        <path d="M123.381 13.715c.192.418-.17.973-.802 1.245-.632.271-1.298.158-1.49-.26-.192-.42.169-.974.801-1.245.633-.272 1.299-.159 1.491.26zM136.963 29.783s2.19 2.987 2.676 3.983c.338.724-.723 1.132-1.366 1.347-.644.215-2.857-1.132-4.246-2.739-1.061-1.256 2.586-2.704 2.936-2.59z" fill="#FFAC95"/>
        <path d="M127.389 19.61c2.969 2.093 11.29 11.384 11.29 11.384a5.363 5.363 0 0 1-1.682 2.365c-2.258 2.06-3.534 2.139-3.534 2.139s-2.45-1.777-5.216-4.21c-1.344-1.132-1.897-2.433-2.529-6.224-.396-2.32.248-6.461 1.671-5.454z" fill="#C4C4C4"/>
        <path d="M124.295 46.87a.536.536 0 0 1-.098.485.538.538 0 0 1-.455.194h-14.147a.948.948 0 0 1-.88-.68l-2.45-9.776a.519.519 0 0 1 .553-.668h14.147a.933.933 0 0 1 .88.668l2.45 9.777z" fill="#470051"/>
        <path d="m124.295 46.87-2.439-9.777a.96.96 0 0 0-.891-.668h-.678a.934.934 0 0 1 .881.668l2.45 9.777a.536.536 0 0 1-.302.638.53.53 0 0 1-.251.04h.677a.528.528 0 0 0 .564-.423.536.536 0 0 0-.011-.255z" fill="url(#b)"/>
        <path d="M124.273 39.797c-.441-.192-1.829-.678-1.987-.339-.373.803.575.668 1.208 1.596.395.588 2.258 0 2.258 0a3.969 3.969 0 0 0-1.479-1.257z" fill="#FFAC95"/>
        <path d="M137.606 33.2c-3.59 1.132-10.545 6.994-12.295 7.3-1.129.203-1.659-.816-3.567.237-.926.509-.588 3.395.462 3.519 2.405.419 3.388-.622 3.794-2.263.7-.713 9.281-4.085 11.606-5.206 1.05-.509 2.563-1.369 2.383-2.16-.294-1.257-1.039-1.811-2.383-1.427zM100.969 16.102c.283-.271 1.129-1.018 1.355-.814.497.566-.463 1.878-1.061 2.421a.453.453 0 0 1-.734 0 2.066 2.066 0 0 1 .44-1.607z" fill="#FFAC95"/>
        <path d="M103.419 30.553c-2.111-3.033-3.262-10.501-3.85-12.448-1.783-1.29-.35-2.263-1.953-2.602-1.038-.25-.96-1.437.745-1.132 1.05.159 4.144.272 2.868 3.395-.181.973 3.387 7.717 4.516 9.992.508 1.03 1.129 2.614.497 3.134-1.084.792-2.044.792-2.823-.34z" fill="#FFAC95"/>
    </g>
    <defs>
        <linearGradient id="b" x1="120.558" y1="35.803" x2="125.955" y2="54.207" gradientUnits="userSpaceOnUse">
            <stop stop-color="#fff"/>
            <stop offset=".99" stop-color="#ABABAB"/>
        </linearGradient>
        <clipPath id="a">
            <path fill="#fff" d="M0 0h140v86H0z"/>
        </clipPath>
    </defs>
</svg>
