<svg width="45" height="28" fill="none" xmlns="http://www.w3.org/2000/svg">
    <path d="m0 0 .897 27.682h4.358l-.095-11.48h3.655v-3.577H5.16l.013-9.008h4.772L9.919 0H0zm11.642 0 .552 27.682h4.5L16.787 0h-5.144zm21.1 0v3.492h3.555l-.102 24.19h4.354l.925-24.194H45L44.973 0H32.742zm-9.169 12.812.05-9.403h2.513c1.139 2.094 1.87 4.864 2.445 9.403h-5.008zm-4.015 14.87h4.166l.047-11.447h4.992c.392 2.02.489 8.256.512 11.446h4.042C33.699 13.55 32.514 5.561 29.24 0H19.177l.38 27.681z" fill="#A70230"/>
</svg>
