<svg width="48" height="48" fill="none" xmlns="http://www.w3.org/2000/svg">
    <path d="M24 15c-13.26 0-24 4.022-24 8.998 0 4.975 10.74 8.998 24 8.998 13.261 0 24-4.023 24-8.998C48 19.022 37.261 15 24 15z" fill="#2D4185"/>
    <path d="M33.775 25.917a.06.06 0 0 1-.005-.024v.004c.008.084.03.242.046.36.027-.053.054-.109.082-.169.021-.045.01-.059-.008-.066-.053-.02-.108-.062-.115-.105z" fill="url(#a)"/>
    <path d="M34.703 24.644c.007.09.074.102.128.022l.05-.079-.048-.062a4.607 4.607 0 0 0-.429-.449c.173.17.28.378.3.568z" fill="url(#b)"/>
    <path d="M24.123 32.207c-12.77 0-23.12-3.716-23.12-8.3 0-4.584 10.35-8.3 23.12-8.3 12.768 0 23.118 3.716 23.118 8.3 0 4.584-10.35 8.3-23.118 8.3zm0-15.88c-12.32 0-22.307 3.393-22.307 7.58 0 4.188 9.987 7.58 22.307 7.58 12.32 0 22.306-3.392 22.306-7.58 0-4.187-9.986-7.58-22.306-7.58z" fill="#fff"/>
    <path d="M38.518 21.192c.032-.058-.002-.1-.072-.1h-1.239c-.091 0-.139.012-.182.1-.142.28-1.872 2.955-2.194 3.474-.055.08-.12.069-.128-.021-.033-.31-.291-.663-.698-.833a1.724 1.724 0 0 0-.929-.11c-.569.078-1.076.388-1.522.737-.672.527-1.251 1.21-2 1.715-.408.274-.967.514-1.342.156-.338-.324-.3-1.043.218-1.6.055-.058.12-.01.11.043-.049.252.011.502.196.678.226.209.55.232.827.093.327-.167.519-.49.575-.856a.967.967 0 0 0-.868-1.11c-.43-.03-.844.125-1.246.467a2.41 2.41 0 0 0-.491.557c-.043.063-.108.07-.106-.024.02-.727-.271-1.136-.854-1.15-.452-.01-.936.242-1.312.552-.413.342-.774.796-1.161 1.22-.048.054-.09.05-.104-.05-.012-.482-.13-.95-.345-1.28a.283.283 0 0 0-.373-.094c-.062.035-.28.138-.438.27-.078.066-.109.162-.074.286a3.48 3.48 0 0 1-.12 2.23c-.26.632-.766 1.203-1.36 1.396-.39.128-.797.065-1.049-.292-.345-.494-.206-1.352.31-2.065.454-.628 1.111-1.026 1.767-1.283.078-.03.093-.082.072-.15-.036-.111-.093-.262-.116-.331-.06-.165-.229-.192-.434-.17-.477.058-.907.226-1.332.46-1.111.615-1.669 1.804-1.913 2.44-.118.305-.219.496-.349.665-.175.227-.395.434-.797.798a.147.147 0 0 0-.033.168c.04.088.25.393.309.42.066.033.142-.013.172-.036.282-.197.618-.51.783-.72.058-.073.118-.042.148.068a1.761 1.761 0 0 0 1.114 1.22c1.02.356 2.077-.157 2.876-1.051.507-.568.69-.933.884-1.181.33-.422.98-1.364 1.754-1.97.284-.222.62-.392.79-.28.135.09.179.302-.039.71-.79 1.487-1.95 3.234-2.164 3.658-.039.073-.005.13.07.13h1.197c.063-.003.09-.032.122-.078.606-.978 1.176-1.91 1.787-2.871.034-.057.066-.013.067.012.013.223.066.528.194.729.231.37.559.53.922.533.289.003.435-.042.746-.162.254-.097.457-.225.613-.34.092-.065.108.044.105.06-.14.778.033 1.698.782 2.079.895.455 1.879-.185 2.445-.762.055-.056.115-.05.12.07.012.22.109.482.286.665.474.49 1.431.297 2.392-.47.617-.49 1.262-1.185 1.845-1.92.021-.027.038-.073-.004-.12-.089-.095-.218-.205-.305-.29-.04-.035-.1-.025-.133.002-.598.586-1.136 1.254-1.913 1.807-.262.189-.68.34-.868.08-.073-.102-.064-.243.008-.428.227-.583 3.815-6.218 4.001-6.55zm-4.743 4.725c.007.043.062.085.115.105.019.007.03.02.008.066-.153.338-.293.532-.484.825a3.07 3.07 0 0 1-.614.685c-.362.31-.864.646-1.28.42-.184-.1-.264-.366-.26-.582.01-.606.27-1.23.753-1.84.589-.748 1.24-1.136 1.667-.924.442.218.3.745.103 1.16a.112.112 0 0 0-.008.085z" fill="#fff"/>
    <path d="M12.49 29.125c-1.338.01-2.517-.843-2.652-2.32a3.044 3.044 0 0 1 .598-2.147c.398-.536 1.072-.98 1.642-1.089.186-.035.435-.013.538.114.162.194.116.407-.046.492-.435.23-.959.622-1.218 1.158-.21.437-.253.964.068 1.466.538.837 2.036.86 3.428-.475.345-.326.654-.64.967-1.011.614-.724.818-.987 1.633-2.154.01-.013.012-.031.008-.04-.007-.015-.018-.019-.042-.02-.54.01-1.06.2-1.48.538-.133.1-.324.086-.407-.045-.093-.149-.027-.343.127-.452.741-.532 1.552-.629 2.38-.773-.001 0 .057.003.105-.062.34-.45.596-.855.958-1.31.365-.462.837-.885 1.197-1.204.503-.446.825-.596 1.153-.78.086-.046-.012-.102-.038-.102-1.83-.354-3.73-.813-5.548-.12-1.258.485-1.81 1.514-1.544 2.202.188.488.81.567 1.393.273a3.17 3.17 0 0 0 1.248-1.146c.178-.281.552-.078.35.411-.532 1.289-1.547 2.311-2.785 2.354-1.053.036-1.732-.763-1.73-1.749.004-1.944 2.103-3.225 4.308-3.416 2.656-.226 5.171.503 7.808.833 2.02.252 3.958.258 5.988-.224.24-.053.41.105.393.355-.02.361-.29.71-.96 1.086-.76.43-1.556.56-2.387.567-2.01.018-3.882-.79-5.819-1.224.003.087.025.191-.047.246-1.072.817-2.042 1.646-2.692 2.81-.022.027-.01.053.028.05.564-.031 1.071-.046 1.598-.09.092-.007.095-.031.087-.1-.047-.402.067-.86.41-1.174.35-.324.788-.361 1.079-.128.33.266.301.744.12 1.102a1.296 1.296 0 0 1-.78.653s-.06.014-.052.07c.012.093.41.32.444.38.032.058.016.147-.045.216a.246.246 0 0 1-.192.094c-.069 0-.11-.025-.197-.074a1.88 1.88 0 0 1-.55-.457c-.05-.065-.076-.066-.203-.06-.57.035-1.459.123-2.06.2-.146.02-.168.048-.198.1-.96 1.632-1.984 3.392-3.11 4.57-1.206 1.265-2.21 1.597-3.274 1.606zm9.146-7.253c.015.083.046.1.083.093.183-.038.383-.193.501-.373.108-.163.159-.398.052-.492-.096-.085-.252-.061-.367.044a.853.853 0 0 0-.27.728" fill="#fff"/>
    <defs>
        <linearGradient id="a" x1="33.84" y1="30.331" x2="33.84" y2="16.827" gradientUnits="userSpaceOnUse">
            <stop stop-color="#00053E"/>
            <stop offset=".175" stop-color="#00073F"/>
            <stop offset=".33" stop-color="#001046"/>
            <stop offset=".477" stop-color="#001950"/>
            <stop offset=".62" stop-color="#00245D"/>
            <stop offset=".758" stop-color="#002F6D"/>
            <stop offset=".809" stop-color="#003475"/>
            <stop offset=".923" stop-color="#005693"/>
            <stop offset="1" stop-color="#006CA9"/>
        </linearGradient>
        <linearGradient id="b" x1="34.643" y1="30.328" x2="34.643" y2="16.832" gradientUnits="userSpaceOnUse">
            <stop stop-color="#00053E"/>
            <stop offset=".175" stop-color="#00073F"/>
            <stop offset=".33" stop-color="#001046"/>
            <stop offset=".477" stop-color="#001950"/>
            <stop offset=".62" stop-color="#00245D"/>
            <stop offset=".758" stop-color="#002F6D"/>
            <stop offset=".809" stop-color="#003475"/>
            <stop offset=".923" stop-color="#005693"/>
            <stop offset="1" stop-color="#006CA9"/>
        </linearGradient>
    </defs>
</svg>
