<svg width="124" height="121" fill="none" xmlns="http://www.w3.org/2000/svg">
    <g clip-path="url(#a)">
        <path d="M64.08 108.24c11.14-2.49 19.07-18.76 15-25.74-2.76-4.71-9.22-2.13-13.39-7.35-5.33-6.66 2.07-14.79.08-28.27C64 35.41 56 22.91 49.2 23.33c-7.1.44-14.7 15.17-11.62 26 2 7 7.47 8.73 7.16 14.72-.36 6.94-7.91 8.23-9.65 14.6-3.09 11.43 14.26 32.9 28.99 29.59z" fill="#CF98DC"/>
        <path d="M57.62 111.29h.18a.392.392 0 0 0 .328-.311.4.4 0 0 0 .002-.159c-6-29.44-1.76-60.73-1.72-61a.4.4 0 0 0-.35-.45.41.41 0 0 0-.46.34c-.05.29-4.34 31.69 1.71 61.29a.44.44 0 0 0 .31.29z" fill="#fff"/>
        <path d="M44.13 55a.19.19 0 0 0 .194-.04.18.18 0 0 0 .036-.21c-2.73-6.18-5.22-15.06-1.55-22.24a13.91 13.91 0 0 1 5.59-6 .179.179 0 0 0 .09-.25.201.201 0 0 0-.27-.09 14.12 14.12 0 0 0-5.77 6.13C40.39 36.41 39 43.6 44 54.93a.2.2 0 0 0 .13.07z" fill="url(#b)"/>
        <path d="M89.51 88.81c11.62-3.1 19.24-20.56 14.62-27.74-3.12-4.85-9.8-1.85-14.43-7.17-5.91-6.79 1.52-15.66-1.18-29.77C86.23 12.11 77.17-.7 70.05 0 62.6.8 55.26 16.62 59 27.86c2.41 7.32 8.25 8.88 8.2 15.2-.07 7.32-8 9-9.52 15.79-2.8 12.2 16.46 34.06 31.83 29.96z" fill="#BF76D0"/>
        <path d="M82.84 92.29a.43.43 0 0 0 .52-.51C75.7 61 78.8 27.9 78.83 27.57a.432.432 0 0 0-.86-.08c0 .33-3.15 33.6 4.54 64.48a.43.43 0 0 0 .33.32z" fill="#fff"/>
        <path d="M66.18 33.6a.16.16 0 0 1-.15-.09 38.171 38.171 0 0 1-4.23-14.29 19.38 19.38 0 0 1 1.6-9.37 15.09 15.09 0 0 1 5.78-6.68.18.18 0 0 1 .23.06.16.16 0 0 1-.07.22A14.69 14.69 0 0 0 63.69 10c-1.95 4.27-3.07 11.78 2.64 23.37a.148.148 0 0 1 .011.12.15.15 0 0 1-.08.09l-.08.02z" fill="url(#c)"/>
        <path d="M91 86.54a.16.16 0 0 1-.12 0 .17.17 0 0 1 0-.23c4.78-4.41 8.15-8.49 10-12.15 1.51-3 2-5.67 1.56-8-.87-4.74-5.44-6.54-5.44-6.56a.14.14 0 0 1-.09-.2.15.15 0 0 1 .21-.09s4.77 1.88 5.74 6.72c1.04 5.45-2.86 12.34-11.71 20.47a.15.15 0 0 1-.15.04z" fill="#EFEFEF"/>
        <path d="m41.17 82.45-3.35 2.62a1.27 1.27 0 0 0 .72 2.28L93.73 87l-14.94-8.7H53a19.19 19.19 0 0 0-11.83 4.15z" fill="#fff"/>
        <path d="m123.37 105.86-.15-1.32a15.616 15.616 0 0 0-6.43-11l-.28-.2a30.56 30.56 0 0 0-14.41-5.44l-8.37-.9-55.19.32a1.28 1.28 0 0 1-.73-2.28l3.36-2.62A19.18 19.18 0 0 1 53 78.34h25.79l-.2-.09a12.16 12.16 0 0 0-4.89-1H49.4c-1.48 0-2.952.233-4.36.69L26.77 85a5 5 0 0 0-2.33 1.6l-3.77 4.61a5.42 5.42 0 0 0-1.22 3.45v7.51c0 2 6.68 8.79 6.68 8.79.723.387 1.53.589 2.35.59h82.1l8.72-.59a4.541 4.541 0 0 0 3.937-3.298 4.567 4.567 0 0 0 .133-1.802z" fill="#0F0020"/>
        <path d="M123.08 109.27h-.26a.998.998 0 0 1-.92-1v-4.87a.918.918 0 0 1 .895-.945.918.918 0 0 1 .945.895l.26 4.87a1.003 1.003 0 0 1-.92 1.05z" fill="#2A3388"/>
        <path d="M119.28 101.84H122a15.415 15.415 0 0 0-5.8-8l-.28-.2-.86-.58c.55 2 1.24 4.87 1.7 6.76a2.603 2.603 0 0 0 2.52 2.02zM27.77 90.59V85a4.93 4.93 0 0 0-2.33 1.6l-3.77 4.61a5.42 5.42 0 0 0-1.18 2.83l5.15-.86a2.61 2.61 0 0 0 2.13-2.59z" fill="#fff"/>
        <path d="m84.66 86.79-1.94-2a5.82 5.82 0 0 0-2.94-1.63L76 82.37a1.84 1.84 0 0 0-2.18 1.68v.26a1.9 1.9 0 0 0 1.84 2.13l4.94-.06a1.7 1.7 0 0 1 1.59 1.09l.1.22a.74.74 0 0 0 .7.49h1.22a.82.82 0 0 0 .45-1.39z" fill="#0F0020"/>
        <path d="M64.78 90.39h8.46a1 1 0 0 1 .89 1.34 3.78 3.78 0 0 1-3.5 2.67c-2 .15-4.46-1-6.33-2.14a1 1 0 0 1 .48-1.87z" fill="#fff"/>
        <path d="M39.86 120.5a10.895 10.895 0 0 0 9.876-6.912 10.902 10.902 0 0 0-8.117-14.694A10.9 10.9 0 0 0 28.69 109.6a11.006 11.006 0 0 0 3.318 7.774 10.998 10.998 0 0 0 7.853 3.126z" fill="#4F4F4F"/>
        <path d="M39.86 118.45a8.85 8.85 0 1 0-9.07-8.85 9 9 0 0 0 9.07 8.85z" fill="#C4C4C4"/>
        <path d="M105.75 120.5a10.9 10.9 0 1 0-11.18-10.9 11.004 11.004 0 0 0 6.938 10.124c1.349.536 2.791.8 4.242.776z" fill="#4F4F4F"/>
        <path d="M105.75 118.45a8.854 8.854 0 0 0 8.011-5.62 8.854 8.854 0 0 0-2.064-9.565 8.844 8.844 0 0 0-9.615-1.817 8.852 8.852 0 0 0-5.412 8.152 8.997 8.997 0 0 0 9.08 8.85z" fill="#C4C4C4"/>
        <path d="M5.93 75.61A8.43 8.43 0 0 1 5.55 71 13.89 13.89 0 0 1 0 68.85a11.85 11.85 0 0 0 3.15 8.8A23.06 23.06 0 0 0 8.37 82L9 83.35 11 81a10.84 10.84 0 0 1-5.07-5.39z" fill="url(#d)"/>
        <path d="M33.75 63.64c-1.8.321-3.655.155-5.37-.48-.041.337-.101.67-.18 1a20.124 20.124 0 0 1-1.48 4.31A13.41 13.41 0 0 0 34.55 67a7.05 7.05 0 0 0-.8-3.36z" fill="url(#e)"/>
        <path d="M28.38 63.16A23.84 23.84 0 0 1 22 59.09c-3.55-2.72-6.24-1.31-6.24-1.31l3.86 7.13a13.18 13.18 0 0 0 7.09 3.58 19.486 19.486 0 0 0 1.47-4.3c.09-.338.157-.683.2-1.03z" fill="#C4C4C4"/>
        <path d="m41.34 60.21-1.78 1a15.881 15.881 0 0 1-5.81 2.41 7.05 7.05 0 0 1 .8 3.4 16.71 16.71 0 0 0 3.68-2.48c4.04-2.54 3.11-4.33 3.11-4.33z" fill="url(#f)"/>
        <path d="m21 109.93-.4 2c-.69 3.49.7 6.68 3.11 7.14l2.87.54c2.41.45 4.92-2 5.61-5.5l.41-2c0-.13 0-.27.07-.4L41.91 51l-6.24-1.18-14.59 59.71-.08.4zm2.93.39c.52-2.63 2.24-4.51 3.84-4.21 1.6.3 2.48 2.67 2 5.3s-2.24 4.51-3.84 4.21c-1.6-.3-2.52-2.68-2.01-5.3h.01z" fill="url(#g)"/>
        <path d="m36.59 28.6-2.33 11.8a2.68 2.68 0 0 0 .66 2.34l3 3.29a2.88 2.88 0 0 0 3.39.64l4-2a2.76 2.76 0 0 0 1.5-1.94L49.13 31a2.19 2.19 0 0 1 3.87-.95 15.561 15.561 0 0 1 3 12.71c-1.68 8.48-9.61 13-18 11.46-8.39-1.54-14-8.68-12.28-17.16a15.799 15.799 0 0 1 7.66-10.69 2.15 2.15 0 0 1 3.21 2.23z" fill="url(#h)"/>
        <path d="M37.73 28.82 35.4 40.61a2.73 2.73 0 0 0 .66 2.39l3 3.29a2.86 2.86 0 0 0 3.38.63l4-2a2.782 2.782 0 0 0 1.5-1.92l2.33-11.8a2.19 2.19 0 0 1 3.84-.91 15.559 15.559 0 0 1 3 12.71c-1.68 8.48-9.61 13-18 11.46-8.39-1.54-14-8.68-12.31-17.16a15.87 15.87 0 0 1 7.66-10.7 2.16 2.16 0 0 1 3.27 2.22z" fill="#4F4F4F"/>
        <path d="m21.9 110.1-.4 2c-.69 3.48.7 6.68 3.11 7.13l2.87.54c2.41.45 4.92-2 5.61-5.49l.4-2c0-.13 0-.27.08-.4l9.25-60.75L36.58 50 22 109.7l-.1.4zm2.94.39c.51-2.63 2.23-4.51 3.83-4.21 1.6.3 2.48 2.67 2 5.3s-2.24 4.5-3.84 4.21c-1.6-.29-2.51-2.68-1.99-5.3z" fill="#4F4F4F"/>
        <path d="M41.58 62.84a1.29 1.29 0 0 0-.31-1.06c-.5-.57-1.37-1.34-2-.82-.94.78.09 3.44.09 3.44l1 1.55v1c.64-.65.95-2.23 1.22-4.11z" fill="url(#i)"/>
        <path d="M17.63 120.26a.689.689 0 0 0 0-.13c-.7-2.52-4-4-4-4l-1.29.12a8.37 8.37 0 0 0-.44 4.23c1.912.1 3.83.026 5.73-.22z" fill="url(#j)"/>
        <path d="M11.91 120.49a.532.532 0 0 0 .41.39c1.643.176 3.302.123 4.93-.16a.457.457 0 0 0 .38-.46c-1.896.249-3.81.326-5.72.23z" fill="url(#k)"/>
        <path d="m11.78 114.35.59 2.56a.432.432 0 0 0 .38.34c.28.029.561.029.84 0a.54.54 0 0 0 .42-.63l-.43-2.27h-1.8z" fill="url(#l)"/>
        <path d="M23.21 120.25a8.105 8.105 0 0 1-2.55-.3v.42a.258.258 0 0 0 .165.252c.034.013.07.019.105.018l7.81-.19a.348.348 0 0 0 .28-.51 57.82 57.82 0 0 1-5.81.31z" fill="url(#m)"/>
        <path d="M29 119.94v-.06a10.005 10.005 0 0 0-6-3.52h-1.66a7.691 7.691 0 0 0-.69 3.61c.828.237 1.69.338 2.55.3a57.343 57.343 0 0 0 5.8-.33z" fill="url(#n)"/>
        <path d="M21 113.89c0 .12.29 2 .39 2.67a.341.341 0 0 0 .31.31c.378.054.762.054 1.14 0a.504.504 0 0 0 .37-.49l-.06-2.89-2.15.4z" fill="url(#o)"/>
        <path d="M18.86 79.29s4.63 18.76 4.92 37.5c0 .35-2.68.65-2.74.33-.63-3.21-4.75-24.14-6.65-27.05 0 0 0 18.44.59 26.83 0 .21-2.42.89-2.92.35 0 0-3.43-20.41-3.57-33.22.323-1.6.727-3.181 1.21-4.74h9.16z" fill="#2B478B"/>
        <path d="M22.28 59.34c-.29-.36.07.73 0 0z" fill="url(#p)"/>
        <path d="M22.28 59.34v-.26c-5.1-3.42-12.59-1.5-15.5-1.08a3.91 3.91 0 0 0-2.43 1.33C2.87 61.06.33 64.61 0 68.85A13.89 13.89 0 0 0 5.55 71c.197-1.04.533-2.05 1-3 .051.244.118.485.2.72 2.15 6.38 3.25 9.99 3.3 11.21 0 .17 10-.24 8.23-.29-.74 0 3.45-14.42 5.64-17 .13-.13-1.92-3.64-1.64-3.3z" fill="#C4C4C4"/>
        <path d="M11.37 52.79 11 58s3 .82 5.17-.72l-1.63-4.7-3.17.21z" fill="url(#q)"/>
        <path d="M14.74 46.79c.07.07 3.16 5.72 3.16 5.72l-3.34 1.65-3.75-4.93s2.7-3.52 3.93-2.44z" fill="url(#r)"/>
        <path d="M13.61 48c-.75.11-1.14.92-1.3 1.34a.5.5 0 0 0 0 .46l1.73 2.71.1.11c.2.17.9.69 1.41 0a4.75 4.75 0 0 1 1.31-1.43.56.56 0 0 1 .73.22c.476.834.893 1.699 1.25 2.59a.5.5 0 0 1-.3.64c-1.028.455-2.105.79-3.21 1a.54.54 0 0 1-.52-.2c-.53-.68-2-2.58-2.52-3-.52-.42-1.32-.25-1.7-.14a.539.539 0 0 1-.43 0 1.13 1.13 0 0 1-.48-1.75.52.52 0 0 0-.18-.71A1.15 1.15 0 0 1 9 48.1c.54-1.08 2.09-1 3-1.77a4.14 4.14 0 0 1 1.41-1c.12-.04.244-.06.37-.06a2 2 0 0 1 1.41 1.42c.03.74-.92 1.22-1.58 1.31z" fill="#0F0020"/>
        <path d="M12.94 53.38s-.68-1.83-1.51-1.75c-.83.08-1.46.9-.42 1.79 1.3 1.1 1.93-.04 1.93-.04z" fill="url(#s)"/>
        <path d="M6.23 67.59a16.17 16.17 0 0 1-.82-6.46h.3a15.89 15.89 0 0 0 .8 6.32l-.28.14z" fill="#2B478B"/>
        <path d="M14.23 89.69a.15.15 0 0 1-.15-.11c-.36-1.24-2.88-2.58-2.9-2.58a.14.14 0 0 1-.08-.145.14.14 0 0 1 .02-.055.15.15 0 0 1 .2-.06c.11 0 2.66 1.4 3.06 2.77a.15.15 0 0 1-.11.18h-.04z" fill="#0F0020"/>
        <path d="m7 69.9 3.73-5.48a.15.15 0 0 1 .12-.07h6.83a.33.33 0 0 1 .27.15l3.24 5.36a.42.42 0 0 1 .06.31c-1.25 3.83-2.48 7.55-2.4 9.37-2.32 1.77-6.42 1.4-9.21.59-.15-2.38-1.35-6.13-2.64-10a.32.32 0 0 1 0-.23z" fill="#2B478B"/>
        <path d="m8.31 57.8 2.5 7h1.51l-2.23-7.31a.14.14 0 0 0-.17-.1l-1.57.31s-.06.07-.04.1zM16.89 57.31l-.62 7.32 1.4.17 1.18-7.31a.1.1 0 0 0-.09-.11L17 57.22a.11.11 0 0 0-.11.09zM16.65 47.16c-3-5.49-10.69-.5-7.1 4.11 2.67-1.73 5.68-4.27 7.1-4.11z" fill="#2B478B"/>
        <path d="M16.45 46.57c6-.3 1.06 1.87-4.41 3a11.08 11.08 0 0 1 4.41-3z" fill="#2B478B"/>
    </g>
    <defs>
        <linearGradient id="b" x1="40.58" y1="40.64" x2="48.51" y2="40.64" gradientUnits="userSpaceOnUse">
            <stop stop-color="#DBE1FC"/>
            <stop offset="1" stop-color="#E9EDFB"/>
        </linearGradient>
        <linearGradient id="c" x1="536.633" y1="3155.26" x2="595.61" y2="3155.26" gradientUnits="userSpaceOnUse">
            <stop stop-color="#DBE1FC"/>
            <stop offset="1" stop-color="#E9EDFB"/>
        </linearGradient>
        <linearGradient id="d" x1="7.7" y1="53" x2="4.82" y2="81.88" gradientUnits="userSpaceOnUse">
            <stop stop-color="#ECB9B8"/>
            <stop offset="1" stop-color="#E5908C"/>
        </linearGradient>
        <linearGradient id="e" x1="269.236" y1="373.508" x2="257.556" y2="203.498" gradientUnits="userSpaceOnUse">
            <stop stop-color="#ECB9B8"/>
            <stop offset="1" stop-color="#E5908C"/>
        </linearGradient>
        <linearGradient id="f" x1="391.598" y1="547.738" x2="234.145" y2="305.409" gradientUnits="userSpaceOnUse">
            <stop stop-color="#ECB9B8"/>
            <stop offset="1" stop-color="#E5908C"/>
        </linearGradient>
        <linearGradient id="g" x1="458.97" y1="2644.5" x2="920.937" y2="2644.5" gradientUnits="userSpaceOnUse">
            <stop stop-color="#DBE1FC"/>
            <stop offset="1" stop-color="#E9EDFB"/>
        </linearGradient>
        <linearGradient id="h" x1="811.003" y1="2347.06" x2="1765.34" y2="2347.06" gradientUnits="userSpaceOnUse">
            <stop stop-color="#DBE1FC"/>
            <stop offset="1" stop-color="#E9EDFB"/>
        </linearGradient>
        <linearGradient id="i" x1="107.57" y1="516.608" x2="206.323" y2="470.656" gradientUnits="userSpaceOnUse">
            <stop stop-color="#ECB9B8"/>
            <stop offset="1" stop-color="#E5908C"/>
        </linearGradient>
        <linearGradient id="j" x1="14.25" y1="103.08" x2="14.82" y2="123.96" gradientUnits="userSpaceOnUse">
            <stop stop-color="#08003A"/>
            <stop offset="1" stop-color="#0F0055"/>
        </linearGradient>
        <linearGradient id="k" x1="25.97" y1="111.11" x2="5.54" y2="128.21" gradientUnits="userSpaceOnUse">
            <stop stop-color="#5153FA"/>
            <stop offset="1" stop-color="#4344DC"/>
        </linearGradient>
        <linearGradient id="l" x1="41.433" y1="143.652" x2="38.099" y2="116.122" gradientUnits="userSpaceOnUse">
            <stop stop-color="#ECB9B8"/>
            <stop offset="1" stop-color="#E5908C"/>
        </linearGradient>
        <linearGradient id="m" x1="272.228" y1="124.162" x2="269.362" y2="95.383" gradientUnits="userSpaceOnUse">
            <stop stop-color="#5153FA"/>
            <stop offset="1" stop-color="#4344DC"/>
        </linearGradient>
        <linearGradient id="n" x1="224.47" y1="191.111" x2="225.517" y2="109.3" gradientUnits="userSpaceOnUse">
            <stop stop-color="#08003A"/>
            <stop offset="1" stop-color="#0F0055"/>
        </linearGradient>
        <linearGradient id="o" x1="70.328" y1="144.923" x2="65.725" y2="112.846" gradientUnits="userSpaceOnUse">
            <stop stop-color="#ECB9B8"/>
            <stop offset="1" stop-color="#E5908C"/>
        </linearGradient>
        <linearGradient id="p" x1="22.24" y1="59.3" x2="22.17" y2="59.99" gradientUnits="userSpaceOnUse">
            <stop stop-color="#FAF453"/>
            <stop offset=".66" stop-color="#CC795A"/>
            <stop offset="1" stop-color="#BB3E64"/>
        </linearGradient>
        <linearGradient id="q" x1="86.017" y1="450.404" x2="63.38" y2="349.695" gradientUnits="userSpaceOnUse">
            <stop stop-color="#ECB9B8"/>
            <stop offset="1" stop-color="#E5908C"/>
        </linearGradient>
        <linearGradient id="r" x1="101.42" y1="564.928" x2="125.985" y2="602.879" gradientUnits="userSpaceOnUse">
            <stop stop-color="#ECB9B8"/>
            <stop offset="1" stop-color="#E5908C"/>
        </linearGradient>
        <linearGradient id="s" x1="40.613" y1="189.857" x2="39.548" y2="209.015" gradientUnits="userSpaceOnUse">
            <stop stop-color="#ECB9B8"/>
            <stop offset="1" stop-color="#E5908C"/>
        </linearGradient>
        <clipPath id="a">
            <path fill="#fff" d="M0 0h124v121H0z"/>
        </clipPath>
    </defs>
</svg>
