<svg width="111" height="32" fill="none" xmlns="http://www.w3.org/2000/svg">
    <path d="M48 16.255c2.072 1.205 2.434 3.085 2.361 5.238-.097 2.887-.073 5.78-.003 8.667.031 1.375-.52 1.876-1.852 1.8-1.157-.067-2.328-.095-3.483.006-1.663.146-2.112-.608-2.056-2.143.09-2.54.035-5.085.02-7.628-.013-2.202-.477-2.668-2.635-2.678-2.19-.01-4.379-.004-6.753-.004 0 3.533.007 6.871-.004 10.21-.007 2.142-.087 2.215-2.276 2.222-1.336.004-2.688.125-4-.062-.522-.077-1.352-.837-1.355-1.292-.07-9.938-.046-19.88-.028-29.821 0-.156.118-.313.25-.643 3.829 0 7.706-.01 11.579.004 1.799.007 3.64-.167 5.386.15 6.22 1.128 9.26 8.777 5.833 14.439-.286.49-.61.962-.983 1.535zm-14.325-4.012c2.43 0 4.683.073 6.928-.028 1.356-.062 2.245-.882 2.346-2.303.094-1.327-.54-2.4-1.848-2.49-2.444-.167-4.905-.049-7.425-.049v4.87zM.021 15.999c0-4.683.014-9.365-.01-14.047C.004.958.213.149 1.364.162 6.238.219 11.132.07 15.97.497c4.669.41 7.841 3.929 8.064 8.549.213 4.439.272 8.903.07 13.342-.268 5.936-3.967 9.215-10.616 9.524-3.884.18-7.781.028-11.672.042-1.315.007-1.834-.56-1.817-1.907.056-4.682.021-9.365.021-14.047zm7.412 8.809c2.34 0 4.54.059 6.736-.021 1.625-.06 2.636-1.164 2.657-2.828.038-3.577.034-7.159.003-10.736-.014-1.668-.927-2.824-2.566-2.929-2.238-.142-4.49-.034-6.83-.034v16.548zM110.817 11.945c0 3.12.024 6.242-.003 9.362-.049 5.578-3.176 9.379-8.723 10.07a28.026 28.026 0 0 1-8.12-.188c-4.654-.799-7.23-4.432-7.363-10.125C86.46 14.714 86.559 8.357 86.5 2 86.486.639 87.058.153 88.365.149c6.805-.02 5.453-.639 5.543 5.065.077 4.852.007 9.708.025 14.561.003.806.104 1.608.18 2.41.12 1.244.873 1.863 2.072 1.894a90.58 90.58 0 0 0 5.048.003c1.314-.038 2.047-.816 2.054-2.105.038-6.464.076-12.928.02-19.39-.017-2.024.213-2.452 2.308-2.448 6.332.01 5.143-.618 5.202 5.047.021 2.254 0 4.505 0 6.76zM73.015 17.044c.666-2.414 1.339-4.825 1.99-7.242.705-2.616 1.43-5.224 2.072-7.854C77.37.75 78.036.145 79.252.145c1.395-.003 2.786.021 4.18.025 1.06.003 1.472.44 1.182 1.524-2.559 9.511-5.076 19.032-7.708 28.522-.164.594-1.15 1.26-1.83 1.355-1.482.201-3.013.02-4.519.066-1.053.03-1.572-.431-1.837-1.428-2.528-9.459-5.08-18.914-7.632-28.365-.324-1.205.119-1.626 1.364-1.706 5.543-.364 5.529-.392 6.951 4.978 1.053 3.977 2.144 7.944 3.218 11.918.13 0 .262.007.394.01zM51.626 15.995c0-4.68.056-9.358-.031-14.034-.028-1.5.53-1.931 1.924-1.848 1.388.084 2.786.042 4.177.014 1.102-.02 1.58.487 1.58 1.57-.011 9.587-.008 19.175-.004 28.765 0 1.129-.6 1.515-1.653 1.494-1.45-.028-2.904-.063-4.35.01-1.33.066-1.678-.518-1.664-1.761.056-4.738.021-9.472.021-14.21z" fill="#0F001F"/>
</svg>
