<svg width="152" height="103" fill="none" xmlns="http://www.w3.org/2000/svg">
    <g clip-path="url(#a)">
        <path d="M133.765 59.777c0 4.546-.966 9.039-2.833 13.174-5.454 12.111-18.209 20.75-32.986 20.75H87.705a36.09 36.09 0 0 1-17.526-4.362 36.593 36.593 0 0 1-13.305-12.337 32.371 32.371 0 0 1-5.001-17.225 32.005 32.005 0 0 1 2.82-13.175c5.453-12.111 18.221-20.764 32.998-20.764h10.242a35.991 35.991 0 0 1 17.938 4.575 36.511 36.511 0 0 1 13.385 12.92 32.226 32.226 0 0 1 4.509 16.444z" fill="#BF76D0"/>
        <path d="m103.998 79.302-3.339 20.55a2.557 2.557 0 0 0 .502 2.227 2.511 2.511 0 0 0 2.066.921h8.778a5.05 5.05 0 0 0 2.577-.675 5.134 5.134 0 0 0 1.892-1.895l13.646-25.797-26.122 4.67zM84.007 79.653l2.66 20.185a2.574 2.574 0 0 1-.501 2.227c-.25.306-.566.549-.925.709-.359.16-.75.233-1.14.213h-8.78a5.052 5.052 0 0 1-2.577-.675 5.13 5.13 0 0 1-1.891-1.895l-13.98-23.416 27.134 2.651zM57.34 55.174v9.124a3.314 3.314 0 0 1-1.03 2.287 3.238 3.238 0 0 1-2.323.889h-6.89a3.238 3.238 0 0 1-2.322-.89 3.315 3.315 0 0 1-1.03-2.286v-9.124a3.314 3.314 0 0 1 1.03-2.287 3.238 3.238 0 0 1 2.323-.889h6.89a3.238 3.238 0 0 1 2.322.89 3.314 3.314 0 0 1 1.03 2.286z" fill="#BF76D0"/>
        <path d="M57.34 55.174v5.087a3.314 3.314 0 0 1-1.034 2.278c-.628.592-1.461.91-2.319.884h-6.89a3.237 3.237 0 0 1-2.318-.884 3.314 3.314 0 0 1-1.033-2.278v-5.087a3.314 3.314 0 0 1 1.029-2.287 3.238 3.238 0 0 1 2.323-.889h6.89a3.238 3.238 0 0 1 2.322.89 3.314 3.314 0 0 1 1.03 2.286z" fill="#CF98DC"/>
        <path d="M129.269 43.386a26.257 26.257 0 0 1-.904 12.46c-7.223 19.702-24.221 23.255-41.578 24.762C74.43 81.67 56.874 77 56.874 77a32.371 32.371 0 0 1-5.001-17.225 32.005 32.005 0 0 1 2.82-13.174c5.453-12.111 18.221-20.764 32.998-20.764h10.242a35.991 35.991 0 0 1 17.954 4.595 36.509 36.509 0 0 1 13.382 12.953z" fill="#CF98DC"/>
        <path d="m79.458 34.773-13.806 2.691c-1.33.27-2.66-.322-2.9-1.345L58.936 18.26a1.359 1.359 0 0 1 .093-.874 3.173 3.173 0 0 1 1.595-1.304 3.13 3.13 0 0 1 2.05-.042c5.852 1.817 15.801 6.298 18.9 16.337.32 1.01-.652 2.112-2.115 2.395z" fill="#CF98DC"/>
        <path d="m66.21 37.317-.558.107c-1.33.27-2.66-.323-2.9-1.346l-3.817-17.817a1.359 1.359 0 0 1 .093-.874c.078.027.15.068.213.12a22.485 22.485 0 0 1 6.876 7.309 22.781 22.781 0 0 1 3.047 9.607c.133 1.292-1.158 2.544-2.953 2.894z" fill="#BF76D0"/>
        <path d="M62.513 46.521a2.146 2.146 0 0 1 .288-1.216 2.11 2.11 0 0 1 .913-.842 2.08 2.08 0 0 1 2.333.372c.308.291.521.669.614 1.085.092.415.06.85-.095 1.246a2.122 2.122 0 0 1-.771.977c-.348.24-.76.369-1.18.37a2 2 0 0 1-1.463-.551 2.045 2.045 0 0 1-.639-1.441z" fill="#2B478B"/>
        <path d="M142.317 68.994a3.01 3.01 0 0 1-.598-.067c-1.557-.39-2.448-2.153-2.328-4.602a11.9 11.9 0 0 1 2.926-6.944c.777-.9 1.672-1.688 2.66-2.342a7.45 7.45 0 0 0-1.942-2.018 5.287 5.287 0 0 0-2.166-.975 5.258 5.258 0 0 0-2.369.073c-4.336 1.117-7.981 6.998-8.313 7.657a.739.739 0 0 1-.374.402.722.722 0 0 1-.544.029.675.675 0 0 1-.424-.342.684.684 0 0 1-.041-.546 19.473 19.473 0 0 1 2.66-3.849 13.851 13.851 0 0 1 6.344-4.616 6.735 6.735 0 0 1 6.065 1.05 8.891 8.891 0 0 1 2.301 2.395 15.981 15.981 0 0 1 5.001-1.615.727.727 0 0 1 .838.58.707.707 0 0 1-.139.527.686.686 0 0 1-.473.266c-1.591.24-3.132.745-4.562 1.494.431.99.7 2.044.798 3.122a13.136 13.136 0 0 1-1.33 6.984c-1.157 2.14-2.593 3.337-3.99 3.337zm3.259-12.676a11.777 11.777 0 0 0-2.142 1.938 10.548 10.548 0 0 0-2.58 6.136c-.08 1.669.426 2.987 1.237 3.19.811.201 1.995-.835 2.86-2.53a12.001 12.001 0 0 0 1.21-6.258 8.525 8.525 0 0 0-.612-2.476h.027z" fill="#CF98DC"/>
        <path d="M127.301 103a.9.9 0 0 1-.851-.592l-21.88-67.73a.445.445 0 0 1 .246-.561.435.435 0 0 1 .219-.03.898.898 0 0 1 .852.592l21.879 67.716a.45.45 0 0 1-.061.438.436.436 0 0 1-.18.138c-.071.029-.148.039-.224.029zM144.977 102.906a.936.936 0 0 1-.515-.174.956.956 0 0 1-.336-.432l-21.919-67.715a.443.443 0 0 1 .465-.606.965.965 0 0 1 .851.592l21.88 67.702c.106.35-.093.619-.426.633z" fill="#0F0020"/>
        <path d="m125.957 44.018-17.716.108a.872.872 0 0 1-.798-.566.417.417 0 0 1 .439-.565l17.703-.107a.886.886 0 0 1 .811.565.44.44 0 0 1-.069.402.425.425 0 0 1-.37.163zM129.775 55.847l-17.717.094a.847.847 0 0 1-.798-.552.424.424 0 0 1 .051-.42.417.417 0 0 1 .388-.158l17.703-.108a.899.899 0 0 1 .812.565.433.433 0 0 1-.439.579zM133.459 67.285h-17.743a.873.873 0 0 1-.798-.565.43.43 0 0 1 .425-.578l17.717-.095a.846.846 0 0 1 .798.566.416.416 0 0 1 .034.478.409.409 0 0 1-.433.195zM137.595 80.056l-17.716.094a.871.871 0 0 1-.798-.552.424.424 0 0 1 .051-.42.41.41 0 0 1 .388-.158l17.703-.108a.907.907 0 0 1 .811.565.433.433 0 0 1-.229.545.421.421 0 0 1-.21.034zM141.932 93.473l-17.717.107a.9.9 0 0 1-.798-.565.433.433 0 0 1 .229-.544.42.42 0 0 1 .21-.035l17.703-.094a.871.871 0 0 1 .758.512.443.443 0 0 1 .043.212.435.435 0 0 1-.221.354.423.423 0 0 1-.207.053z" fill="#0F0020"/>
        <path d="M32.773 45.458a23.35 23.35 0 0 0-3.512 1.736c-1.582 1.79-1.13 4.118-.226 4.145.586 0 .48.996.48.996l6.49-2.786s-.785-4.616-3.232-4.09z" fill="#2C3A64"/>
        <path d="M33.571 45.821a2.381 2.381 0 0 0-.688-1.914 2.323 2.323 0 0 0-1.906-.656c.491.133.946.377 1.33.713a3.303 3.303 0 0 0-3.764.566c-1.968 1.655-.744 5.786-1.33 6.567-.585.78-2.926.942-2.66 3.471.266 2.53 7.369 5.72 6.917 7.806 0 0 2.78-4.132.798-6.016.555.543.928 1.25 1.064 2.019 0 0 .266-2.14-1.091-2.826a5.052 5.052 0 0 1-2.062-3.216c.094-.404 3.392-6.514 3.392-6.514z" fill="#2C3A64"/>
        <path d="M31.004 57.865c-.099-.469-.327-.9-.658-1.243a2.473 2.473 0 0 0-2.606-.621c-.449.157-.843.44-1.139.815-.243.326-.399.711-.452 1.117-.292 2.409 3.525 12.232 4.07 13.134a81.67 81.67 0 0 0 6.85 7.172l1.078-.672s-4.19-7.106-4.895-7.765c-.705-.66-1.41-7.9-2.248-11.937z" fill="#E59A89"/>
        <path d="M36.617 77.58s1.57-1.05 2.168-.982c.598.067 2.314.565 2.34.82.027.256-1.928.418-2.048.566-.12.148-1.45 1.023-1.928.754-.48-.27-.532-1.158-.532-1.158z" fill="#ED985F"/>
        <path d="m25.63 101.197-1.41-.202a16.93 16.93 0 0 1-5.426-10.833 13.41 13.41 0 0 1 0-2.193.38.38 0 0 0 0-.242c-.16-.243-.532-.821-1.038-1.656-.505-.834-1.33-2.382-2.314-4.131-1.702-3.149-3.697-6.917-4.376-8.074-2.168-3.822-1.117-6.392-1.117-6.392S16 66.868 17.65 65.4l.599.929s1.33 5.88 1.25 5.907l.2.606a102.537 102.537 0 0 1 2.872 10.564c.354 1.493.507 3.027.452 4.562-.014.558.021 1.117.107 1.669.505 4.104 2.5 11.559 2.5 11.559z" fill="#2B478B"/>
        <path d="M28.583 103h-5.865a3.253 3.253 0 0 1 .16-1.588c.292-.659.717-.686 0-1.709.734.42 1.588.572 2.42.431a7.81 7.81 0 0 0 1.024 1.561c.426.282 2.141.188 2.261 1.305zM19.619 72.735c-.506 2.853-1.716 7.617-4.257 9.138-1.702-3.15-3.697-6.917-4.376-8.075-2.168-3.821-1.117-6.392-1.117-6.392s6.052-.605 7.701-2.072l.599.928s1.33 5.881 1.25 5.908l.2.565z" fill="#233862"/>
        <path d="M30.379 56.52c.517.56.927 1.212 1.21 1.924 0 0-1.33 3.835-4.416 4.32 0 .026 2.448-6.245 3.206-6.245z" fill="#4F4F4F"/>
        <path d="M15.509 67.81v-1.117c-2.208.283-7.528-2.637-7.528-2.637s-2.288 1.534-2.594 5.92c-.16 2.14-1.117 11.224-1.224 13.929v1.965a.378.378 0 0 1-.173.255c-.443.576-.839 1.189-1.183 1.83-3.326 6.285-1.583 14.803-1.583 14.803l.771-.188s2.833-8.855 4.655-12.677c.23-.51.505-.996.825-1.453a16.698 16.698 0 0 0 2.155-4.037 104.01 104.01 0 0 0 3.67-10.995l2.209-5.598z" fill="#2B478B"/>
        <path d="M28.304 60.395c-3.578-.834-1.33-5.907-1.09-5.827a5.624 5.624 0 0 0 2.553-2.691l.133.108 2.194 1.95s-.505.755-.93 1.495a3.574 3.574 0 0 0-.573 1.345c.173.148-1.33 3.849-2.287 3.62z" fill="#FFAC95"/>
        <path d="M32.095 53.936s-.506.754-.931 1.507a3.443 3.443 0 0 1-1.128-1.543 3.484 3.484 0 0 1-.136-1.915l2.195 1.951z" fill="#E59A89"/>
        <path d="M32.161 54.918s-3.312-1.87-2.141-3.943c1.17-2.072 1.556-3.7 3.724-2.597 2.168 1.103 2.115 2.126 1.889 2.92-.227.794-2.58 4.05-3.472 3.62z" fill="#FFAC95"/>
        <path d="M36.191 50.087c-.146-.915-.612-1.01-.931-.942a2.67 2.67 0 0 0-1.382-1.225 2.631 2.631 0 0 0-1.837-.026 4.525 4.525 0 0 1-2.66 1.588 3.119 3.119 0 0 0 1.969 1.17c.523.113 1.068.071 1.57-.12a8.651 8.651 0 0 1-2.249.847 6.298 6.298 0 0 0 4.283-1.938c.148.432.203.891.16 1.346-.133.619-.692 1.75-.346 1.897.04.04 1.65-1.224 1.423-2.597z" fill="#2C3A64"/>
        <path d="M5.905 103H0a3.334 3.334 0 0 1 .173-1.588c.292-.659.758-.955.638-1.763a2.098 2.098 0 0 0 1.849.714c.278.491.618.943 1.01 1.345.4.269 2.116.175 2.235 1.292z" fill="#233862"/>
        <path d="M28.716 64.42c-.945.281-1.917.462-2.9.537-1.347.07-2.684.277-3.99.62a.914.914 0 0 0-.572.47 10.899 10.899 0 0 1-1.955 2.8C9.111 68.376 7.98 64.056 7.98 64.056c6.877-8.074 18.515-10.43 18.515-10.43s.838-.363 2.926 1.346c1.397 1.104 1.17 1.548 1.17 1.548s.346 7.119-1.875 7.9z" fill="#C4C4C4"/>
        <path d="M25.817 64.957c-1.348.07-2.684.277-3.99.62a16.559 16.559 0 0 1 2.114-9.057s1.543 6.486 1.876 8.437z" fill="#4F4F4F"/>
        <path d="M27.413 55.55s-3.87.391-4.177 2.934c-.306 2.544 3.698 12.838 4.283 13.834 1.038 1.696 7.21 7.55 7.21 7.55l1.143-.7s-4.376-7.482-5.054-8.196c-1.064-1.09-2.102-14.546-3.405-15.421z" fill="#FFAC95"/>
        <path d="M23.343 60.005s3.564 1.184 5.865 0c0 0 .48-5.383-2.247-5.047-2.727.337-4.35 1.158-4.43 2.477.014.919.297 1.813.812 2.57z" fill="#C4C4C4"/>
        <path d="M34.382 79.127s1.33-1.345 1.982-1.345c.652 0 2.38.175 2.447.43.067.256-1.835.727-1.941.888-.107.162-1.264 1.252-1.783 1.05-.519-.202-.705-1.023-.705-1.023z" fill="#FFB27D"/>
        <path d="M104.43 20.77c1.242-5.279-1.98-10.576-7.197-11.832-5.216-1.257-10.452 2.003-11.694 7.281-1.242 5.278 1.98 10.575 7.197 11.832 5.217 1.256 10.453-2.004 11.694-7.282z" fill="#E2810E"/>
        <path d="m99.29 27.291-.36.215h-.133l-.279.149a9.605 9.605 0 0 1-7.073.212 9.745 9.745 0 0 1-5.337-4.701 9.927 9.927 0 0 1-.766-7.118 9.815 9.815 0 0 1 4.212-5.753l.372-.202.372-.175a9.926 9.926 0 0 1 2.913-.794 9.73 9.73 0 0 1 5.32.956 9.622 9.622 0 0 1 4.23 4.037 9.923 9.923 0 0 1 .891 7.296 9.81 9.81 0 0 1-4.362 5.878z" fill="#FFB93E"/>
        <path d="M94.302 27.816a8.779 8.779 0 0 1-2.421-.35A8.62 8.62 0 0 1 86.9 23.56a8.794 8.794 0 0 1-1.015-6.293 8.712 8.712 0 0 1 3.496-5.305 8.528 8.528 0 0 1 6.132-1.472 8.583 8.583 0 0 1 5.479 3.15 8.773 8.773 0 0 1 1.888 6.083 8.745 8.745 0 0 1-2.716 5.754 8.55 8.55 0 0 1-5.862 2.339zm0-17.373a8.393 8.393 0 0 0-3.729.88 8.494 8.494 0 0 0-2.964 2.452 8.62 8.62 0 0 0-1.595 3.522 8.67 8.67 0 0 0 .1 3.872 8.607 8.607 0 0 0 1.774 3.433 8.48 8.48 0 0 0 3.087 2.291 8.386 8.386 0 0 0 7.45-.383 8.536 8.536 0 0 0 3.679-4.123c.74-1.75.883-3.698.408-5.54a8.58 8.58 0 0 0-3.035-4.629 8.408 8.408 0 0 0-5.202-1.775h.027z" fill="#FFA412"/>
        <path d="M98.571 19.863v-.148a2.693 2.693 0 0 0-.585-.848 2.72 2.72 0 0 0-.93-.552 4.512 4.512 0 0 0-1.185-.229h-1.41c-.27.015-.54.015-.81 0a2.107 2.107 0 0 1-.573-.134.93.93 0 0 1-.372-.256 1.01 1.01 0 0 1-.24-.404 1.53 1.53 0 0 1-.12-.47.978.978 0 0 1 .08-.445.929.929 0 0 1 .266-.39c.146-.13.313-.235.493-.31a1.317 1.317 0 0 1 1.064 0c.386.225.672.591.798 1.023l1.981-.82a3.628 3.628 0 0 0-.651-1.09 2.664 2.664 0 0 0-.878-.687 3.36 3.36 0 0 0-1.064-.283c-.4-.02-.799.026-1.184.135l-.559-1.346-1.103.444.558 1.346c-.37.186-.71.426-1.01.713-.261.263-.477.568-.64.902-.146.316-.223.66-.225 1.01-.006.37.067.736.213 1.076.137.379.36.72.651.996.266.244.578.432.918.551.383.125.782.197 1.184.216.474.027.949.027 1.423 0h.771c.192.02.38.064.559.134.152.058.288.15.4.27.113.13.203.28.265.444.061.149.093.309.093.47a1.101 1.101 0 0 1-.106.458c-.076.153-.18.29-.306.404a2.23 2.23 0 0 1-.532.31 2.335 2.335 0 0 1-.585.147 1.224 1.224 0 0 1-.586 0 1.328 1.328 0 0 1-.532-.35 2.023 2.023 0 0 1-.439-.713l-1.981.821c.172.456.44.87.784 1.211.289.295.639.52 1.025.66.373.121.765.176 1.157.161.41-.013.817-.081 1.21-.202l.505 1.279 1.091-.445-.519-1.278a4.66 4.66 0 0 0 1.025-.726c.248-.232.455-.505.611-.808v-.067c.157-.313.24-.659.24-1.01a2.529 2.529 0 0 0-.24-1.17z" fill="#FFA412"/>
        <path d="M51.998 88.785c1.242-5.278-1.98-10.575-7.197-11.832-5.216-1.256-10.452 2.004-11.694 7.282-1.241 5.278 1.98 10.575 7.197 11.831 5.217 1.257 10.453-2.003 11.694-7.281z" fill="#E2810E"/>
        <path d="m46.872 95.316-.32.229-.12.08-.292.149a9.62 9.62 0 0 1-7.006.554 9.74 9.74 0 0 1-5.545-4.367 9.936 9.936 0 0 1-1.188-7.008 9.85 9.85 0 0 1 3.79-5.987c.316-.23.645-.44.984-.632l.373-.189.372-.188c.386-.162.772-.31 1.157-.43a8.943 8.943 0 0 1 1.77-.35 9.62 9.62 0 0 1 6.27 1.486 9.807 9.807 0 0 1 3.971 5.13 9.932 9.932 0 0 1-.075 6.515 9.8 9.8 0 0 1-4.088 5.035l-.053-.027z" fill="#FFB93E"/>
        <path d="M41.884 95.828a8.865 8.865 0 0 1-2.434-.283 8.714 8.714 0 0 1-5.042-3.942 8.89 8.89 0 0 1-1.034-6.361 8.807 8.807 0 0 1 3.53-5.368 8.62 8.62 0 0 1 6.198-1.493 8.676 8.676 0 0 1 5.542 3.18 8.87 8.87 0 0 1 1.911 6.15 8.843 8.843 0 0 1-2.744 5.819 8.644 8.644 0 0 1-5.927 2.365v-.067zm0-17.374a8.25 8.25 0 0 0-4.07 1.064 8.545 8.545 0 0 0-3.888 4.612 8.666 8.666 0 0 0 .1 6.06 8.536 8.536 0 0 0 4.037 4.479 8.384 8.384 0 0 0 5.955.658 8.476 8.476 0 0 0 4.897-3.493 8.651 8.651 0 0 0 1.39-5.896 8.603 8.603 0 0 0-2.813-5.352 8.416 8.416 0 0 0-5.608-2.132z" fill="#FFA412"/>
        <path d="M46.154 87.875a1.255 1.255 0 0 0-.067-.135 2.437 2.437 0 0 0-.585-.861 2.653 2.653 0 0 0-.931-.552 4.425 4.425 0 0 0-1.17-.215h-1.424a7.68 7.68 0 0 1-.745.013c-.19-.02-.377-.06-.558-.12a1.051 1.051 0 0 1-.386-.27 1.47 1.47 0 0 1-.24-.404 1.154 1.154 0 0 1-.146-.551c-.01-.151.012-.303.067-.444.062-.147.152-.28.266-.39.151-.126.322-.226.505-.297a1.199 1.199 0 0 1 1.05 0c.382.234.67.596.812 1.023l1.969-.807a3.902 3.902 0 0 0-.639-1.09 3.012 3.012 0 0 0-.878-.687 2.836 2.836 0 0 0-1.064-.282 3.694 3.694 0 0 0-1.197.12l-.558-1.345-1.091.458.545 1.345a3.83 3.83 0 0 0-1.01.727c-.26.256-.471.557-.626.888-.143.318-.225.66-.239 1.01 0 .369.072.735.213 1.076.14.377.363.717.651.996.266.252.584.44.932.551.377.131.771.204 1.17.216.474.027.95.027 1.423 0a4.73 4.73 0 0 1 .772 0c.195.009.389.05.572.121.145.062.276.154.385.27.115.13.205.28.266.443.07.152.101.318.093.485a1.02 1.02 0 0 1-.093.444c-.083.152-.19.288-.319.403-.16.133-.339.237-.532.31-.187.08-.384.135-.585.161a1.46 1.46 0 0 1-.585 0 1.327 1.327 0 0 1-.532-.35 2.332 2.332 0 0 1-.44-.713l-1.994.74c.17.458.433.875.771 1.225.294.284.643.503 1.024.646.376.133.773.192 1.17.175a6.182 6.182 0 0 0 1.198-.202l.518 1.265 1.078-.444-.506-1.346a4.402 4.402 0 0 0 1.011-.713c.25-.235.457-.513.612-.82a2.54 2.54 0 0 0 .24-.997 3.007 3.007 0 0 0-.173-1.076z" fill="#FFA412"/>
        <path d="M104.384 29.054a.689.689 0 0 1-.225.388.675.675 0 0 1-.414.164h-.173a52.747 52.747 0 0 0-5.64-.687h-7.966l-1.13.068a54.604 54.604 0 0 0-5.627.673.685.685 0 0 1-.506-.107.7.7 0 0 1-.292-.432.68.68 0 0 1 .298-.699.66.66 0 0 1 .247-.095c.067 0 1.423-.282 3.645-.511h3.617a54.585 54.585 0 0 1 6.132 0H98.199l.891.067 1.33.135c1.117.12 2.261.282 3.405.498a.688.688 0 0 1 .559.538z" fill="#233862"/>
        <path d="M104.357 21.1c-.346-.282-1.091-.928-1.144-.807a.57.57 0 0 0 .067.417 3.45 3.45 0 0 0-2.195-.296.955.955 0 0 0-.625.323.408.408 0 0 0 .08.633c.572.444.412.188 1.197.82a2.448 2.448 0 0 0 2.434.552h.838l.226-1.345s-.412-.162-.878-.296zM123.975 10.86a3.824 3.824 0 0 1-1.813 1.217 3.79 3.79 0 0 1-2.177.021 7.186 7.186 0 0 1-.492-2.059V8.196c.093 0 3.432-1.427 3.418-1.346a6.031 6.031 0 0 0 1.064 4.01z" fill="#FFAC95"/>
        <path d="M122.526 7.522a5.189 5.189 0 0 1-3.046 2.207V8.195c.998-.299 2.016-.524 3.046-.673z" fill="#E59A89"/>
        <path d="M118.735 8.074s3.738.889 4.256-1.48c.519-2.368 1.33-3.849-1.024-4.508-2.354-.66-3.032.121-3.391.875-.36.753-.798 4.844.159 5.113z" fill="#FFAC95"/>
        <path d="M122.858 7.267s.865.283 2.381-2.786a2.728 2.728 0 0 0-.146-2.449c-.559-.928-2.541-1.655-4.19-1.964-1.649-.31-2.035.619-2.421 1.56a5.09 5.09 0 0 1-1.582 1.79c1.423.808 3.125-.336 3.724-.148.598.189.798 1.13.838 1.427.04.296.119.565.864.282.745-.282.333 1.077.213 1.346 0-.013-.106.66.319.942zM126.902 66.128h2.261c.479 0 1.011-.471 1.144-1.346.133-.874 1.104-1.345 1.33-2.085.226-.74-.878-1.736-.878-1.736l-.173-.23-.239-.255-1.796.417s0 .43-.08.983c-.08.551 0 .86 0 1.265 0 .968-.266 2.005-1.117 2.18-.851.175-.452.807-.452.807zM116.753 66.195h6.292c.399-.202.093-1.655 0-2.14a.506.506 0 0 0 0-.134s-2.115-1.71-2.408-.404a.41.41 0 0 1 0 .121c-.359 1.225-2.008 1.777-2.953 1.938-.718.08-.877.363-.931.62z" fill="#233862"/>
        <path d="m117.937 31.234.705 8.922c.505 6.607 1.117 14.803 1.184 16.27.106 2.69.532 6.957.532 6.957a3.29 3.29 0 0 0 3.006.578 69.923 69.923 0 0 0 2.301-12.555v-.323c.465-6.567 1.21-20.4 1.21-20.4l-8.938.55z" fill="#2B478B"/>
        <path d="m117.937 31.234.705 8.922 7.023 11.25v-.323c.465-6.567 1.21-20.4 1.21-20.4l-8.938.55z" fill="#233862"/>
        <path d="M119.932 30.372s3.259 13.552 5.733 21.034a44.586 44.586 0 0 1 2.58 11.115s2.806-.565 3.112-1.117c0 0 .971-12.81-.944-16.484-1.077-2.06-.891-6.864-.891-9.044a31.308 31.308 0 0 0-1.25-8.074l-8.34 2.57z" fill="#2B478B"/>
        <path d="M132.594 29.054v.942a2.066 2.066 0 0 0 .066 1.494c.207.471.583.846 1.052 1.05 0 0 .731.295.758-.283.026-.579 0-.364 0-1.184a1.919 1.919 0 0 0-.134-1.046 1.888 1.888 0 0 0-.664-.812l-.439-.51-.639.349z" fill="#E59A89"/>
        <path d="M133.26 29.74c-.639.215-.745.162-.745.162s-3.113-5.68-3.419-6.258c-.306-.579-6.65-6.446-6.65-6.446l1.649-6.096s7.169 9.42 7.981 10.766c1 2.364 1.68 4.853 2.021 7.401-.233.228-.522.39-.837.471z" fill="#4F4F4F"/>
        <path d="M116.713 19.607c0 1.252.093 2.692.2 4.037v.256c0 .888.133 1.776.213 2.692 0 .35 0 .7.093 1.036v.39c.306 3.243.638 5.813.705 5.854a.42.42 0 0 0 .252.067 35.87 35.87 0 0 0 5.52-.296 15.07 15.07 0 0 0 4.815-2.019c.213-.12.692-.457.652-.7-.04-.242-.107-.672-.2-1.17a65.185 65.185 0 0 1-1.104-8.222c0-.66-.079-1.346-.146-1.925a31.413 31.413 0 0 0-.838-4.575c-.705-2.57-1.742-4.535-3.046-5.302-.173-.094-1.09.484-1.928 1.036-.706.46-1.547.66-2.381.565l-.692.78a7.886 7.886 0 0 0-1.995 4.213 4.112 4.112 0 0 0 0 .444c-.12.727-.133 1.75-.12 2.84z" fill="#C4C4C4"/>
        <path d="M116.713 19.607c0 1.252.093 2.692.2 4.037v.256a13.01 13.01 0 0 0 3.648-3.737 13.158 13.158 0 0 0 1.898-4.89 12.959 12.959 0 0 0-5.693 1.454c-.053.767-.066 1.79-.053 2.88z" fill="#4F4F4F"/>
        <path d="M104.57 22.002c0-.726.319-.847.319-.847s7.249-1.346 7.861-1.521a77.347 77.347 0 0 0 5.892-5.746s2.022-2.301 3.724-1.777a3.119 3.119 0 0 1 1.497 1.012 3.18 3.18 0 0 1 .698 1.68c.108.63.027 1.28-.234 1.863a3.178 3.178 0 0 1-1.229 1.407 85.78 85.78 0 0 1-8.646 4.804c-2.66.767-9.576 0-9.576 0a2.306 2.306 0 0 1-.306-.875z" fill="#C4C4C4"/>
        <path d="M148.657 94.94c1.242-5.279-1.98-10.576-7.197-11.832-5.216-1.257-10.452 2.003-11.694 7.281-1.241 5.278 1.981 10.575 7.197 11.832 5.217 1.256 10.453-2.004 11.694-7.282z" fill="#E2810E"/>
        <path d="m143.514 101.466-.359.215h-.119l-.293.148a9.601 9.601 0 0 1-7.356.584 9.737 9.737 0 0 1-5.637-4.815 9.922 9.922 0 0 1-.664-7.435 9.799 9.799 0 0 1 4.692-5.76c.12-.081.253-.135.373-.202l.372-.175c.377-.172.763-.32 1.157-.444a9.029 9.029 0 0 1 1.756-.35 9.62 9.62 0 0 1 6.27 1.487 9.804 9.804 0 0 1 3.971 5.13 9.934 9.934 0 0 1-.074 6.515 9.799 9.799 0 0 1-4.089 5.035v.067z" fill="#FFB93E"/>
        <path d="M138.54 101.977a8.326 8.326 0 0 1-2.434-.349 8.692 8.692 0 0 1-4.225-2.785 8.89 8.89 0 0 1-1.071-9.704 8.758 8.758 0 0 1 3.514-3.66 8.618 8.618 0 0 1 7.64-.37 8.705 8.705 0 0 1 3.16 2.357 8.832 8.832 0 0 1 1.815 3.523 8.918 8.918 0 0 1 .099 3.97 8.861 8.861 0 0 1-1.637 3.61 8.719 8.719 0 0 1-3.039 2.515 8.619 8.619 0 0 1-3.822.907v-.014zm0-17.373a8.445 8.445 0 0 0-4.083 1.064 8.557 8.557 0 0 0-3.851 5.121 8.663 8.663 0 0 0 .756 6.39 8.495 8.495 0 0 0 4.938 4.056 8.383 8.383 0 0 0 6.336-.563 8.537 8.537 0 0 0 3.674-4.11 8.669 8.669 0 0 0 .42-5.527 8.579 8.579 0 0 0-3.01-4.63 8.408 8.408 0 0 0-5.18-1.8z" fill="#FFA412"/>
        <path d="M142.796 94.025v-.135a2.697 2.697 0 0 0-.585-.848 2.524 2.524 0 0 0-.931-.552 4.025 4.025 0 0 0-1.184-.228h-1.41c-.27.02-.541.02-.811 0a1.724 1.724 0 0 1-.572-.121 1.103 1.103 0 0 1-.373-.256 1.26 1.26 0 0 1-.239-.404 1.665 1.665 0 0 1-.12-.47 1.107 1.107 0 0 1 .346-.835c.142-.135.31-.24.492-.31a1.225 1.225 0 0 1 1.064 0c.383.222.668.583.798 1.01l1.982-.808a3.616 3.616 0 0 0-.652-1.09 2.77 2.77 0 0 0-1.928-.969 3.695 3.695 0 0 0-1.197.121l-.559-1.345-1.104.444.559 1.346a4.572 4.572 0 0 0-1.011.726 3.304 3.304 0 0 0-.625.902 2.353 2.353 0 0 0-.24 1.009c-.003.37.07.736.213 1.077.138.379.361.72.652.995.266.245.578.433.918.552.383.124.781.197 1.183.216h1.424c.256-.028.515-.028.771 0 .191.015.379.055.559.12.152.063.289.16.399.283.12.127.211.278.266.444a1.137 1.137 0 0 1-.014.929 1.34 1.34 0 0 1-.305.39c-.162.132-.341.24-.533.323-.189.07-.385.12-.585.148-.193.04-.392.04-.585 0a1.465 1.465 0 0 1-.532-.35 2.166 2.166 0 0 1-.439-.713l-1.982.807c.172.46.44.878.785 1.225a2.55 2.55 0 0 0 1.024.646c.376.133.773.192 1.171.175a4.646 4.646 0 0 0 1.197-.202l.505 1.346 1.091-.458-.519-1.278c.374-.186.72-.426 1.024-.713a3.4 3.4 0 0 0 .612-.808.184.184 0 0 0 0-.08c.158-.308.241-.65.239-.996a2.575 2.575 0 0 0-.239-1.265z" fill="#FFA412"/>
    </g>
    <defs>
        <clipPath id="a">
            <path fill="#fff" d="M0 0h152v103H0z"/>
        </clipPath>
    </defs>
</svg>
