<svg width="119" height="120" fill="none" xmlns="http://www.w3.org/2000/svg">
    <g clip-path="url(#a)">
        <path d="M50.49 83.007 54.6 79.94a21.644 21.644 0 0 0 6.762 1.288l2.576 4.343 6.299-1.289.682-5a21.332 21.332 0 0 0 5.719-3.749l5.01 1.289 3.555-5.154-3.142-4.008a20.33 20.33 0 0 0 1.288-6.597l4.456-2.577-1.288-6.146-5.152-.658a20.345 20.345 0 0 0-3.864-5.579l1.288-4.883-5.358-3.466-3.877 3.066a21.719 21.719 0 0 0-6.775-1.288l-2.576-4.342-6.311 1.288-.773 4.922a21.33 21.33 0 0 0-5.719 3.75l-5.01-1.289-3.555 5.154 3.13 4.008a20.622 20.622 0 0 0-1.288 6.597l-4.457 2.577 1.288 6.133 5.152.67a20.76 20.76 0 0 0 3.864 5.567l-1.442 4.973 5.41 3.466z" fill="#C4C4C4"/>
        <path d="m68.922 42.11 3.336-2.462c1.77.642 3.63.994 5.512 1.044l2.087 3.479 5.152-.992.554-4.008c1.7-.747 3.269-1.76 4.65-3.002l4.07 1.005 2.898-4.188-2.512-3.182a15.645 15.645 0 0 0 1.082-5.283l3.632-2.049-1.03-4.935-4.173-.528a16.57 16.57 0 0 0-3.143-4.471l1.069-3.866-4.366-2.783-3.336 2.46a17.948 17.948 0 0 0-5.513-1.043l-2.125-3.479-5.152.992-.554 4.008a17.569 17.569 0 0 0-4.663 2.937l-4.07-1.018-2.898 4.188 2.576 3.209a16.304 16.304 0 0 0-1.082 5.295l-3.62 2.036 1.031 4.922 4.173.529a16.621 16.621 0 0 0 3.13 4.47l-1.056 3.866 4.34 2.848z" fill="#CF98DC"/>
        <path d="m33.282 47.843 4.07-3.08a21.628 21.628 0 0 0 6.763 1.289l2.575 4.342 6.299-1.288.683-5c2.099-.934 4.034-2.2 5.731-3.75l4.998 1.289 3.555-5.219-3.143-4.007a19.915 19.915 0 0 0 1.288-6.584l4.457-2.577-1.289-6.134-5.152-.67a20.786 20.786 0 0 0-3.864-5.579l1.288-4.87-5.37-3.467-3.878 3.093a21.644 21.644 0 0 0-6.775-1.289L42.942 0l-6.298 1.289-.696 4.999a21.535 21.535 0 0 0-5.718 3.75l-4.998-1.289-3.555 5.154 3.143 3.995a20.057 20.057 0 0 0-1.288 6.597l-4.47 2.577 1.288 6.146 5.153.67a21.12 21.12 0 0 0 3.864 5.58l-1.288 4.87 5.203 3.505z" fill="#4F4F4F"/>
        <path d="M42.105 20.346a5.807 5.807 0 0 1 6.956 1.12 5.465 5.465 0 0 1 1.468 3.995 5.645 5.645 0 0 1-5.95 5.27 5.744 5.744 0 0 1-3.942-1.816 5.412 5.412 0 0 1-1.468-3.982 5.478 5.478 0 0 1 2.936-4.587zm5.01 8.878a4.574 4.574 0 0 0 2.448-3.866 4.473 4.473 0 0 0-1.224-3.285 4.752 4.752 0 0 0-3.258-1.482 4.687 4.687 0 0 0-4.947 4.38 4.524 4.524 0 0 0 1.288 3.312 4.7 4.7 0 0 0 3.195 1.52 4.802 4.802 0 0 0 2.499-.58z" fill="#C4C4C4"/>
        <path d="M57.265 50.768a11.472 11.472 0 0 1 13.77 2.23 10.735 10.735 0 0 1 2.91 7.91 11.186 11.186 0 0 1-11.798 10.438 11.332 11.332 0 0 1-7.728-3.583 10.72 10.72 0 0 1-2.924-7.911 10.956 10.956 0 0 1 5.77-9.084zm9.93 17.601a9.094 9.094 0 0 0 4.844-7.55 8.92 8.92 0 0 0-2.422-6.533 9.401 9.401 0 0 0-6.44-2.977 9.285 9.285 0 0 0-9.801 8.672 8.92 8.92 0 0 0 2.42 6.571 9.375 9.375 0 0 0 6.441 2.977 9.476 9.476 0 0 0 4.959-1.16z" fill="#fff"/>
        <path d="M59.957 55.574a5.755 5.755 0 0 1 3.001-.67 5.68 5.68 0 0 1 3.942 1.804 5.36 5.36 0 0 1 1.468 3.994 5.618 5.618 0 0 1-5.95 5.18 5.705 5.705 0 0 1-3.942-1.804 5.465 5.465 0 0 1-1.468-3.994 5.554 5.554 0 0 1 2.95-4.51zm5.01 8.89a4.586 4.586 0 0 0 2.435-3.865 4.459 4.459 0 0 0-1.21-3.311 4.751 4.751 0 0 0-3.272-1.508 4.687 4.687 0 0 0-4.96 4.381 4.472 4.472 0 0 0 1.289 3.312 4.727 4.727 0 0 0 3.22 1.507 4.853 4.853 0 0 0 2.499-.567v.052z" fill="#fff"/>
        <path d="M37.868 12.615c.438-.232.876-.438 1.288-.632a14.923 14.923 0 0 1 18.586 6.224 13.972 13.972 0 0 1 1.507 4.072 13.832 13.832 0 0 1-2.151 10.695 14.503 14.503 0 0 1-9.287 6.081 14.87 14.87 0 0 1-7.728-.528l.322-.876c2.337.8 4.842.968 7.265.49a13.535 13.535 0 0 0 8.668-5.683 13.07 13.07 0 0 0 .593-13.787 13.81 13.81 0 0 0-14.684-6.623 13.33 13.33 0 0 0-10.654 10.438 13.341 13.341 0 0 0-.024 5.243c0 .27.116.529.18.786.124.468.274.929.451 1.379.023.061.049.122.078.18.042.11.089.217.142.322l-.89.374a13.97 13.97 0 0 1-.927-2.886 14.178 14.178 0 0 1 7.265-15.27z" fill="#C4C4C4"/>
        <path d="m117.287 118.879-40.998-77.04a.89.89 0 0 1 .387-1.199.927.927 0 0 1 1.223.387l40.998 77.04a.88.88 0 0 1 .06.676.873.873 0 0 1-.447.51.92.92 0 0 1-.725.094.921.921 0 0 1-.563-.468h.065zM97.812 119.472 62.765 41.014a.89.89 0 0 1 .464-1.16.914.914 0 0 1 1.198.464l35.047 78.393a.896.896 0 0 1 0 .683.852.852 0 0 1-.49.477.848.848 0 0 1-.36.077.902.902 0 0 1-.812-.476z" fill="#470051"/>
        <path d="M70.223 55.947H84.39a.553.553 0 1 0 0-1.095H70.223a.555.555 0 1 0 0 1.095zM74.022 64.594H88.19a.566.566 0 0 0 .567-.555.567.567 0 0 0-.567-.554H74.023a.567.567 0 0 0-.566.554.567.567 0 0 0 .566.555zM79.033 74.799h15.121a.555.555 0 1 0 0-1.096H79.033a.553.553 0 1 0 0 1.096zM66.449 47.624h13.563a.555.555 0 1 0 0-1.096H66.449a.554.554 0 1 0 0 1.096zM84.017 86.627h16.448a.555.555 0 0 0 0-1.108H84.017a.554.554 0 0 0 0 1.108zM87.881 95.789h17.621a.566.566 0 0 0 .566-.554.565.565 0 0 0-.566-.554h-17.62a.566.566 0 0 0-.567.554.554.554 0 0 0 .566.554z" fill="#470051"/>
        <path d="M91.346 84.643a21.326 21.326 0 0 1 5.719-2.77h2.344c.553.803.89 1.734.979 2.706a6.36 6.36 0 0 1-2.795.553 23.534 23.534 0 0 1-6.247-.49z" fill="#2A3388"/>
        <path d="M91.346 84.643c2.049.459 4.15.64 6.247.541a6.438 6.438 0 0 0 2.795-.554.777.777 0 0 0 0 .18.678.678 0 0 1-.49.735c-2.138.644-6.852.425-8.694.322a.477.477 0 0 1-.347-.773 5.17 5.17 0 0 1 .49-.45z" fill="#4F4F4F"/>
        <path d="M99.177 79.953v1.817a.76.76 0 0 1-.605.721 2.986 2.986 0 0 1-1.288 0 .709.709 0 0 1-.54-.605l-.233-1.946 2.666.013z" fill="url(#b)"/>
        <path d="M87.353 70.637c.722-1.572.516-2.281 1.958-2.127.15.012.296.042.438.09.096.267.096.559 0 .825a15.464 15.464 0 0 1-2.576 4.484 1.636 1.636 0 0 1-1.21.58h-1.585a9.998 9.998 0 0 0 2.975-3.852z" fill="#4F4F4F"/>
        <path d="M84.326 72.17c1.211-.838 1.662-4.252 1.662-4.252l1.88-.928 1.417.992c.211.158.372.372.464.619a2.02 2.02 0 0 0-.438-.09c-1.443-.168-1.288.554-1.97 2.126a9.753 9.753 0 0 1-2.924 3.865h-1.082a.566.566 0 0 1-.477-.914 6.801 6.801 0 0 1 1.468-1.418z" fill="#2A3388"/>
        <path d="m86.748 65.264 1.133 1.726a.49.49 0 0 1-.115.657 1.725 1.725 0 0 1-1.765.271l-1.83-1.289 2.577-1.365z" fill="url(#c)"/>
        <path d="M95.313 47.121a45.93 45.93 0 0 1 1.468 7.396c.863 5.747 1.43 9.935 1.907 12.215.642 4.267 1 8.572 1.069 12.886a.812.812 0 0 1-.825.786l-2.33-.065a.708.708 0 0 1-.684-.58c-.592-3.388-4.675-20.86-7.148-25.886 0 0-6.543 1.804-8.179 2.577 0 0 2.113.825 6.44 8.723a11.259 11.259 0 0 1-3.194 1.753l-10.42-8.505c-.992-.798-1.906-2.177.644-4.69 2.55-2.512 10.394-6.442 10.394-6.442l10.858-.168z" fill="#0F0020"/>
        <path d="m89.17 54.066 2.344-.876a2.886 2.886 0 0 0 1.661-2.577.115.115 0 0 0-.116-.103.101.101 0 0 0-.081.025.103.103 0 0 0-.035.078 2.577 2.577 0 0 1-1.494 2.384l-2.331.876a.091.091 0 0 0-.034.071.091.091 0 0 0 .034.07c.01.024.029.042.051.052z" fill="url(#d)"/>
        <path d="M78.234 29.52s-2.885 11.12-6.8 15.604a5.539 5.539 0 0 0 2.575 1.508s6.003-5.154 7.832-8.685c1.829-3.53-3.607-8.427-3.607-8.427z" fill="#2B478B"/>
        <path d="m81.467 16.802 3.542 7.242h-5.538a13.686 13.686 0 0 0-1.894-5.296l3.89-1.946z" fill="url(#e)"/>
        <path d="M85.602 23.644s-1.288-2.049-9.648-1.546c-4.34.258-14.168-3.428-16.306-5.283-1.04.07-2.015.53-2.73 1.288 0 0 9.016 9.29 19.565 10.476 0 0 7.998 16.055 7.947 18.658a13.417 13.417 0 0 0 11.18.876 27.789 27.789 0 0 0-2.319-10.579 68.473 68.473 0 0 0-7.69-13.89z" fill="#2B478B"/>
        <path d="M81.802 29.185a.116.116 0 0 0 .112-.147.102.102 0 0 0-.1-.072s-4.056-.322-4.688-.4a.116.116 0 0 0-.115.104.09.09 0 0 0 .015.08.09.09 0 0 0 .075.035c.63.078 4.65.387 4.688.4h.013z" fill="url(#f)"/>
        <path d="M76.057 11.584c0 .103-1.288 7.731-1.288 7.731l4.457.593 2.267-6.997s-4.47-3.028-5.436-1.327z" fill="url(#g)"/>
        <path d="m79.973 14.032-.902 3.775c.01.047.01.095 0 .142a1.07 1.07 0 0 1-1.623.515 5.011 5.011 0 0 0-2.19-1.147.554.554 0 0 0-.579.464 22.756 22.756 0 0 0-.322 3.621.554.554 0 0 0 .515.528 18.13 18.13 0 0 0 4.174-.116.58.58 0 0 0 .425-.36c.309-.928 1.288-3.724 1.661-4.472.374-.747 1.443-.786 1.906-.799a.553.553 0 0 0 .387-.167 1.392 1.392 0 0 0-.168-2.255.529.529 0 0 1-.077-.773 1.379 1.379 0 0 0 0-2.1 2.06 2.06 0 0 0-2.473-.297.58.58 0 0 1-.85-.116.424.424 0 0 0-.477-.154.554.554 0 0 1-.644-.49 1.636 1.636 0 0 0-1.455-1.585c-1.958-.36-2.937 1.546-2.898 2.886.039 1.34 2.177 1.611 3.4 1.392.915-.167 1.713.657 2.048 1.057a.49.49 0 0 1 .142.45z" fill="#0F0020"/>
        <path d="M80.733 18.361s0-2.345 1.005-2.577c1.004-.232 2.022.464 1.197 1.868-1.03 1.753-2.202.71-2.202.71z" fill="url(#h)"/>
        <path d="M75.362 11.764a.115.115 0 0 0 .077 0 .115.115 0 0 0 .027-.13.116.116 0 0 0-.027-.037 1.21 1.21 0 0 1-.309-.89 2.449 2.449 0 0 1 1.03-1.649.115.115 0 0 0 .027-.129.115.115 0 0 0-.026-.038.116.116 0 0 0-.168 0 2.577 2.577 0 0 0-1.12 1.804 1.454 1.454 0 0 0 .373 1.07.116.116 0 0 0 .116 0z" fill="#C0CEF8"/>
        <path d="M59.648 16.815s-1.365-3.685-1.687-3.556c-.322.129-.438.954-.438.954a15.953 15.953 0 0 1-3.427-1.38c-.244-.424-1.61-1.288-1.622-1.03a8.365 8.365 0 0 0 1.88 3.866c1.07.824 2.692 2.332 2.692 2.332l2.602-1.186z" fill="url(#i)"/>
        <path d="M74.074 46.631s-2.46-1.816-3.581-1.469a4.677 4.677 0 0 0-1.945 1.392h2.473s.593 1.108 0 1.108h-.876s2.306 2.32 3.929-1.03z" fill="url(#j)"/>
        <path d="M18.419 114.549s-.297 1.663-.451 3.299a1.135 1.135 0 0 0 1.107 1.211c2.242.103 7.033.271 8.746.193a.365.365 0 0 0 .295-.166.375.375 0 0 0 .04-.336.811.811 0 0 0-.438-.438l-7.908-3.544-1.391-.219z" fill="#470051"/>
        <path d="m18.174 113.557.245 1.972a2.574 2.574 0 0 0 2.33-.078l-.579-2.203-1.996.309z" fill="url(#k)"/>
        <path d="M18.354 76.37c-.103.516-.554 25.771 2.216 37.123a.374.374 0 0 1-.232.438 6.544 6.544 0 0 1-2.254.451.653.653 0 0 1-.67-.477 125.942 125.942 0 0 1-5.088-28.347c-.554-14.058 0-.477 0-.477l.322-8.685 5.706-.025z" fill="#2B478B"/>
        <path d="M9.325 115.413a11.78 11.78 0 0 0-.94 3.053.684.684 0 0 0 .618.825c.747 0 1.88.168 2.795.155a.687.687 0 0 0 .506-.218.688.688 0 0 0 .19-.517 5.722 5.722 0 0 0-1.391-3.182l-1.778-.116z" fill="#470051"/>
        <path d="m8.9 112.861.567 3.003a2.06 2.06 0 0 0 1.661.116l-.27-3.222-1.958.103z" fill="url(#l)"/>
        <path d="M7.38 77.156c-2.228 13.324.49 32.948 1.43 36.788a.583.583 0 0 0 .49.451c.59.11 1.196.088 1.777-.065a.554.554 0 0 0 .4-.502c.128-3.106-.104-22.163 2.008-29.636.113-.383.354-.716.683-.94l4.096-2.849.322-4.587-11.206 1.34z" fill="#2B478B"/>
        <path d="M41.912 42.135a1.289 1.289 0 0 0-1.52-.413c-.992 4.11-6.247 7.448-11.592 9.02a14.176 14.176 0 0 0 2.885 5.863 21.176 21.176 0 0 0 10.227-14.47z" fill="url(#m)"/>
        <path d="M41.745 42.328c.064.22-.735.541-1.211-.335a7.965 7.965 0 0 1 0-2.577 34.632 34.632 0 0 1 4.07-4.149.619.619 0 0 1 .09.863l-1.288 1.289c.319.453.575.947.76 1.469a1.65 1.65 0 0 1-.18 1.288c-.258.444-.537.874-.837 1.289a1.79 1.79 0 0 1-1.404.863z" fill="url(#n)"/>
        <path d="m42.788 38.308-1.185.979-.374.98 1.056 1.133c.13-.804.337-1.594.619-2.358.257-.412.128-.618-.116-.734z" fill="url(#o)"/>
        <path d="M15.778 67.84a9.46 9.46 0 0 1-.322-2.95c.206-.76.631-1.752 2.048-1.533a20.83 20.83 0 0 1 3.078.798.811.811 0 0 1-1.159.683l.67.503s-.103.799-1.005.374l.619.657a.724.724 0 0 1-1.057.245c-.618-.426-.978 1.481-2.872 1.224z" fill="url(#p)"/>
        <path d="m14.941 46.554-2.151 6.043a.219.219 0 0 0 .103.271 5.15 5.15 0 0 0 5.268-.348 1.03 1.03 0 0 0 .49-.734l.67-5.232h-4.38z" fill="url(#q)"/>
        <path d="M19.655 40.859s2.37 4.407 2.074 6.12c-.296 1.714-3.259 1.637-5.822.206l-1.739-4.703 5.487-1.623z" fill="url(#r)"/>
        <path d="M16.023 44.88a.178.178 0 0 0 .103-.118.181.181 0 0 0-.026-.153 4.651 4.651 0 0 1-.644-1.366s-.438-.27 1.082-.619c1.52-.348 3.774-.902 4.238-2.152.463-1.25-.747-4.303-2.692-1.855a.18.18 0 0 1-.284 0 1.932 1.932 0 0 0-2.318-.722 1.687 1.687 0 0 0-1.198 1.637.169.169 0 0 1-.056.144.168.168 0 0 1-.15.036 2.137 2.137 0 0 0-2.486 1.134 1.624 1.624 0 0 0 .116 1.997.168.168 0 0 1-.077.297 1.057 1.057 0 0 0-.773 1.224c0 1.134 1.365 1.043 1.739.979a.193.193 0 0 1 .154 0 6.272 6.272 0 0 0 3.31 1.971.168.168 0 0 0 .194-.231l-.683-1.817a.18.18 0 0 1 .103-.22l.348-.167z" fill="#0F0020"/>
        <path d="M16.293 45.15s-1.687-1.134-1.816-.18c-.129.953 1.52 1.378 2.345 1.017l-.529-.837z" fill="url(#s)"/>
        <path d="m21.896 60.38 1.07-.142c.18-.631.295-1.005.295-1.005a22.78 22.78 0 0 0 8.308-2.577 13.866 13.866 0 0 1-2.885-5.862 23.756 23.756 0 0 1-6.93 1.082l-.309 1.417.451 7.087z" fill="#C4C4C4"/>
        <path d="M21.96 60.38c-.102 0-.463-7.074-.463-7.074l.322-1.417c-4.81.046-9.601.625-14.284 1.726-2.022 11.52-.348 24.804-.348 24.804 5.255 1.289 11.193-.824 11.193-.824.734-4.02 3.697-14.174 4.65-17.357l-1.07.142z" fill="#2B478B"/>
        <path d="M15.688 66.269s-7.123 3.865-9.531.58a2.577 2.577 0 0 1-.49-2.05 15.103 15.103 0 0 0-5.525-1.494 7.231 7.231 0 0 0 .824 5.154c4.212 7.512 15.662-.412 15.662-.412l-.94-1.778z" fill="url(#t)"/>
        <path d="m14.168 71.23 3.864-13.234a.373.373 0 0 1 .335-.27c.696-.09 2.744-.31 5.152-.503a58.598 58.598 0 0 1 8.102-.258.387.387 0 0 1 .335.554c-1.12 2.204-5.732 11.198-8.038 14.174a.386.386 0 0 1-.322.155l-9.016-.078a.387.387 0 0 1-.412-.54z" fill="#0F0020"/>
        <path d="m10.15 60.239-2.577-6.443s-6.375 4.24-7.419 9.51c1.914.154 3.783.66 5.513 1.494.464-2.513 4.482-4.561 4.482-4.561z" fill="#C4C4C4"/>
        <path d="m23.66 55.741 2.822-.45a.205.205 0 0 1 .227.146c.01.032.01.066.004.098l-.283.825a.206.206 0 0 1-.168.142l-2.704.347a.206.206 0 0 1-.232-.244l.18-.71a.193.193 0 0 1 .155-.154z" fill="#2A3388"/>
        <path d="m21.549 58.074.231-1.186a.284.284 0 0 1 .258-.219l5.693-.567a.283.283 0 0 1 .296.335l-.36 1.469a.283.283 0 0 1-.258.22l-5.513.27a.297.297 0 0 1-.348-.322z" fill="#4F4F4F"/>
    </g>
    <defs>
        <linearGradient id="b" x1="99.216" y1="81.267" x2="96.524" y2="81.267" gradientUnits="userSpaceOnUse">
            <stop stop-color="#E5908C"/>
            <stop offset="1" stop-color="#EAB0AF"/>
        </linearGradient>
        <linearGradient id="c" x1="342.869" y1="183.04" x2="331.732" y2="183.04" gradientUnits="userSpaceOnUse">
            <stop stop-color="#E5908C"/>
            <stop offset="1" stop-color="#EAB0AF"/>
        </linearGradient>
        <linearGradient id="d" x1="95.931" y1="62.803" x2="91.073" y2="52.174" gradientUnits="userSpaceOnUse">
            <stop stop-color="#4344DC"/>
            <stop offset="1" stop-color="#5153FA"/>
        </linearGradient>
        <linearGradient id="e" x1="517.395" y1="631.605" x2="576.676" y2="506.709" gradientUnits="userSpaceOnUse">
            <stop stop-color="#E5908C"/>
            <stop offset="1" stop-color="#EAB0AF"/>
        </linearGradient>
        <linearGradient id="f" x1="389.406" y1="72.857" x2="370.691" y2="72.857" gradientUnits="userSpaceOnUse">
            <stop stop-color="#4344DC"/>
            <stop offset="1" stop-color="#5153FA"/>
        </linearGradient>
        <linearGradient id="g" x1="479.925" y1="756.92" x2="498.041" y2="659.275" gradientUnits="userSpaceOnUse">
            <stop stop-color="#E5908C"/>
            <stop offset="1" stop-color="#EAB0AF"/>
        </linearGradient>
        <linearGradient id="h" x1="245.009" y1="230.32" x2="238.189" y2="251.986" gradientUnits="userSpaceOnUse">
            <stop stop-color="#E5908C"/>
            <stop offset="1" stop-color="#EAB0AF"/>
        </linearGradient>
        <linearGradient id="i" x1="342.744" y1="622.76" x2="352.899" y2="565.565" gradientUnits="userSpaceOnUse">
            <stop stop-color="#E5908C"/>
            <stop offset="1" stop-color="#EAB0AF"/>
        </linearGradient>
        <linearGradient id="j" x1="340.684" y1="301.916" x2="349.61" y2="255.06" gradientUnits="userSpaceOnUse">
            <stop stop-color="#E5908C"/>
            <stop offset="1" stop-color="#EAB0AF"/>
        </linearGradient>
        <linearGradient id="k" x1="54.522" y1="126.163" x2="59.674" y2="126.163" gradientUnits="userSpaceOnUse">
            <stop stop-color="#E5908C"/>
            <stop offset="1" stop-color="#EAB0AF"/>
        </linearGradient>
        <linearGradient id="l" x1="24.297" y1="130.213" x2="28.152" y2="130.213" gradientUnits="userSpaceOnUse">
            <stop stop-color="#E5908C"/>
            <stop offset="1" stop-color="#EAB0AF"/>
        </linearGradient>
        <linearGradient id="m" x1="321.592" y1="878.741" x2="455.465" y2="878.741" gradientUnits="userSpaceOnUse">
            <stop stop-color="#E5908C"/>
            <stop offset="1" stop-color="#EAB0AF"/>
        </linearGradient>
        <linearGradient id="n" x1="174.065" y1="455.192" x2="111.686" y2="367.279" gradientUnits="userSpaceOnUse">
            <stop stop-color="#E5908C"/>
            <stop offset="1" stop-color="#EAB0AF"/>
        </linearGradient>
        <linearGradient id="o" x1="90.994" y1="206.847" x2="111.448" y2="225.975" gradientUnits="userSpaceOnUse">
            <stop stop-color="#E5908C"/>
            <stop offset="1" stop-color="#EAB0AF"/>
        </linearGradient>
        <linearGradient id="p" x1="76.89" y1="259.047" x2="97.543" y2="259.047" gradientUnits="userSpaceOnUse">
            <stop stop-color="#E5908C"/>
            <stop offset="1" stop-color="#EAB0AF"/>
        </linearGradient>
        <linearGradient id="q" x1="98.635" y1="446.059" x2="84.742" y2="380.165" gradientUnits="userSpaceOnUse">
            <stop stop-color="#E5908C"/>
            <stop offset="1" stop-color="#EAB0AF"/>
        </linearGradient>
        <linearGradient id="r" x1="5986.25" y1="-436.564" x2="5916.09" y2="-424.995" gradientUnits="userSpaceOnUse">
            <stop stop-color="#E5908C"/>
            <stop offset="1" stop-color="#EAB0AF"/>
        </linearGradient>
        <linearGradient id="s" x1="1865.03" y1="-55.631" x2="1844.01" y2="-50.417" gradientUnits="userSpaceOnUse">
            <stop stop-color="#E5908C"/>
            <stop offset="1" stop-color="#EAB0AF"/>
        </linearGradient>
        <linearGradient id="t" x1="-.018" y1="412.629" x2="214.888" y2="412.629" gradientUnits="userSpaceOnUse">
            <stop stop-color="#E5908C"/>
            <stop offset="1" stop-color="#EAB0AF"/>
        </linearGradient>
        <clipPath id="a">
            <path fill="#fff" d="M0 0h119v120H0z"/>
        </clipPath>
    </defs>
</svg>
